{
.appVersion = "923";
DisplayStrings = (
delver,
"",
vwxyz
);
date = "2016-07-12 15:05:37 +0000";
designer = "Maciej Połczyński";
designerURL = "maciej@polczynski.com";
familyName = Cyrulik;
featurePrefixes = (
{
automatic = 1;
code = "languagesystem DFLT dflt;\012languagesystem latn dflt;\012languagesystem latn ROM;\012languagesystem latn MOL;\012languagesystem latn KAZ;\012languagesystem latn TAT;\012languagesystem latn TRK;\012languagesystem latn CRT;\012languagesystem latn AZE;\012";
name = Languagesystems;
}
);
features = (
{
automatic = 1;
code = "feature locl;\012feature ordn;\012feature lnum;\012feature onum;\012feature salt;\012feature ss01;\012feature sups;\012feature numr;\012feature dnom;\012feature frac;\012";
name = aalt;
},
{
automatic = 1;
code = "script latn;\012language ROM;\012sub Scedilla by Scommaaccent;\012sub scedilla by scommaaccent;\012sub Tcedilla by Tcommaaccent;\012sub tcedilla by tcommaaccent;\012language MOL;\012sub Scedilla by Scommaaccent;\012sub scedilla by scommaaccent;\012sub Tcedilla by Tcommaaccent;\012sub tcedilla by tcommaaccent;\012language KAZ;\012sub i by idotaccent;\012language TAT;\012sub i by idotaccent;\012language TRK;\012sub i by idotaccent;\012language CRT;\012sub i by idotaccent;\012language AZE;\012sub i by idotaccent;\012";
name = locl;
},
{
automatic = 1;
code = "sub one by onesuperior;\012sub two by twosuperior;\012sub three by threesuperior;\012";
name = sups;
},
{
automatic = 1;
code = "sub zero by zero.numr;\012sub one by one.numr;\012sub two by two.numr;\012sub three by three.numr;\012sub four by four.numr;\012sub five by five.numr;\012sub six by six.numr;\012sub seven by seven.numr;\012sub eight by eight.numr;\012sub nine by nine.numr;\012";
name = numr;
},
{
automatic = 1;

glyphs = (
{
glyphname = A;
lastChange = "2016-09-26 19:45:20 +0000";
layers = (
{
anchors = (
{
name = bottom;
position = "{270, 0}";
},
{
name = ogonek;
position = "{501, 15}";
},
{
name = top;
position = "{258, 645}";
}
);
layerId = "F5421C71-FF83-445B-9C53-783D261A57C9";
paths = (
{
closed = 1;
nodes = (
"212 594 LINE",
"230 453 LINE",
"246 453 LINE",
"356 0 LINE",
"501 0 LINE",
"321 696 LINE",
"195 696 LINE"
);
},
{
closed = 1;
nodes = (
"203 650 LINE",
"5 0 LINE",
"107 0 LINE",
"294 650 LINE"
);
},
{
closed = 1;
nodes = (
"129 134 LINE",
"345 134 LINE",
"330 216 LINE",
"153 216 LINE"
);
}
);
width = 506;
},
{
associatedMasterId = "F5421C71-FF83-445B-9C53-783D261A57C9";
layerId = "380E385A-8FB0-47AF-B937-B6430ABDEDBE";
name = "Regular Jul 17 16, 01:04";
paths = (
{
closed = 1;
nodes = (
"167 371 OFFCURVE",
"190 261 OFFCURVE",
"216 151 CURVE SMOOTH",
"244 15 LINE",
"247 0 LINE",
"257 -4 OFFCURVE",
"268 -5 OFFCURVE",
"281 -6 CURVE SMOOTH",
"307 -8 OFFCURVE",
"321 -9 OFFCURVE",
"359 6 CURVE",
"325 131 LINE",
"281 300 OFFCURVE",
"275 329 OFFCURVE",
"225 481 CURVE",
"143 481 LINE"
);
},
{
closed = 1;
nodes = (
"143 481 LINE",
"93 325 OFFCURVE",
"52 165 OFFCURVE",
"13 9 CURVE SMOOTH",
"12 5 OFFCURVE",
"12 4 OFFCURVE",
"11 0 CURVE",
"16 -3 OFFCURVE",
"43 -12 OFFCURVE",
"79 -2 CURVE",
"80 3 OFFCURVE",
"81 7 OFFCURVE",
"82 12 CURVE SMOOTH",
"113 168 OFFCURVE",
"162 324 OFFCURVE",
"211 479 CURVE"
);
},
{
closed = 1;
nodes = (
"73 152 OFFCURVE",
"67 136 OFFCURVE",
"77 111 CURVE",
"159 111 OFFCURVE",
"168 112 OFFCURVE",
"250 111 CURVE",
"260 136 OFFCURVE",
"260 152 OFFCURVE",
"250 177 CURVE",
"168 185 OFFCURVE",
"165 175 OFFCURVE",
"83 177 CURVE"
);
}
);
width = 370;
},
{
anchors = (
{
name = bottom;
position = "{183, 0}";
},
{
name = ogonek;
position = "{331, 10}";
},
{
name = top;
position = "{183, 430}";
}
);
associatedMasterId = "F5421C71-FF83-445B-9C53-783D261A57C9";
layerId = "D6B2B90D-DA12-403B-9FA4-46DD161B2158";
name = "Regular Jul 20 16, 14:27";
paths = (
{
closed = 1;
nodes = (
"161 351 OFFCURVE",
"189 242 OFFCURVE",
"207 151 CURVE SMOOTH",
"235 15 LINE",
"238 0 LINE",
"248 -4 OFFCURVE",
"259 -5 OFFCURVE",
"272 -6 CURVE SMOOTH",
"298 -8 OFFCURVE",
"312 -9 OFFCURVE",
"350 6 CURVE",
"316 131 LINE",
"275 280 OFFCURVE",
"270 309 OFFCURVE",
"223 461 CURVE",
"190 466 OFFCURVE",
"161 466 OFFCURVE",
"138 461 CURVE"
);
},
{
closed = 1;
nodes = (
"180 465 OFFCURVE",
"157 465 OFFCURVE",
"138 461 CURVE",
"92 305 OFFCURVE",
"47 165 OFFCURVE",
"10 17 CURVE SMOOTH",
"8 9 OFFCURVE",
"7 6 OFFCURVE",
"5 0 CURVE",
"10 -3 OFFCURVE",
"38 -12 OFFCURVE",
"76 -2 CURVE",
"78 3 OFFCURVE",
"79 7 OFFCURVE",
"80 12 CURVE SMOOTH",
"81 18 OFFCURVE",
"82 24 OFFCURVE",
"84 30 CURVE SMOOTH",
"122 175 OFFCURVE",
"169 310 OFFCURVE",
"209 459 CURVE"
);
},
{
closed = 1;
nodes = (
"75 149 OFFCURVE",
"69 137 OFFCURVE",
"79 112 CURVE",
"158 112 OFFCURVE",
"166 113 OFFCURVE",
"241 112 CURVE",
"251 137 OFFCURVE",
"251 149 OFFCURVE",
"241 174 CURVE",
"166 182 OFFCURVE",
"164 172 OFFCURVE",
"85 174 CURVE"
);
}
);
width = 359;
},
{
anchors = (
{
name = bottom;
position = "{183, 0}";
},
{
name = ogonek;
position = "{331, 10}";
},
{
name = top;
position = "{183, 430}";
}
);
associatedMasterId = "F5421C71-FF83-445B-9C53-783D261A57C9";
layerId = "94C08749-9A88-4D7B-B889-29BEDC693A76";
name = "Regular Jul 21 16, 11:34";
paths = (
{
closed = 1;
nodes = (
"165 351 OFFCURVE",
"188 242 OFFCURVE",
"207 151 CURVE SMOOTH",
"235 15 LINE",
"238 0 LINE",
"248 -4 OFFCURVE",
"257 -5 OFFCURVE",
"270 -6 CURVE SMOOTH",
"296 -7 OFFCURVE",
"321 -5 OFFCURVE",
"350 3 CURVE",
"315 139 OFFCURVE",
"302 189 OFFCURVE",
"292 225 CURVE",
"272 303 OFFCURVE",
"262 347 OFFCURVE",
"225 461 CURVE",
"189 466 OFFCURVE",
"161 466 OFFCURVE",
"141 463 CURVE"
);
},
{
closed = 1;
nodes = (
"174 465 OFFCURVE",
"151 465 OFFCURVE",
"126 461 CURVE",
"96 350 OFFCURVE",
"68 247 OFFCURVE",
"42 152 CURVE",
"29 100 OFFCURVE",
"4 7 OFFCURVE",
"2 3 CURVE",
"5 -3 OFFCURVE",
"34 -13 OFFCURVE",
"74 -2 CURVE",
"76 3 OFFCURVE",
"77 7 OFFCURVE",
"78 12 CURVE SMOOTH",
"78 12 OFFCURVE",
"176 377 OFFCURVE",
"197 459 CURVE"
);
},
{
closed = 1;
nodes = (
"75 149 OFFCURVE",
"69 136 OFFCURVE",
"79 111 CURVE",
"159 109 OFFCURVE",
"167 110 OFFCURVE",
"241 111 CURVE",
"251 136 OFFCURVE",
"251 149 OFFCURVE",
"241 174 CURVE",
"173 180 OFFCURVE",
"148 172 OFFCURVE",
"85 178 CURVE"
);
}
);
width = 359;
},
{
anchors = (
{
name = bottom;
position = "{180, 0}";
},
{
name = ogonek;
position = "{328, 10}";
},
{
name = top;
position = "{180, 430}";
}
);
associatedMasterId = "F5421C71-FF83-445B-9C53-783D261A57C9";
layerId = "9FDF4C17-CF8C-4D01-8EE9-29BF9A807054";
name = "Regular Aug 5 16, 17:24";
paths = (
{
closed = 1;
nodes = (
"162 351 OFFCURVE",
"185 242 OFFCURVE",
"204 151 CURVE SMOOTH",
"228 15 LINE",
"231 0 LINE",
"241 -4 OFFCURVE",
"250 -5 OFFCURVE",
"263 -6 CURVE SMOOTH",
"289 -7 OFFCURVE",
"314 -5 OFFCURVE",
"343 3 CURVE",
"332 50 OFFCURVE",
"311 135 OFFCURVE",
"288 222 CURVE SMOOTH",
"262 321 OFFCURVE",
"235 420 OFFCURVE",
"222 461 CURVE",
"186 466 OFFCURVE",
"158 466 OFFCURVE",
"138 463 CURVE"
);
},
{
closed = 1;
nodes = (
"171 465 OFFCURVE",
"148 465 OFFCURVE",
"123 461 CURVE",
"94 350 OFFCURVE",
"68 247 OFFCURVE",
"43 152 CURVE",
"26 100 OFFCURVE",
"5 7 OFFCURVE",
"3 3 CURVE",
"6 -3 OFFCURVE",
"35 -13 OFFCURVE",
"75 -2 CURVE",
"77 3 OFFCURVE",
"78 7 OFFCURVE",
"79 12 CURVE SMOOTH",
"79 12 OFFCURVE",
"174 377 OFFCURVE",
"194 459 CURVE"
);
},
{
closed = 1;
nodes = (
"72 149 OFFCURVE",
"66 136 OFFCURVE",
"76 111 CURVE",
"156 109 OFFCURVE",
"164 110 OFFCURVE",
"238 111 CURVE",
"248 136 OFFCURVE",
"248 149 OFFCURVE",
"238 174 CURVE",
"170 180 OFFCURVE",
"145 172 OFFCURVE",
"82 178 CURVE"
);
}
);
width = 350;
},
{
anchors = (
{
name = bottom;
position = "{180, 0}";
},
{
name = ogonek;
position = "{328, 10}";
},
{
name = top;
position = "{180, 430}";
}
);
associatedMasterId = "F5421C71-FF83-445B-9C53-783D261A57C9";
layerId = "943D556E-2E91-499B-AE83-5044A5D4DE44";
name = "Regular Aug 8 16, 09:26";
paths = (
{
closed = 1;
nodes = (
"146 394 LINE",
"162 324 LINE",
"158 300 LINE",
"169 300 LINE",
"237 0 LINE",
"334 0 LINE",
"219 462 LINE",
"135 462 LINE"
);
},
{
closed = 1;
nodes = (
"140 431 LINE",
"3 0 LINE",
"71 0 LINE",
"201 429 LINE"
);
},
{
closed = 1;
nodes = (
"72 115 OFFCURVE",
"66 114 OFFCURVE",
"76 89 CURVE",
"238 89 LINE",
"248 114 OFFCURVE",
"248 119 OFFCURVE",
"238 144 CURVE",
"82 144 LINE"
);
}
);
width = 337;
},
{
anchors = (
{
name = bottom;
position = "{270, 0}";
},
{
name = ogonek;
position = "{501, 15}";
},
{
name = top;
position = "{260, 645}";
}
);
layerId = "20F347C1-683B-45AE-B240-2F1F38013DFA";
paths = (
{
closed = 1;
nodes = (
"356 0 LINE",
"501 0 LINE",
"321 696 LINE",
"195 696 LINE"
);
},
{
closed = 1;
nodes = (
"179 569 LINE",
"5 0 LINE",
"107 0 LINE",
"215 389 LINE"
);
},
{
closed = 1;
nodes = (
"129 134 LINE",
"276 134 LINE",
"260 216 LINE",
"153 216 LINE"
);
}
);
width = 506;
},
{
anchors = (
{
name = bottom;
position = "{270, 0}";
},
{
name = ogonek;
position = "{492, 15}";
},
{
name = top;
position = "{270, 645}";
}
);
layerId = "32EE9563-F6F8-4713-95B2-270CD8F86471";
paths = (
{
closed = 1;
nodes = (
"243 527 OFFCURVE",
"278 363 OFFCURVE",
"306 227 CURVE SMOOTH",
"342 23 LINE",
"347 0 LINE",
"362 -6 OFFCURVE",
"375 -8 OFFCURVE",
"395 -9 CURVE SMOOTH",
"434 -11 OFFCURVE",
"471 -8 OFFCURVE",
"515 5 CURVE",
"498 75 OFFCURVE",
"467 203 OFFCURVE",
"432 333 CURVE SMOOTH",
"393 482 OFFCURVE",
"353 630 OFFCURVE",
"333 692 CURVE",
"279 699 OFFCURVE",
"237 699 OFFCURVE",
"207 695 CURVE"
);
},
{
closed = 1;
nodes = (
"257 698 OFFCURVE",
"222 698 OFFCURVE",
"185 692 CURVE",
"141 525 OFFCURVE",
"102 371 OFFCURVE",
"65 228 CURVE",
"39 150 OFFCURVE",
"8 11 OFFCURVE",
"5 5 CURVE",
"9 -5 OFFCURVE",
"53 -20 OFFCURVE",
"113 -3 CURVE",
"116 5 OFFCURVE",
"117 11 OFFCURVE",
"119 18 CURVE SMOOTH",
"119 18 OFFCURVE",
"261 566 OFFCURVE",
"291 689 CURVE"
);
},
{
closed = 1;
nodes = (
"108 224 OFFCURVE",
"99 204 OFFCURVE",
"114 167 CURVE",
"234 164 OFFCURVE",
"246 165 OFFCURVE",
"357 167 CURVE",
"372 204 OFFCURVE",
"372 224 OFFCURVE",
"357 261 CURVE",
"255 270 OFFCURVE",
"218 258 OFFCURVE",
"123 267 CURVE"
);
}
);
width = 525;
},
{
anchors = (
{
name = bottom;
position = "{258, 0}";
},
{
name = ogonek;
position = "{520, 15}";
},
{
name = top;
position = "{246, 645}";
}
);
layerId = "BB1D9E28-2A49-4EEB-AB77-8ACE100BF2E3";
paths = (
{
closed = 1;
nodes = (
"293 185 LINE",
"140 185 LINE",
"118 95 LINE",
"307 95 LINE"
);
},
{
closed = 1;
nodes = (
"310 -4 LINE",
"499 -4 LINE",
"330 696 LINE",
"161 696 LINE",
"169 644 LINE",
"-14 -4 LINE",
"131 -4 LINE",
"265 598 LINE",
"218 508 LINE"
);
}
);
width = 485;
},
{
associatedMasterId = "BB1D9E28-2A49-4EEB-AB77-8ACE100BF2E3";
layerId = "13B7D902-5335-4465-9F41-C643CDA69B17";
name = "Regular Jul 17 16, 01:04";
paths = (
{
closed = 1;
nodes = (
"167 371 OFFCURVE",
"190 261 OFFCURVE",
"216 151 CURVE SMOOTH",
"244 15 LINE",
"247 0 LINE",
"257 -4 OFFCURVE",
"268 -5 OFFCURVE",
"281 -6 CURVE SMOOTH",
"307 -8 OFFCURVE",
"321 -9 OFFCURVE",
"359 6 CURVE",
"325 131 LINE",
"281 300 OFFCURVE",
"275 329 OFFCURVE",
"225 481 CURVE",
"143 481 LINE"
);
},
{
closed = 1;
nodes = (
"143 481 LINE",
"93 325 OFFCURVE",
"52 165 OFFCURVE",
"13 9 CURVE SMOOTH",
"12 5 OFFCURVE",
"12 4 OFFCURVE",
"11 0 CURVE",
"16 -3 OFFCURVE",
"43 -12 OFFCURVE",
"79 -2 CURVE",
"80 3 OFFCURVE",
"81 7 OFFCURVE",
"82 12 CURVE SMOOTH",
"113 168 OFFCURVE",
"162 324 OFFCURVE",
"211 479 CURVE"
);
},
{
closed = 1;
nodes = (
"73 152 OFFCURVE",
"67 136 OFFCURVE",
"77 111 CURVE",
"159 111 OFFCURVE",
"168 112 OFFCURVE",
"250 111 CURVE",
"260 136 OFFCURVE",
"260 152 OFFCURVE",
"250 177 CURVE",
"168 185 OFFCURVE",
"165 175 OFFCURVE",
"83 177 CURVE"
);
}
);
width = 370;
},
{
anchors = (
{
name = bottom;
position = "{183, 0}";
},
{
name = ogonek;
position = "{331, 10}";
},
{
name = top;
position = "{183, 430}";
}
);
associatedMasterId = "BB1D9E28-2A49-4EEB-AB77-8ACE100BF2E3";
layerId = "AFCCB48D-C7E9-432D-8EB2-98EBFDFDB7D3";
name = "Regular Jul 20 16, 14:27";
paths = (
{
closed = 1;
nodes = (
"161 351 OFFCURVE",
"189 242 OFFCURVE",
"207 151 CURVE SMOOTH",
"235 15 LINE",
"238 0 LINE",
"248 -4 OFFCURVE",
"259 -5 OFFCURVE",
"272 -6 CURVE SMOOTH",
"298 -8 OFFCURVE",
"312 -9 OFFCURVE",
"350 6 CURVE",
"316 131 LINE",
"275 280 OFFCURVE",
"270 309 OFFCURVE",
"223 461 CURVE",
"190 466 OFFCURVE",
"161 466 OFFCURVE",
"138 461 CURVE"
);
},
{
closed = 1;
nodes = (
"180 465 OFFCURVE",
"157 465 OFFCURVE",
"138 461 CURVE",
"92 305 OFFCURVE",
"47 165 OFFCURVE",
"10 17 CURVE SMOOTH",
"8 9 OFFCURVE",
"7 6 OFFCURVE",
"5 0 CURVE",
"10 -3 OFFCURVE",
"38 -12 OFFCURVE",
"76 -2 CURVE",
"78 3 OFFCURVE",
"79 7 OFFCURVE",
"80 12 CURVE SMOOTH",
"81 18 OFFCURVE",
"82 24 OFFCURVE",
"84 30 CURVE SMOOTH",
"122 175 OFFCURVE",
"169 310 OFFCURVE",
"209 459 CURVE"
);
},
{
closed = 1;
nodes = (
"75 149 OFFCURVE",
"69 137 OFFCURVE",
"79 112 CURVE",
"158 112 OFFCURVE",
"166 113 OFFCURVE",
"241 112 CURVE",
"251 137 OFFCURVE",
"251 149 OFFCURVE",
"241 174 CURVE",
"166 182 OFFCURVE",
"164 172 OFFCURVE",
"85 174 CURVE"
);
}
);
width = 359;
},
{
anchors = (
{
name = bottom;
position = "{183, 0}";
},
{
name = ogonek;
position = "{331, 10}";
},
{
name = top;
position = "{183, 430}";
}
);
associatedMasterId = "BB1D9E28-2A49-4EEB-AB77-8ACE100BF2E3";
layerId = "5EA5EE2D-ABDB-4A97-87E5-92029D135F7D";
name = "Regular Jul 21 16, 11:34";
paths = (
{
closed = 1;
nodes = (
"165 351 OFFCURVE",
"188 242 OFFCURVE",
"207 151 CURVE SMOOTH",
"235 15 LINE",
"238 0 LINE",
"248 -4 OFFCURVE",
"257 -5 OFFCURVE",
"270 -6 CURVE SMOOTH",
"296 -7 OFFCURVE",
"321 -5 OFFCURVE",
"350 3 CURVE",
"315 139 OFFCURVE",
"302 189 OFFCURVE",
"292 225 CURVE",
"272 303 OFFCURVE",
"262 347 OFFCURVE",
"225 461 CURVE",
"189 466 OFFCURVE",
"161 466 OFFCURVE",
"141 463 CURVE"
);
},
{
closed = 1;
nodes = (
"174 465 OFFCURVE",
"151 465 OFFCURVE",
"126 461 CURVE",
"96 350 OFFCURVE",
"68 247 OFFCURVE",
"42 152 CURVE",
"29 100 OFFCURVE",
"4 7 OFFCURVE",
"2 3 CURVE",
"5 -3 OFFCURVE",
"34 -13 OFFCURVE",
"74 -2 CURVE",
"76 3 OFFCURVE",
"77 7 OFFCURVE",
"78 12 CURVE SMOOTH",
"78 12 OFFCURVE",
"176 377 OFFCURVE",
"197 459 CURVE"
);
},
{
closed = 1;
nodes = (
"75 149 OFFCURVE",
"69 136 OFFCURVE",
"79 111 CURVE",
"159 109 OFFCURVE",
"167 110 OFFCURVE",
"241 111 CURVE",
"251 136 OFFCURVE",
"251 149 OFFCURVE",
"241 174 CURVE",
"173 180 OFFCURVE",
"148 172 OFFCURVE",
"85 178 CURVE"
);
}
);
width = 359;
},
{
anchors = (
{
name = bottom;
position = "{180, 0}";
},
{
name = ogonek;
position = "{328, 10}";
},
{
name = top;
position = "{180, 430}";
}
);
associatedMasterId = "BB1D9E28-2A49-4EEB-AB77-8ACE100BF2E3";
layerId = "BFBBB6BF-6AD2-42B6-AC33-B0DECD4BF7B5";
name = "Regular Aug 5 16, 17:24";
paths = (
{
closed = 1;
nodes = (
"162 351 OFFCURVE",
"185 242 OFFCURVE",
"204 151 CURVE SMOOTH",
"228 15 LINE",
"231 0 LINE",
"241 -4 OFFCURVE",
"250 -5 OFFCURVE",
"263 -6 CURVE SMOOTH",
"289 -7 OFFCURVE",
"314 -5 OFFCURVE",
"343 3 CURVE",
"332 50 OFFCURVE",
"311 135 OFFCURVE",
"288 222 CURVE SMOOTH",
"262 321 OFFCURVE",
"235 420 OFFCURVE",
"222 461 CURVE",
"186 466 OFFCURVE",
"158 466 OFFCURVE",
"138 463 CURVE"
);
},
{
closed = 1;
nodes = (
"171 465 OFFCURVE",
"148 465 OFFCURVE",
"123 461 CURVE",
"94 350 OFFCURVE",
"68 247 OFFCURVE",
"43 152 CURVE",
"26 100 OFFCURVE",
"5 7 OFFCURVE",
"3 3 CURVE",
"6 -3 OFFCURVE",
"35 -13 OFFCURVE",
"75 -2 CURVE",
"77 3 OFFCURVE",
"78 7 OFFCURVE",
"79 12 CURVE SMOOTH",
"79 12 OFFCURVE",
"174 377 OFFCURVE",
"194 459 CURVE"
);
},
{
closed = 1;
nodes = (
"72 149 OFFCURVE",
"66 136 OFFCURVE",
"76 111 CURVE",
"156 109 OFFCURVE",
"164 110 OFFCURVE",
"238 111 CURVE",
"248 136 OFFCURVE",
"248 149 OFFCURVE",
"238 174 CURVE",
"170 180 OFFCURVE",
"145 172 OFFCURVE",
"82 178 CURVE"
);
}
);
width = 350;
},
{
anchors = (
{
name = bottom;
position = "{180, 0}";
},
{
name = ogonek;
position = "{328, 10}";
},
{
name = top;
position = "{180, 430}";
}
);
associatedMasterId = "BB1D9E28-2A49-4EEB-AB77-8ACE100BF2E3";
layerId = "5F027AD0-1436-4834-98A2-03222F6678F1";
name = "Regular Aug 8 16, 09:26";
paths = (
{
closed = 1;
nodes = (
"146 394 LINE",
"162 324 LINE",
"158 300 LINE",
"169 300 LINE",
"237 0 LINE",
"334 0 LINE",
"219 462 LINE",
"135 462 LINE"
);
},
{
closed = 1;
nodes = (
"140 431 LINE",
"3 0 LINE",
"71 0 LINE",
"201 429 LINE"
);
},
{
closed = 1;
nodes = (
"72 115 OFFCURVE",
"66 114 OFFCURVE",
"76 89 CURVE",
"238 89 LINE",
"248 114 OFFCURVE",
"248 119 OFFCURVE",
"238 144 CURVE",
"82 144 LINE"
);
}
);
width = 337;
}
);
leftKerningGroup = A;
rightKerningGroup = A;
unicode = 0041;
},
{
glyphname = Aacute;
lastChange = "2016-09-26 08:54:02 +0000";
layers = (
{
anchors = (
{
name = bottom;
position = "{270, 0}";
},
{
name = ogonek;
position = "{501, 15}";
},
{
name = top;
position = "{258, 645}";
}
);
layerId = "F5421C71-FF83-445B-9C53-783D261A57C9";
paths = (
{
closed = 1;
nodes = (
"212 594 LINE",
"230 453 LINE",
"246 453 LINE",
"356 0 LINE",
"501 0 LINE",
"321 696 LINE",
"195 696 LINE"
);
},
{
closed = 1;
nodes = (
"203 650 LINE",
"5 0 LINE",
"107 0 LINE",
"294 650 LINE"
);
},
{
closed = 1;
nodes = (
"129 134 LINE",
"345 134 LINE",
"330 216 LINE",
"153 216 LINE"
);
},
{
closed = 1;
nodes = (
"306 740 LINE",
"353 911 LINE",
"230 911 LINE",
"225 833 LINE",
"218 740 LINE"
);
}
);
width = 506;
},
{
anchors = (
{
name = bottom;
position = "{270, 0}";
},
{
name = ogonek;
position = "{501, 15}";
},
{
name = top;
position = "{260, 645}";
}
);
components = (
{
name = A;
},
{
name = acutecomb;
transform = "{1, 0, 0, 1, 192, 127}";
}
);
layerId = "20F347C1-683B-45AE-B240-2F1F38013DFA";
width = 506;
},
{
anchors = (
{
name = bottom;
position = "{270, 0}";
},
{
name = ogonek;
position = "{492, 15}";
},
{
name = top;
position = "{270, 645}";
}
);
layerId = "32EE9563-F6F8-4713-95B2-270CD8F86471";
paths = (
{
closed = 1;
nodes = (
"243 527 OFFCURVE",
"278 363 OFFCURVE",
"306 227 CURVE SMOOTH",
"342 23 LINE",
"347 0 LINE",
"362 -6 OFFCURVE",
"375 -8 OFFCURVE",
"395 -9 CURVE SMOOTH",
"434 -11 OFFCURVE",
"471 -8 OFFCURVE",
"515 5 CURVE",
"498 75 OFFCURVE",
"467 203 OFFCURVE",
"432 333 CURVE SMOOTH",
"393 482 OFFCURVE",
"353 630 OFFCURVE",
"333 692 CURVE",
"279 699 OFFCURVE",
"237 699 OFFCURVE",
"207 695 CURVE"
);
},
{
closed = 1;
nodes = (
"257 698 OFFCURVE",
"222 698 OFFCURVE",
"185 692 CURVE",
"141 525 OFFCURVE",
"102 371 OFFCURVE",
"65 228 CURVE",
"39 150 OFFCURVE",
"8 11 OFFCURVE",
"5 5 CURVE",
"9 -5 OFFCURVE",
"53 -20 OFFCURVE",
"113 -3 CURVE",
"116 5 OFFCURVE",
"117 11 OFFCURVE",
"119 18 CURVE SMOOTH",
"119 18 OFFCURVE",
"261 566 OFFCURVE",
"291 689 CURVE"
);
},
{
closed = 1;
nodes = (
"108 224 OFFCURVE",
"99 204 OFFCURVE",
"114 167 CURVE",
"234 164 OFFCURVE",
"246 165 OFFCURVE",
"357 167 CURVE",
"372 204 OFFCURVE",
"372 224 OFFCURVE",
"357 261 CURVE",
"255 270 OFFCURVE",
"218 258 OFFCURVE",
"123 267 CURVE"
);
},
{
closed = 1;
nodes = (
"276 746 OFFCURVE",
"300 755 CURVE",
"329 797 OFFCURVE",
"351 875 OFFCURVE",
"359 908 CURVE",
"350 932 OFFCURVE",
"296 939 OFFCURVE",
"261 933 CURVE",
"255 933 OFFCURVE",
"251 930 OFFCURVE",
"245 917 CURVE",
"233 882 OFFCURVE",
"225 815 OFFCURVE",
"224 767 CURVE",
"239 749 OFFCURVE"
);
}
);
width = 525;
},
{
anchors = (
{
name = bottom;
position = "{270, 0}";
},
{
name = ogonek;
position = "{501, 15}";
},
{
name = top;
position = "{258, 645}";
}
);
components = (
{
name = A;
},
{
name = acutecomb;
transform = "{1, 0, 0, 1, 178, 127}";
}
);
layerId = "BB1D9E28-2A49-4EEB-AB77-8ACE100BF2E3";
width = 485;
}
);
leftKerningGroup = A;
rightKerningGroup = A;
unicode = 00C1;
},
{
glyphname = Abreve;
lastChange = "2016-09-26 08:54:02 +0000";
layers = (
{
anchors = (
{
name = bottom;
position = "{270, 0}";
},
{
name = ogonek;
position = "{501, 15}";
},
{
name = top;
position = "{258, 645}";
}
);
layerId = "F5421C71-FF83-445B-9C53-783D261A57C9";
paths = (
{
closed = 1;
nodes = (
"212 594 LINE",
"230 453 LINE",
"246 453 LINE",
"356 0 LINE",
"501 0 LINE",
"321 696 LINE",
"195 696 LINE"
);
},
{
closed = 1;
nodes = (
"203 650 LINE",
"5 0 LINE",
"107 0 LINE",
"294 650 LINE"
);
},
{
closed = 1;
nodes = (
"129 134 LINE",
"345 134 LINE",
"330 216 LINE",
"153 216 LINE"
);
},
{
closed = 1;
nodes = (
"291 911 LINE",
"296 882 OFFCURVE",
"291 828 OFFCURVE",
"284 794 CURVE",
"225 794 LINE",
"219 828 OFFCURVE",
"215 882 OFFCURVE",
"218 911 CURVE",
"137 911 LINE",
"120 849 OFFCURVE",
"150 755 OFFCURVE",
"221 740 CURVE",
"224 740 OFFCURVE",
"281 740 OFFCURVE",
"288 740 CURVE",
"360 755 OFFCURVE",
"390 849 OFFCURVE",
"374 911 CURVE"
);
}
);
width = 506;
},
{
anchors = (
{
name = bottom;
position = "{270, 0}";
},
{
name = ogonek;
position = "{501, 15}";
},
{
name = top;
position = "{260, 645}";
}
);
components = (
{
name = A;
},
{
name = brevecomb;
transform = "{1, 0, 0, 1, 126, 127}";
}
);
layerId = "20F347C1-683B-45AE-B240-2F1F38013DFA";
width = 506;
},
{
anchors = (
{
name = bottom;
position = "{270, 0}";
},
{
name = ogonek;
position = "{492, 15}";
},
{
name = top;
position = "{270, 645}";
}
);
layerId = "32EE9563-F6F8-4713-95B2-270CD8F86471";
paths = (
{
closed = 1;
nodes = (
"243 527 OFFCURVE",
"278 363 OFFCURVE",
"306 227 CURVE SMOOTH",
"342 23 LINE",
"347 0 LINE",
"362 -6 OFFCURVE",
"375 -8 OFFCURVE",
"395 -9 CURVE SMOOTH",
"434 -11 OFFCURVE",
"471 -8 OFFCURVE",
"515 5 CURVE",
"498 75 OFFCURVE",
"467 203 OFFCURVE",
"432 333 CURVE SMOOTH",
"393 482 OFFCURVE",
"353 630 OFFCURVE",
"333 692 CURVE",
"279 699 OFFCURVE",
"237 699 OFFCURVE",
"207 695 CURVE"
);
},
{
closed = 1;
nodes = (
"257 698 OFFCURVE",
"222 698 OFFCURVE",
"185 692 CURVE",
"141 525 OFFCURVE",
"102 371 OFFCURVE",
"65 228 CURVE",
"39 150 OFFCURVE",
"8 11 OFFCURVE",
"5 5 CURVE",
"9 -5 OFFCURVE",
"53 -20 OFFCURVE",
"113 -3 CURVE",
"116 5 OFFCURVE",
"117 11 OFFCURVE",
"119 18 CURVE SMOOTH",
"119 18 OFFCURVE",
"261 566 OFFCURVE",
"291 689 CURVE"
);
},
{
closed = 1;
nodes = (
"108 224 OFFCURVE",
"99 204 OFFCURVE",
"114 167 CURVE",
"234 164 OFFCURVE",
"246 165 OFFCURVE",
"357 167 CURVE",
"372 204 OFFCURVE",
"372 224 OFFCURVE",
"357 261 CURVE",
"255 270 OFFCURVE",
"218 258 OFFCURVE",
"123 267 CURVE"
);
},
{
closed = 1;
nodes = (
"195 939 OFFCURVE",
"162 936 OFFCURVE",
"146 918 CURVE",
"129 854 OFFCURVE",
"159 767 OFFCURVE",
"230 752 CURVE",
"269 747 OFFCURVE",
"305 746 OFFCURVE",
"323 764 CURVE",
"302 773 OFFCURVE",
"285 783 OFFCURVE",
"272 800 CURVE",
"230 824 OFFCURVE",
"224 881 OFFCURVE",
"222 930 CURVE"
);
},
{
closed = 1;
nodes = (
"311 881 OFFCURVE",
"305 824 OFFCURVE",
"261 800 CURVE",
"248 783 OFFCURVE",
"231 773 OFFCURVE",
"210 764 CURVE",
"228 746 OFFCURVE",
"264 747 OFFCURVE",
"303 752 CURVE",
"375 767 OFFCURVE",
"405 854 OFFCURVE",
"389 918 CURVE",
"374 936 OFFCURVE",
"341 939 OFFCURVE",
"312 930 CURVE"
);
}
);
width = 525;
},
{
anchors = (
{
name = bottom;
position = "{270, 0}";
},
{
name = ogonek;
position = "{501, 15}";
},
{
name = top;
position = "{258, 645}";
}
);
components = (
{
name = A;
},
{
name = brevecomb;
transform = "{1, 0, 0, 1, 112, 127}";
}
);
layerId = "BB1D9E28-2A49-4EEB-AB77-8ACE100BF2E3";
width = 485;
}
);
leftKerningGroup = A;
rightKerningGroup = A;
unicode = 0102;
},
{
glyphname = Acircumflex;
lastChange = "2016-09-26 08:54:02 +0000";
layers = (
{
anchors = (
{
name = bottom;
position = "{270, 0}";
},
{
name = ogonek;
position = "{501, 15}";
},
{
name = top;
position = "{258, 645}";
}
);
layerId = "F5421C71-FF83-445B-9C53-783D261A57C9";
paths = (
{
closed = 1;
nodes = (
"212 594 LINE",
"230 453 LINE",
"246 453 LINE",
"356 0 LINE",
"501 0 LINE",
"321 696 LINE",
"195 696 LINE"
);
},
{
closed = 1;
nodes = (
"203 650 LINE",
"5 0 LINE",
"107 0 LINE",
"294 650 LINE"
);
},
{
closed = 1;
nodes = (
"129 134 LINE",
"345 134 LINE",
"330 216 LINE",
"153 216 LINE"
);
},
{
closed = 1;
nodes = (
"204 740 LINE",
"249 842 LINE",
"294 911 LINE",
"171 911 LINE",
"144 839 LINE",
"116 740 LINE"
);
},
{
closed = 1;
nodes = (
"369 839 LINE",
"342 911 LINE",
"219 911 LINE",
"264 842 LINE",
"309 740 LINE",
"398 740 LINE"
);
}
);
width = 506;
},
{
anchors = (
{
name = bottom;
position = "{270, 0}";
},
{
name = ogonek;
position = "{501, 15}";
},
{
name = top;
position = "{260, 645}";
}
);
components = (
{
name = A;
},
{
name = circumflexcomb;
transform = "{1, 0, 0, 1, 129, 127}";
}
);
layerId = "20F347C1-683B-45AE-B240-2F1F38013DFA";
width = 506;
},
{
anchors = (
{
name = bottom;
position = "{270, 0}";
},
{
name = ogonek;
position = "{492, 15}";
},
{
name = top;
position = "{270, 645}";
}
);
layerId = "32EE9563-F6F8-4713-95B2-270CD8F86471";
paths = (
{
closed = 1;
nodes = (
"243 527 OFFCURVE",
"278 363 OFFCURVE",
"306 227 CURVE SMOOTH",
"342 23 LINE",
"347 0 LINE",
"362 -6 OFFCURVE",
"375 -8 OFFCURVE",
"395 -9 CURVE SMOOTH",
"434 -11 OFFCURVE",
"471 -8 OFFCURVE",
"515 5 CURVE",
"498 75 OFFCURVE",
"467 203 OFFCURVE",
"432 333 CURVE SMOOTH",
"393 482 OFFCURVE",
"353 630 OFFCURVE",
"333 692 CURVE",
"279 699 OFFCURVE",
"237 699 OFFCURVE",
"207 695 CURVE"
);
},
{
closed = 1;
nodes = (
"257 698 OFFCURVE",
"222 698 OFFCURVE",
"185 692 CURVE",
"141 525 OFFCURVE",
"102 371 OFFCURVE",
"65 228 CURVE",
"39 150 OFFCURVE",
"8 11 OFFCURVE",
"5 5 CURVE",
"9 -5 OFFCURVE",
"53 -20 OFFCURVE",
"113 -3 CURVE",
"116 5 OFFCURVE",
"117 11 OFFCURVE",
"119 18 CURVE SMOOTH",
"119 18 OFFCURVE",
"261 566 OFFCURVE",
"291 689 CURVE"
);
},
{
closed = 1;
nodes = (
"108 224 OFFCURVE",
"99 204 OFFCURVE",
"114 167 CURVE",
"234 164 OFFCURVE",
"246 165 OFFCURVE",
"357 167 CURVE",
"372 204 OFFCURVE",
"372 224 OFFCURVE",
"357 261 CURVE",
"255 270 OFFCURVE",
"218 258 OFFCURVE",
"123 267 CURVE"
);
},
{
closed = 1;
nodes = (
"353 746 OFFCURVE",
"383 749 OFFCURVE",
"398 767 CURVE",
"378 831 OFFCURVE",
"335 918 OFFCURVE",
"317 933 CURVE",
"270 938 OFFCURVE",
"222 932 OFFCURVE",
"225 933 CURVE",
"251 890 OFFCURVE",
"288 819 OFFCURVE",
"323 755 CURVE"
);
},
{
closed = 1;
nodes = (
"243 819 OFFCURVE",
"281 890 OFFCURVE",
"305 933 CURVE",
"308 932 OFFCURVE",
"258 938 OFFCURVE",
"213 933 CURVE",
"194 918 OFFCURVE",
"156 831 OFFCURVE",
"137 767 CURVE",
"152 749 OFFCURVE",
"182 746 OFFCURVE",
"212 755 CURVE"
);
}
);
width = 525;
},
{
anchors = (
{
name = bottom;
position = "{270, 0}";
},
{
name = ogonek;
position = "{501, 15}";
},
{
name = top;
position = "{258, 645}";
}
);
components = (
{
name = A;
},
{
name = circumflexcomb;
transform = "{1, 0, 0, 1, 115, 127}";
}
);
layerId = "BB1D9E28-2A49-4EEB-AB77-8ACE100BF2E3";
width = 485;
}
);
leftKerningGroup = A;
rightKerningGroup = A;
unicode = 00C2;
},
{
glyphname = Adieresis;
lastChange = "2016-09-26 08:54:02 +0000";
layers = (
{
anchors = (
{
name = bottom;
position = "{270, 0}";
},
{
name = ogonek;
position = "{501, 15}";
},
{
name = top;
position = "{258, 645}";
}
);
layerId = "F5421C71-FF83-445B-9C53-783D261A57C9";
paths = (
{
closed = 1;
nodes = (
"212 594 LINE",
"230 453 LINE",
"246 453 LINE",
"356 0 LINE",
"501 0 LINE",
"321 696 LINE",
"195 696 LINE"
);
},
{
closed = 1;
nodes = (
"203 650 LINE",
"5 0 LINE",
"107 0 LINE",
"294 650 LINE"
);
},
{
closed = 1;
nodes = (
"129 134 LINE",
"345 134 LINE",
"330 216 LINE",
"153 216 LINE"
);
},
{
closed = 1;
nodes = (
"233 767 LINE",
"237 894 LINE",
"104 894 LINE",
"105 767 LINE"
);
},
{
closed = 1;
nodes = (
"413 767 LINE",
"417 894 LINE",
"284 894 LINE",
"285 767 LINE"
);
}
);
width = 506;
},
{
anchors = (
{
name = bottom;
position = "{270, 0}";
},
{
name = ogonek;
position = "{501, 15}";
},
{
name = top;
position = "{260, 645}";
}
);
components = (
{
name = A;
},
{
name = dieresiscomb;
transform = "{1, 0, 0, 1, 71, 127}";
}
);
layerId = "20F347C1-683B-45AE-B240-2F1F38013DFA";
width = 506;
},
{
anchors = (
{
name = bottom;
position = "{270, 0}";
},
{
name = ogonek;
position = "{492, 15}";
},
{
name = top;
position = "{270, 645}";
}
);
layerId = "32EE9563-F6F8-4713-95B2-270CD8F86471";
paths = (
{
closed = 1;
nodes = (
"243 527 OFFCURVE",
"278 363 OFFCURVE",
"306 227 CURVE SMOOTH",
"342 23 LINE",
"347 0 LINE",
"362 -6 OFFCURVE",
"375 -8 OFFCURVE",
"395 -9 CURVE SMOOTH",
"434 -11 OFFCURVE",
"471 -8 OFFCURVE",
"515 5 CURVE",
"498 75 OFFCURVE",
"467 203 OFFCURVE",
"432 333 CURVE SMOOTH",
"393 482 OFFCURVE",
"353 630 OFFCURVE",
"333 692 CURVE",
"279 699 OFFCURVE",
"237 699 OFFCURVE",
"207 695 CURVE"
);
},
{
closed = 1;
nodes = (
"257 698 OFFCURVE",
"222 698 OFFCURVE",
"185 692 CURVE",
"141 525 OFFCURVE",
"102 371 OFFCURVE",
"65 228 CURVE",
"39 150 OFFCURVE",
"8 11 OFFCURVE",
"5 5 CURVE",
"9 -5 OFFCURVE",
"53 -20 OFFCURVE",
"113 -3 CURVE",
"116 5 OFFCURVE",
"117 11 OFFCURVE",
"119 18 CURVE SMOOTH",
"119 18 OFFCURVE",
"261 566 OFFCURVE",
"291 689 CURVE"
);
},
{
closed = 1;
nodes = (
"108 224 OFFCURVE",
"99 204 OFFCURVE",
"114 167 CURVE",
"234 164 OFFCURVE",
"246 165 OFFCURVE",
"357 167 CURVE",
"372 204 OFFCURVE",
"372 224 OFFCURVE",
"357 261 CURVE",
"255 270 OFFCURVE",
"218 258 OFFCURVE",
"123 267 CURVE"
);
},
{
closed = 1;
nodes = (
"192 749 OFFCURVE",
"216 771 CURVE",
"237 797 OFFCURVE",
"243 854 OFFCURVE",
"233 887 CURVE",
"215 929 OFFCURVE",
"140 939 OFFCURVE",
"114 909 CURVE",
"90 879 OFFCURVE",
"90 818 OFFCURVE",
"108 782 CURVE",
"128 752 OFFCURVE"
);
},
{
closed = 1;
nodes = (
"405 749 OFFCURVE",
"429 771 CURVE",
"450 797 OFFCURVE",
"455 854 OFFCURVE",
"444 887 CURVE",
"428 929 OFFCURVE",
"353 939 OFFCURVE",
"326 909 CURVE",
"303 879 OFFCURVE",
"302 818 OFFCURVE",
"320 782 CURVE",
"339 752 OFFCURVE"
);
}
);
width = 525;
},
{
anchors = (
{
name = bottom;
position = "{270, 0}";
},
{
name = ogonek;
position = "{501, 15}";
},
{
name = top;
position = "{258, 645}";
}
);
components = (
{
name = A;
},
{
name = dieresiscomb;
transform = "{1, 0, 0, 1, 57, 127}";
}
);
layerId = "BB1D9E28-2A49-4EEB-AB77-8ACE100BF2E3";
width = 485;
}
);
leftKerningGroup = A;
rightKerningGroup = A;
unicode = 00C4;
},
{
glyphname = Agrave;
lastChange = "2016-09-26 08:54:02 +0000";
layers = (
{
anchors = (
{
name = bottom;
position = "{270, 0}";
},
{
name = ogonek;
position = "{501, 15}";
},
{
name = top;
position = "{258, 645}";
}
);
layerId = "F5421C71-FF83-445B-9C53-783D261A57C9";
paths = (
{
closed = 1;
nodes = (
"212 594 LINE",
"230 453 LINE",
"246 453 LINE",
"356 0 LINE",
"501 0 LINE",
"321 696 LINE",
"195 696 LINE"
);
},
{
closed = 1;
nodes = (
"203 650 LINE",
"5 0 LINE",
"107 0 LINE",
"294 650 LINE"
);
},
{
closed = 1;
nodes = (
"129 134 LINE",
"345 134 LINE",
"330 216 LINE",
"153 216 LINE"
);
},
{
closed = 1;
nodes = (
"288 833 LINE",
"287 911 LINE",
"164 911 LINE",
"183 836 LINE",
"213 740 LINE",
"302 740 LINE"
);
}
);
width = 506;
},
{
anchors = (
{
name = bottom;
position = "{270, 0}";
},
{
name = ogonek;
position = "{501, 15}";
},
{
name = top;
position = "{260, 645}";
}
);
components = (
{
name = A;
},
{
name = gravecomb;
transform = "{1, 0, 0, 1, 192, 127}";
}
);
layerId = "20F347C1-683B-45AE-B240-2F1F38013DFA";
width = 506;
},
{
anchors = (
{
name = bottom;
position = "{270, 0}";
},
{
name = ogonek;
position = "{492, 15}";
},
{
name = top;
position = "{270, 645}";
}
);
layerId = "32EE9563-F6F8-4713-95B2-270CD8F86471";
paths = (
{
closed = 1;
nodes = (
"243 527 OFFCURVE",
"278 363 OFFCURVE",
"306 227 CURVE SMOOTH",
"342 23 LINE",
"347 0 LINE",
"362 -6 OFFCURVE",
"375 -8 OFFCURVE",
"395 -9 CURVE SMOOTH",
"434 -11 OFFCURVE",
"471 -8 OFFCURVE",
"515 5 CURVE",
"498 75 OFFCURVE",
"467 203 OFFCURVE",
"432 333 CURVE SMOOTH",
"393 482 OFFCURVE",
"353 630 OFFCURVE",
"333 692 CURVE",
"279 699 OFFCURVE",
"237 699 OFFCURVE",
"207 695 CURVE"
);
},
{
closed = 1;
nodes = (
"257 698 OFFCURVE",
"222 698 OFFCURVE",
"185 692 CURVE",
"141 525 OFFCURVE",
"102 371 OFFCURVE",
"65 228 CURVE",
"39 150 OFFCURVE",
"8 11 OFFCURVE",
"5 5 CURVE",
"9 -5 OFFCURVE",
"53 -20 OFFCURVE",
"113 -3 CURVE",
"116 5 OFFCURVE",
"117 11 OFFCURVE",
"119 18 CURVE SMOOTH",
"119 18 OFFCURVE",
"261 566 OFFCURVE",
"291 689 CURVE"
);
},
{
closed = 1;
nodes = (
"108 224 OFFCURVE",
"99 204 OFFCURVE",
"114 167 CURVE",
"234 164 OFFCURVE",
"246 165 OFFCURVE",
"357 167 CURVE",
"372 204 OFFCURVE",
"372 224 OFFCURVE",
"357 261 CURVE",
"255 270 OFFCURVE",
"218 258 OFFCURVE",
"123 267 CURVE"
);
},
{
closed = 1;
nodes = (
"315 767 CURVE",
"314 815 OFFCURVE",
"312 882 OFFCURVE",
"294 917 CURVE",
"288 930 OFFCURVE",
"284 933 OFFCURVE",
"278 933 CURVE",
"243 939 OFFCURVE",
"189 932 OFFCURVE",
"180 908 CURVE",
"188 875 OFFCURVE",
"210 797 OFFCURVE",
"239 755 CURVE",
"263 746 OFFCURVE",
"300 749 OFFCURVE"
);
}
);
width = 525;
},
{
anchors = (
{
name = bottom;
position = "{270, 0}";
},
{
name = ogonek;
position = "{501, 15}";
},
{
name = top;
position = "{258, 645}";
}
);
components = (
{
name = A;
},
{
name = gravecomb;
transform = "{1, 0, 0, 1, 178, 127}";
}
);
layerId = "BB1D9E28-2A49-4EEB-AB77-8ACE100BF2E3";
width = 485;
}
);
leftKerningGroup = A;
rightKerningGroup = A;
unicode = 00C0;
},
{
glyphname = Amacron;
lastChange = "2016-09-26 08:54:02 +0000";
layers = (
{
anchors = (
{
name = bottom;
position = "{270, 0}";
},
{
name = ogonek;
position = "{501, 15}";
},
{
name = top;
position = "{258, 645}";
}
);
layerId = "F5421C71-FF83-445B-9C53-783D261A57C9";
paths = (
{
closed = 1;
nodes = (
"212 594 LINE",
"230 453 LINE",
"246 453 LINE",
"356 0 LINE",
"501 0 LINE",
"321 696 LINE",
"195 696 LINE"
);
},
{
closed = 1;
nodes = (
"203 650 LINE",
"5 0 LINE",
"107 0 LINE",
"294 650 LINE"
);
},
{
closed = 1;
nodes = (
"129 134 LINE",
"345 134 LINE",
"330 216 LINE",
"153 216 LINE"
);
},
{
closed = 1;
nodes = (
"120 782 LINE",
"395 782 LINE",
"395 875 LINE",
"120 875 LINE"
);
}
);
width = 506;
},
{
anchors = (
{
name = bottom;
position = "{270, 0}";
},
{
name = ogonek;
position = "{501, 15}";
},
{
name = top;
position = "{260, 645}";
}
);
components = (
{
name = A;
},
{
name = macroncomb;
transform = "{1, 0, 0, 1, 117, 127}";
}
);
layerId = "20F347C1-683B-45AE-B240-2F1F38013DFA";
width = 506;
},
{
anchors = (
{
name = bottom;
position = "{270, 0}";
},
{
name = ogonek;
position = "{492, 15}";
},
{
name = top;
position = "{270, 645}";
}
);
layerId = "32EE9563-F6F8-4713-95B2-270CD8F86471";
paths = (
{
closed = 1;
nodes = (
"243 527 OFFCURVE",
"278 363 OFFCURVE",
"306 227 CURVE SMOOTH",
"342 23 LINE",
"347 0 LINE",
"362 -6 OFFCURVE",
"375 -8 OFFCURVE",
"395 -9 CURVE SMOOTH",
"434 -11 OFFCURVE",
"471 -8 OFFCURVE",
"515 5 CURVE",
"498 75 OFFCURVE",
"467 203 OFFCURVE",
"432 333 CURVE SMOOTH",
"393 482 OFFCURVE",
"353 630 OFFCURVE",
"333 692 CURVE",
"279 699 OFFCURVE",
"237 699 OFFCURVE",
"207 695 CURVE"
);
},
{
closed = 1;
nodes = (
"257 698 OFFCURVE",
"222 698 OFFCURVE",
"185 692 CURVE",
"141 525 OFFCURVE",
"102 371 OFFCURVE",
"65 228 CURVE",
"39 150 OFFCURVE",
"8 11 OFFCURVE",
"5 5 CURVE",
"9 -5 OFFCURVE",
"53 -20 OFFCURVE",
"113 -3 CURVE",
"116 5 OFFCURVE",
"117 11 OFFCURVE",
"119 18 CURVE SMOOTH",
"119 18 OFFCURVE",
"261 566 OFFCURVE",
"291 689 CURVE"
);
},
{
closed = 1;
nodes = (
"108 224 OFFCURVE",
"99 204 OFFCURVE",
"114 167 CURVE",
"234 164 OFFCURVE",
"246 165 OFFCURVE",
"357 167 CURVE",
"372 204 OFFCURVE",
"372 224 OFFCURVE",
"357 261 CURVE",
"255 270 OFFCURVE",
"218 258 OFFCURVE",
"123 267 CURVE"
);
},
{
closed = 1;
nodes = (
"125 843 OFFCURVE",
"123 822 OFFCURVE",
"132 792 CURVE",
"243 791 OFFCURVE",
"296 792 OFFCURVE",
"407 792 CURVE",
"414 834 OFFCURVE",
"414 843 OFFCURVE",
"407 885 CURVE",
"305 894 OFFCURVE",
"227 884 OFFCURVE",
"132 885 CURVE"
);
}
);
width = 525;
},
{
anchors = (
{
name = bottom;
position = "{270, 0}";
},
{
name = ogonek;
position = "{501, 15}";
},
{
name = top;
position = "{258, 645}";
}
);
components = (
{
name = A;
},
{
name = macroncomb;
transform = "{1, 0, 0, 1, 103, 127}";
}
);
layerId = "BB1D9E28-2A49-4EEB-AB77-8ACE100BF2E3";
width = 485;
}
);
leftKerningGroup = A;
rightKerningGroup = A;
unicode = 0100;
},
{
glyphname = Aogonek;
lastChange = "2016-09-26 08:54:02 +0000";
layers = (
{
anchors = (
{
name = bottom;
position = "{270, 0}";
},
{
name = ogonek;
position = "{501, 15}";
},
{
name = top;
position = "{258, 645}";
}
);
layerId = "F5421C71-FF83-445B-9C53-783D261A57C9";
paths = (
{
closed = 1;
nodes = (
"212 594 LINE",
"230 453 LINE",
"246 453 LINE",
"356 0 LINE",
"501 0 LINE",
"321 696 LINE",
"195 696 LINE"
);
},
{
closed = 1;
nodes = (
"203 650 LINE",
"5 0 LINE",
"107 0 LINE",
"294 650 LINE"
);
},
{
closed = 1;
nodes = (
"129 134 LINE",
"345 134 LINE",
"330 216 LINE",
"153 216 LINE"
);
},
{
closed = 1;
nodes = (
"491 24 LINE",
"426 23 OFFCURVE",
"324 -21 OFFCURVE",
"324 -126 CURVE SMOOTH",
"324 -209 OFFCURVE",
"384 -233 OFFCURVE",
"432 -233 CURVE SMOOTH",
"468 -233 OFFCURVE",
"488 -224 OFFCURVE",
"503 -218 CURVE",
"503 -132 LINE",
"431 -134 LINE",
"431 -39 LINE",
"431 -35 OFFCURVE",
"462 -14 OFFCURVE",
"498 12 CURVE"
);
}
);
width = 506;
},
{
anchors = (
{
name = bottom;
position = "{270, 0}";
},
{
name = ogonek;
position = "{501, 15}";
},
{
name = top;
position = "{260, 645}";
}
);
components = (
{
name = A;
},
{
name = ogonekcomb;
transform = "{1, 0, 0, 1, 97, 15}";
}
);
layerId = "20F347C1-683B-45AE-B240-2F1F38013DFA";
width = 506;
},
{
anchors = (
{
name = bottom;
position = "{270, 0}";
},
{
name = ogonek;
position = "{492, 15}";
},
{
name = top;
position = "{270, 645}";
}
);
layerId = "32EE9563-F6F8-4713-95B2-270CD8F86471";
paths = (
{
closed = 1;
nodes = (
"243 527 OFFCURVE",
"278 363 OFFCURVE",
"306 227 CURVE SMOOTH",
"342 23 LINE",
"347 0 LINE",
"362 -6 OFFCURVE",
"375 -8 OFFCURVE",
"395 -9 CURVE SMOOTH",
"434 -11 OFFCURVE",
"471 -8 OFFCURVE",
"515 5 CURVE",
"498 75 OFFCURVE",
"467 203 OFFCURVE",
"432 333 CURVE SMOOTH",
"393 482 OFFCURVE",
"353 630 OFFCURVE",
"333 692 CURVE",
"279 699 OFFCURVE",
"237 699 OFFCURVE",
"207 695 CURVE"
);
},
{
closed = 1;
nodes = (
"257 698 OFFCURVE",
"222 698 OFFCURVE",
"185 692 CURVE",
"141 525 OFFCURVE",
"102 371 OFFCURVE",
"65 228 CURVE",
"39 150 OFFCURVE",
"8 11 OFFCURVE",
"5 5 CURVE",
"9 -5 OFFCURVE",
"53 -20 OFFCURVE",
"113 -3 CURVE",
"116 5 OFFCURVE",
"117 11 OFFCURVE",
"119 18 CURVE SMOOTH",
"119 18 OFFCURVE",
"261 566 OFFCURVE",
"291 689 CURVE"
);
},
{
closed = 1;
nodes = (
"108 224 OFFCURVE",
"99 204 OFFCURVE",
"114 167 CURVE",
"234 164 OFFCURVE",
"246 165 OFFCURVE",
"357 167 CURVE",
"372 204 OFFCURVE",
"372 224 OFFCURVE",
"357 261 CURVE",
"255 270 OFFCURVE",
"218 258 OFFCURVE",
"123 267 CURVE"
);
},
{
closed = 1;
nodes = (
"447 48 LINE",
"422 23 OFFCURVE",
"330 -21 OFFCURVE",
"330 -126 CURVE SMOOTH",
"330 -219 OFFCURVE",
"396 -243 OFFCURVE",
"450 -243 CURVE SMOOTH",
"488 -243 OFFCURVE",
"509 -234 OFFCURVE",
"524 -228 CURVE",
"534 -212 OFFCURVE",
"545 -120 OFFCURVE",
"504 -108 CURVE",
"492 -116 OFFCURVE",
"473 -125 OFFCURVE",
"458 -125 CURVE SMOOTH",
"453 -125 OFFCURVE",
"443 -125 OFFCURVE",
"440 -123 CURVE",
"437 -116 OFFCURVE",
"437 -111 OFFCURVE",
"437 -99 CURVE SMOOTH",
"437 -33 OFFCURVE",
"498 5 OFFCURVE",
"518 53 CURVE"
);
}
);
width = 525;
},
{
anchors = (
{
name = bottom;
position = "{270, 0}";
},
{
name = ogonek;
position = "{501, 15}";
},
{
name = top;
position = "{258, 645}";
}
);
components = (
{
name = A;
},
{
name = ogonekcomb;
transform = "{1, 0, 0, 1, 302, 0}";
}
);
layerId = "BB1D9E28-2A49-4EEB-AB77-8ACE100BF2E3";
width = 485;
}
);
leftKerningGroup = A;
rightKerningGroup = A;
unicode = 0104;
},
{
glyphname = Aring;
lastChange = "2016-09-26 08:54:02 +0000";
layers = (
{
anchors = (
{
name = bottom;
position = "{270, 0}";
},
{
name = ogonek;
position = "{501, 15}";
},
{
name = top;
position = "{258, 645}";
}
);
layerId = "F5421C71-FF83-445B-9C53-783D261A57C9";
paths = (
{
closed = 1;
nodes = (
"212 594 LINE",
"230 453 LINE",
"246 453 LINE",
"356 0 LINE",
"501 0 LINE",
"321 696 LINE",
"195 696 LINE"
);
},
{
closed = 1;
nodes = (
"203 650 LINE",
"5 0 LINE",
"107 0 LINE",
"294 650 LINE"
);
},
{
closed = 1;
nodes = (
"129 134 LINE",
"345 134 LINE",
"330 216 LINE",
"153 216 LINE"
);
},
{
closed = 1;
nodes = (
"251 738 OFFCURVE",
"279 740 OFFCURVE",
"284 741 CURVE SMOOTH",
"306 749 OFFCURVE",
"339 782 OFFCURVE",
"339 821 CURVE SMOOTH",
"339 872 OFFCURVE",
"303 912 OFFCURVE",
"254 912 CURVE SMOOTH",
"246 912 OFFCURVE",
"219 911 OFFCURVE",
"213 909 CURVE SMOOTH",
"189 903 OFFCURVE",
"152 864 OFFCURVE",
"152 821 CURVE SMOOTH",
"152 776 OFFCURVE",
"189 738 OFFCURVE",
"245 738 CURVE SMOOTH"
);
},
{
closed = 1;
nodes = (
"224 869 LINE",
"267 869 LINE",
"267 782 LINE",
"224 782 LINE"
);
}
);
width = 506;
},
{
anchors = (
{
name = bottom;
position = "{270, 0}";
},
{
name = ogonek;
position = "{501, 15}";
},
{
name = top;
position = "{260, 645}";
}
);
components = (
{
name = A;
},
{
name = ringcomb;
transform = "{1, 0, 0, 1, 168, 127}";
}
);
layerId = "20F347C1-683B-45AE-B240-2F1F38013DFA";
width = 506;
},
{
anchors = (
{
name = bottom;
position = "{270, 0}";
},
{
name = ogonek;
position = "{492, 15}";
},
{
name = top;
position = "{270, 645}";
}
);
layerId = "32EE9563-F6F8-4713-95B2-270CD8F86471";
paths = (
{
closed = 1;
nodes = (
"243 527 OFFCURVE",
"278 363 OFFCURVE",
"306 227 CURVE SMOOTH",
"342 23 LINE",
"347 0 LINE",
"362 -6 OFFCURVE",
"375 -8 OFFCURVE",
"395 -9 CURVE SMOOTH",
"434 -11 OFFCURVE",
"471 -8 OFFCURVE",
"515 5 CURVE",
"498 75 OFFCURVE",
"467 203 OFFCURVE",
"432 333 CURVE SMOOTH",
"393 482 OFFCURVE",
"353 630 OFFCURVE",
"333 692 CURVE",
"279 699 OFFCURVE",
"237 699 OFFCURVE",
"207 695 CURVE"
);
},
{
closed = 1;
nodes = (
"257 698 OFFCURVE",
"222 698 OFFCURVE",
"185 692 CURVE",
"141 525 OFFCURVE",
"102 371 OFFCURVE",
"65 228 CURVE",
"39 150 OFFCURVE",
"8 11 OFFCURVE",
"5 5 CURVE",
"9 -5 OFFCURVE",
"53 -20 OFFCURVE",
"113 -3 CURVE",
"116 5 OFFCURVE",
"117 11 OFFCURVE",
"119 18 CURVE SMOOTH",
"119 18 OFFCURVE",
"261 566 OFFCURVE",
"291 689 CURVE"
);
},
{
closed = 1;
nodes = (
"108 224 OFFCURVE",
"99 204 OFFCURVE",
"114 167 CURVE",
"234 164 OFFCURVE",
"246 165 OFFCURVE",
"357 167 CURVE",
"372 204 OFFCURVE",
"372 224 OFFCURVE",
"357 261 CURVE",
"255 270 OFFCURVE",
"218 258 OFFCURVE",
"123 267 CURVE"
);
},
{
closed = 1;
nodes = (
"263 723 OFFCURVE",
"291 725 OFFCURVE",
"296 726 CURVE SMOOTH",
"318 734 OFFCURVE",
"351 774 OFFCURVE",
"351 821 CURVE SMOOTH",
"351 875 OFFCURVE",
"315 918 OFFCURVE",
"266 918 CURVE SMOOTH",
"258 918 OFFCURVE",
"231 917 OFFCURVE",
"225 915 CURVE SMOOTH",
"203 909 OFFCURVE",
"168 867 OFFCURVE",
"168 821 CURVE SMOOTH",
"168 767 OFFCURVE",
"204 723 OFFCURVE",
"257 723 CURVE SMOOTH"
);
},
{
closed = 1;
nodes = (
"240 777 OFFCURVE",
"225 797 OFFCURVE",
"225 821 CURVE SMOOTH",
"225 845 OFFCURVE",
"237 857 OFFCURVE",
"242 864 CURVE",
"281 864 OFFCURVE",
"276 864 OFFCURVE",
"279 864 CURVE SMOOTH",
"284 864 OFFCURVE",
"296 845 OFFCURVE",
"296 821 CURVE SMOOTH",
"296 797 OFFCURVE",
"285 785 OFFCURVE",
"281 777 CURVE",
"248 777 OFFCURVE",
"252 777 OFFCURVE",
"249 777 CURVE SMOOTH"
);
}
);
width = 525;
},
{
anchors = (
{
name = bottom;
position = "{270, 0}";
},
{
name = ogonek;
position = "{501, 15}";
},
{
name = top;
position = "{258, 645}";
}
);
components = (
{
name = A;
},
{
name = ringcomb;
transform = "{1, 0, 0, 1, 154, 127}";
}
);
layerId = "BB1D9E28-2A49-4EEB-AB77-8ACE100BF2E3";
width = 485;
}
);
leftKerningGroup = A;
rightKerningGroup = A;
unicode = 00C5;
},
{
glyphname = Atilde;
lastChange = "2016-09-26 08:54:02 +0000";
layers = (
{
anchors = (
{
name = bottom;
position = "{270, 0}";
},
{
name = ogonek;
position = "{501, 15}";
},
{
name = top;
position = "{258, 645}";
}
);
layerId = "F5421C71-FF83-445B-9C53-783D261A57C9";
paths = (
{
closed = 1;
nodes = (
"212 594 LINE",
"230 453 LINE",
"246 453 LINE",
"356 0 LINE",
"501 0 LINE",
"321 696 LINE",
"195 696 LINE"
);
},
{
closed = 1;
nodes = (
"203 650 LINE",
"5 0 LINE",
"107 0 LINE",
"294 650 LINE"
);
},
{
closed = 1;
nodes = (
"129 134 LINE",
"345 134 LINE",
"330 216 LINE",
"153 216 LINE"
);
},
{
closed = 1;
nodes = (
"342 824 LINE",
"312 824 LINE",
"261 879 OFFCURVE",
"234 920 OFFCURVE",
"162 908 CURVE",
"123 888 OFFCURVE",
"98 837 OFFCURVE",
"83 759 CURVE",
"162 759 LINE",
"162 833 LINE",
"192 833 LINE",
"237 786 OFFCURVE",
"282 726 OFFCURVE",
"348 749 CURVE",
"381 771 OFFCURVE",
"411 824 OFFCURVE",
"422 897 CURVE",
"342 897 LINE"
);
}
);
width = 506;
},
{
anchors = (
{
name = bottom;
position = "{270, 0}";
},
{
name = ogonek;
position = "{501, 15}";
},
{
name = top;
position = "{260, 645}";
}
);
components = (
{
name = A;
},
{
name = tildecomb;
transform = "{1, 0, 0, 1, 59, 127}";
}
);
layerId = "20F347C1-683B-45AE-B240-2F1F38013DFA";
width = 506;
},
{
anchors = (
{
name = bottom;
position = "{270, 0}";
},
{
name = ogonek;
position = "{492, 15}";
},
{
name = top;
position = "{270, 645}";
}
);
layerId = "32EE9563-F6F8-4713-95B2-270CD8F86471";
paths = (
{
closed = 1;
nodes = (
"243 527 OFFCURVE",
"278 363 OFFCURVE",
"306 227 CURVE SMOOTH",
"342 23 LINE",
"347 0 LINE",
"362 -6 OFFCURVE",
"375 -8 OFFCURVE",
"395 -9 CURVE SMOOTH",
"434 -11 OFFCURVE",
"471 -8 OFFCURVE",
"515 5 CURVE",
"498 75 OFFCURVE",
"467 203 OFFCURVE",
"432 333 CURVE SMOOTH",
"393 482 OFFCURVE",
"353 630 OFFCURVE",
"333 692 CURVE",
"279 699 OFFCURVE",
"237 699 OFFCURVE",
"207 695 CURVE"
);
},
{
closed = 1;
nodes = (
"257 698 OFFCURVE",
"222 698 OFFCURVE",
"185 692 CURVE",
"141 525 OFFCURVE",
"102 371 OFFCURVE",
"65 228 CURVE",
"39 150 OFFCURVE",
"8 11 OFFCURVE",
"5 5 CURVE",
"9 -5 OFFCURVE",
"53 -20 OFFCURVE",
"113 -3 CURVE",
"116 5 OFFCURVE",
"117 11 OFFCURVE",
"119 18 CURVE SMOOTH",
"119 18 OFFCURVE",
"261 566 OFFCURVE",
"291 689 CURVE"
);
},
{
closed = 1;
nodes = (
"108 224 OFFCURVE",
"99 204 OFFCURVE",
"114 167 CURVE",
"234 164 OFFCURVE",
"246 165 OFFCURVE",
"357 167 CURVE",
"372 204 OFFCURVE",
"372 224 OFFCURVE",
"357 261 CURVE",
"255 270 OFFCURVE",
"218 258 OFFCURVE",
"123 267 CURVE"
);
},
{
closed = 1;
nodes = (
"350 872 OFFCURVE",
"341 845 OFFCURVE",
"339 834 CURVE",
"279 885 OFFCURVE",
"254 930 OFFCURVE",
"174 918 CURVE",
"138 897 OFFCURVE",
"107 867 OFFCURVE",
"95 789 CURVE",
"111 774 OFFCURVE",
"126 770 OFFCURVE",
"165 770 CURVE",
"180 806 OFFCURVE",
"189 834 OFFCURVE",
"189 843 CURVE",
"240 803 OFFCURVE",
"288 738 OFFCURVE",
"360 759 CURVE",
"393 782 OFFCURVE",
"423 815 OFFCURVE",
"434 888 CURVE",
"417 900 OFFCURVE",
"402 905 OFFCURVE",
"365 908 CURVE"
);
}
);
width = 525;
},
{
anchors = (
{
name = bottom;
position = "{270, 0}";
},
{
name = ogonek;
position = "{501, 15}";
},
{
name = top;
position = "{258, 645}";
}
);
components = (
{
name = A;
},
{
name = tildecomb;
transform = "{1, 0, 0, 1, 45, 127}";
}
);
layerId = "BB1D9E28-2A49-4EEB-AB77-8ACE100BF2E3";
width = 485;
}
);
leftKerningGroup = A;
rightKerningGroup = A;
unicode = 00C3;
},
{
glyphname = AE;
lastChange = "2016-09-26 08:39:46 +0000";
layers = (
{
anchors = (
{
name = bottom;
position = "{271, 0}";
},
{
name = ogonek;
position = "{502, 15}";
},
{
name = top;
position = "{271, 645}";
},
{
name = topleft;
position = "{284, 645}";
}
);
layerId = "F5421C71-FF83-445B-9C53-783D261A57C9";
paths = (
{
closed = 1;
nodes = (
"203 650 LINE",
"5 0 LINE",
"107 0 LINE",
"295 647 LINE"
);
},
{
closed = 1;
nodes = (
"130 134 LINE",
"346 134 LINE",
"331 216 LINE",
"154 216 LINE"
);
},
{
closed = 1;
nodes = (
"293 696 LINE",
"293 0 LINE",
"439 0 LINE",
"439 696 LINE"
);
},
{
closed = 1;
nodes = (
"374 311 LINE",
"590 311 LINE",
"590 393 LINE",
"374 393 LINE"
);
},
{
closed = 1;
nodes = (
"374 0 LINE",
"613 0 LINE",
"601 173 LINE",
"517 68 LINE",
"374 68 LINE"
);
},
{
closed = 1;
nodes = (
"199 629 LINE",
"523 629 LINE",
"601 509 LINE",
"613 696 LINE",
"199 696 LINE"
);
}
);
width = 655;
},
{
anchors = (
{
name = bottom;
position = "{270, 0}";
},
{
name = ogonek;
position = "{501, 15}";
},
{
name = top;
position = "{260, 645}";
},
{
name = topleft;
position = "{284, 645}";
}
);
layerId = "20F347C1-683B-45AE-B240-2F1F38013DFA";
paths = (
{
closed = 1;
nodes = (
"242 696 LINE",
"5 0 LINE",
"107 0 LINE",
"242 453 LINE"
);
},
{
closed = 1;
nodes = (
"129 134 LINE",
"242 134 LINE",
"242 216 LINE",
"153 216 LINE"
);
},
{
closed = 1;
nodes = (
"293 696 LINE",
"293 0 LINE",
"438 0 LINE",
"438 696 LINE"
);
},
{
closed = 1;
nodes = (
"509 311 LINE",
"590 296 LINE",
"590 408 LINE",
"509 393 LINE"
);
},
{
closed = 1;
nodes = (
"509 0 LINE",
"612 0 LINE",
"600 177 LINE",
"509 68 LINE"
);
},
{
closed = 1;
nodes = (
"509 629 LINE",
"600 509 LINE",
"612 696 LINE",
"509 696 LINE"
);
}
);
width = 654;
},
{
anchors = (
{
name = bottom;
position = "{539, 0}";
},
{
name = ogonek;
position = "{698, 15}";
},
{
name = top;
position = "{539, 645}";
},
{
name = topleft;
position = "{368, 645}";
}
);
layerId = "32EE9563-F6F8-4713-95B2-270CD8F86471";
paths = (
{
closed = 1;
nodes = (
"344 527 OFFCURVE",
"378 363 OFFCURVE",
"407 227 CURVE SMOOTH",
"443 23 LINE",
"447 0 LINE",
"462 -6 OFFCURVE",
"476 -8 OFFCURVE",
"495 -9 CURVE SMOOTH",
"534 -11 OFFCURVE",
"572 -8 OFFCURVE",
"615 5 CURVE",
"599 75 OFFCURVE",
"567 203 OFFCURVE",
"533 333 CURVE SMOOTH",
"494 482 OFFCURVE",
"453 630 OFFCURVE",
"434 692 CURVE",
"380 699 OFFCURVE",
"338 699 OFFCURVE",
"308 695 CURVE"
);
},
{
closed = 1;
nodes = (
"357 698 OFFCURVE",
"323 698 OFFCURVE",
"285 692 CURVE",
"242 525 OFFCURVE",
"203 371 OFFCURVE",
"165 228 CURVE",
"140 150 OFFCURVE",
"108 11 OFFCURVE",
"105 5 CURVE",
"110 -5 OFFCURVE",
"153 -20 OFFCURVE",
"213 -3 CURVE",
"216 5 OFFCURVE",
"218 11 OFFCURVE",
"219 18 CURVE SMOOTH",
"219 18 OFFCURVE",
"362 566 OFFCURVE",
"392 689 CURVE"
);
},
{
closed = 1;
nodes = (
"209 224 OFFCURVE",
"200 204 OFFCURVE",
"215 167 CURVE",
"335 164 OFFCURVE",
"347 165 OFFCURVE",
"458 167 CURVE",
"473 204 OFFCURVE",
"473 224 OFFCURVE",
"458 261 CURVE",
"356 270 OFFCURVE",
"318 258 OFFCURVE",
"224 267 CURVE"
);
},
{
closed = 1;
nodes = (
"378 672 LINE",
"380 642 OFFCURVE",
"381 612 OFFCURVE",
"381 591 CURVE",
"384 390 LINE",
"527 381 LINE",
"524 657 LINE SMOOTH",
"524 690 OFFCURVE",
"476 690 OFFCURVE",
"455 690 CURVE",
"423 690 OFFCURVE",
"401 686 OFFCURVE",
"387 681 CURVE"
);
},
{
closed = 1;
nodes = (
"381 71 LINE",
"377 0 LINE",
"399 -5 OFFCURVE",
"459 0 OFFCURVE",
"500 0 CURVE",
"524 0 LINE",
"527 381 LINE",
"384 420 LINE"
);
},
{
closed = 1;
nodes = (
"413 300 LINE",
"504 296 OFFCURVE",
"605 297 OFFCURVE",
"695 300 CURVE",
"705 333 OFFCURVE",
"716 365 OFFCURVE",
"705 398 CURVE",
"689 398 OFFCURVE",
"665 398 OFFCURVE",
"648 398 CURVE SMOOTH",
"573 398 OFFCURVE",
"525 389 OFFCURVE",
"480 393 CURVE"
);
},
{
closed = 1;
nodes = (
"413 597 LINE",
"504 593 OFFCURVE",
"615 594 OFFCURVE",
"708 597 CURVE",
"716 615 OFFCURVE",
"726 647 OFFCURVE",
"713 695 CURVE",
"699 695 OFFCURVE",
"675 695 OFFCURVE",
"659 695 CURVE SMOOTH",
"584 695 OFFCURVE",
"513 690 OFFCURVE",
"465 690 CURVE"
);
},
{
closed = 1;
nodes = (
"419 -2 LINE",
"510 -6 OFFCURVE",
"618 -5 OFFCURVE",
"717 -2 CURVE",
"720 32 OFFCURVE",
"725 62 OFFCURVE",
"719 96 CURVE",
"702 96 OFFCURVE",
"678 96 OFFCURVE",
"662 96 CURVE SMOOTH",
"585 96 OFFCURVE",
"530 93 OFFCURVE",
"483 95 CURVE"
);
}
);
width = 936;
},
{
anchors = (
{
name = bottom;
position = "{276, 0}";
},
{
name = ogonek;
position = "{507, 15}";
},
{
name = top;
position = "{276, 645}";
},
{
name = topleft;
position = "{289, 645}";
}
);
layerId = "BB1D9E28-2A49-4EEB-AB77-8ACE100BF2E3";
paths = (
{
closed = 1;
nodes = (
"188 655 LINE",
"-13 -4 LINE",
"132 -4 LINE",
"322 650 LINE"
);
},
{
closed = 1;
nodes = (
"112 130 LINE",
"374 130 LINE",
"357 220 LINE",
"139 220 LINE"
);
},
{
closed = 1;
nodes = (
"276 700 LINE",
"276 -4 LINE",
"466 -4 LINE",
"466 700 LINE"
);
},
{
closed = 1;
nodes = (
"357 307 LINE",
"617 307 LINE",
"617 397 LINE",
"357 397 LINE"
);
},
{
closed = 1;
nodes = (
"357 -4 LINE",
"640 -4 LINE",
"625 220 LINE",
"506 72 LINE",
"357 72 LINE"
);
},
{
closed = 1;
nodes = (
"182 625 LINE",
"511 625 LINE",
"624 450 LINE",
"640 700 LINE",
"182 700 LINE"
);
}
);
width = 663;
}
);
leftKerningGroup = A;
leftMetricsKey = A;
rightKerningGroup = E;
rightMetricsKey = E;
unicode = 00C6;
},
{
glyphname = B;
lastChange = "2016-09-26 19:47:46 +0000";
layers = (
{
anchors = (
{
name = bottom;
position = "{251, 0}";
},
{
name = top;
position = "{251, 645}";
}
);
layerId = "F5421C71-FF83-445B-9C53-783D261A57C9";
paths = (
{
closed = 1;
nodes = (
"57 0 LINE",
"198 0 LINE",
"198 696 LINE",
"57 696 LINE"
);
},
{
closed = 1;
nodes = (
"281 0 LINE",
"375 0 OFFCURVE",
"456 32 OFFCURVE",
"456 180 CURVE SMOOTH",
"456 285 OFFCURVE",
"431 347 OFFCURVE",
"363 368 CURVE",
"392 372 OFFCURVE",
"437 411 OFFCURVE",
"437 516 CURVE SMOOTH",
"437 626 OFFCURVE",
"398 696 OFFCURVE",
"291 696 CURVE",
"57 696 LINE",
"80 623 LINE",
"290 623 LINE",
"290 396 LINE",
"114 396 LINE",
"114 318 LINE",
"300 318 LINE",
"300 75 LINE",
"153 75 LINE",
"57 0 LINE"
);
}
);
width = 488;
},
{
associatedMasterId = "F5421C71-FF83-445B-9C53-783D261A57C9";
layerId = "D0CFC576-F14E-4546-842C-63FE6FC16A27";
name = "Regular Jul 17 16, 19:24";
paths = (
{
closed = 1;
nodes = (
"25 448 LINE",
"26 428 OFFCURVE",
"27 408 OFFCURVE",
"27 394 CURVE",
"29 260 LINE",
"124 254 LINE",
"122 438 LINE SMOOTH",
"122 460 OFFCURVE",
"90 460 OFFCURVE",
"76 460 CURVE",
"55 460 OFFCURVE",
"40 457 OFFCURVE",
"31 454 CURVE"
);
},
{
closed = 1;
nodes = (
"27 47 LINE",
"24 0 LINE",
"39 -3 OFFCURVE",
"79 0 OFFCURVE",
"106 0 CURVE",
"122 0 LINE",
"124 254 LINE",
"29 280 LINE"
);
},
{
closed = 1;
nodes = (
"297 -23 OFFCURVE",
"297 120 CURVE SMOOTH",
"297 186 OFFCURVE",
"276 225 OFFCURVE",
"213 235 CURVE",
"245 238 OFFCURVE",
"289 267 OFFCURVE",
"289 329 CURVE SMOOTH",
"289 411 OFFCURVE",
"256 460 OFFCURVE",
"182 460 CURVE SMOOTH",
"162 460 OFFCURVE",
"123 460 OFFCURVE",
"93 460 CURVE",
"48 398 LINE",
"83 396 OFFCURVE",
"122 396 OFFCURVE",
"160 396 CURVE SMOOTH",
"197 396 OFFCURVE",
"206 372 OFFCURVE",
"206 330 CURVE SMOOTH",
"206 307 OFFCURVE",
"194 264 OFFCURVE",
"149 263 CURVE",
"128 261 OFFCURVE",
"110 260 OFFCURVE",
"93 262 CURVE",
"48 200 LINE",
"82 198 OFFCURVE",
"120 198 OFFCURVE",
"156 198 CURVE SMOOTH",
"201 198 OFFCURVE",
"217 160 OFFCURVE",
"217 124 CURVE SMOOTH",
"217 82 OFFCURVE",
"186 63 OFFCURVE",
"154 62 CURVE",
"132 60 OFFCURVE",
"114 59 OFFCURVE",
"97 61 CURVE",
"52 -1 LINE",
"176 -7 OFFCURVE"
);
}
);
width = 320;
},
{
anchors = (
{
name = bottom;
position = "{157, 0}";
},
{
name = top;
position = "{157, 430}";
}
);
associatedMasterId = "F5421C71-FF83-445B-9C53-783D261A57C9";
layerId = "3C021A9E-C2C4-46E9-9C93-2A1A1369BC77";
name = "Regular Jul 20 16, 14:29";
paths = (
{
closed = 1;
nodes = (
"25 448 LINE",
"26 428 OFFCURVE",
"27 408 OFFCURVE",
"27 394 CURVE",
"29 260 LINE",
"124 247 LINE",
"122 438 LINE SMOOTH",
"122 460 OFFCURVE",
"90 460 OFFCURVE",
"76 460 CURVE",
"55 460 OFFCURVE",
"40 457 OFFCURVE",
"31 454 CURVE"
);
},
{
closed = 1;
nodes = (
"27 47 LINE",
"24 0 LINE",
"39 -3 OFFCURVE",
"79 0 OFFCURVE",
"106 0 CURVE",
"122 0 LINE",
"124 247 LINE",
"29 280 LINE"
);
},
{
closed = 1;
nodes = (
"293 -23 OFFCURVE",
"293 120 CURVE SMOOTH",
"293 186 OFFCURVE",
"275 225 OFFCURVE",
"229 235 CURVE",
"246 238 OFFCURVE",
"283 267 OFFCURVE",
"283 335 CURVE SMOOTH",
"283 411 OFFCURVE",
"253 460 OFFCURVE",
"188 460 CURVE SMOOTH",
"168 460 OFFCURVE",
"123 460 OFFCURVE",
"83 460 CURVE",
"48 412 LINE",
"83 410 OFFCURVE",
"128 410 OFFCURVE",
"176 410 CURVE SMOOTH",
"188 410 OFFCURVE",
"192 381 OFFCURVE",
"192 336 CURVE SMOOTH",
"192 305 OFFCURVE",
"187 257 OFFCURVE",
"179 256 CURVE",
"134 254 OFFCURVE",
"110 253 OFFCURVE",
"93 255 CURVE",
"48 202 LINE",
"82 200 OFFCURVE",
"126 200 OFFCURVE",
"186 200 CURVE SMOOTH",
"197 200 OFFCURVE",
"205 161 OFFCURVE",
"205 124 CURVE SMOOTH",
"205 75 OFFCURVE",
"193 52 OFFCURVE",
"181 51 CURVE",
"150 49 OFFCURVE",
"120 48 OFFCURVE",
"97 50 CURVE",
"52 -1 LINE",
"177 -7 OFFCURVE"
);
}
);
width = 315;
},
{
anchors = (
{
name = bottom;
position = "{157, 0}";
},
{
name = top;
position = "{157, 430}";
}
);
associatedMasterId = "F5421C71-FF83-445B-9C53-783D261A57C9";
layerId = "F0A227AC-E339-4AD2-8355-1527A9F00D9F";
name = "Regular Aug 11 16, 16:57";
paths = (
{
closed = 1;
nodes = (
"27 0 LINE",
"106 0 LINE",
"122 0 LINE",
"121 464 LINE",
"28 464 LINE"
);
},
{
closed = 1;
nodes = (
"169 0 LINE",
"232 0 OFFCURVE",
"286 21 OFFCURVE",
"286 120 CURVE SMOOTH",
"286 190 OFFCURVE",
"269 231 OFFCURVE",
"224 245 CURVE",
"244 248 OFFCURVE",
"276 274 OFFCURVE",
"276 341 CURVE SMOOTH",
"276 417 OFFCURVE",
"251 464 OFFCURVE",
"183 464 CURVE",
"28 464 LINE",
"43 415 LINE",
"78 413 OFFCURVE",
"123 415 OFFCURVE",
"176 415 CURVE",
"180 403 OFFCURVE",
"177 270 OFFCURVE",
"174 264 CURVE",
"129 262 OFFCURVE",
"105 262 OFFCURVE",
"88 264 CURVE",
"43 208 LINE",
"77 212 OFFCURVE",
"121 212 OFFCURVE",
"181 212 CURVE",
"185 203 OFFCURVE",
"186 70 OFFCURVE",
"182 50 CURVE",
"146 50 OFFCURVE",
"116 50 OFFCURVE",
"92 50 CURVE",
"28 0 LINE"
);
}
);
width = 315;
},
{
anchors = (
{
name = bottom;
position = "{157, 0}";
},
{
name = top;
position = "{157, 430}";
}
);
associatedMasterId = "F5421C71-FF83-445B-9C53-783D261A57C9";
layerId = "B051B7E8-D717-4253-8868-F28BDC4A7176";
name = "Regular Aug 14 16, 23:27";
paths = (
{
closed = 1;
nodes = (
"28 0 LINE",
"122 0 LINE",
"121 464 LINE",
"28 464 LINE"
);
},
{
closed = 1;
nodes = (
"177 0 LINE",
"240 0 OFFCURVE",
"294 21 OFFCURVE",
"294 120 CURVE SMOOTH",
"294 190 OFFCURVE",
"277 231 OFFCURVE",
"232 245 CURVE",
"252 248 OFFCURVE",
"284 274 OFFCURVE",
"284 341 CURVE SMOOTH",
"284 417 OFFCURVE",
"259 464 OFFCURVE",
"191 464 CURVE",
"28 464 LINE",
"43 415 LINE",
"184 415 LINE",
"188 403 OFFCURVE",
"185 270 OFFCURVE",
"182 264 CURVE",
"88 264 LINE",
"43 212 LINE",
"189 212 LINE",
"193 203 OFFCURVE",
"194 70 OFFCURVE",
"190 50 CURVE",
"92 50 LINE",
"28 0 LINE"
);
}
);
width = 315;
},
{
anchors = (
{
name = bottom;
position = "{251, 0}";
},
{
name = top;
position = "{251, 645}";
}
);
layerId = "20F347C1-683B-45AE-B240-2F1F38013DFA";
paths = (
{
closed = 1;
nodes = (
"57 0 LINE",
"198 0 LINE",
"198 696 LINE",
"57 696 LINE"
);
},
{
closed = 1;
nodes = (
"276 0 LINE",
"371 0 OFFCURVE",
"456 32 OFFCURVE",
"456 180 CURVE SMOOTH",
"456 276 OFFCURVE",
"431 338 OFFCURVE",
"339 368 CURVE",
"392 380 OFFCURVE",
"437 419 OFFCURVE",
"437 516 CURVE SMOOTH",
"437 626 OFFCURVE",
"383 696 OFFCURVE",
"276 696 CURVE",
"276 623 LINE",
"276 396 LINE",
"276 318 LINE",
"276 75 LINE"
);
}
);
width = 488;
},
{
anchors = (
{
name = bottom;
position = "{236, 0}";
},
{
name = top;
position = "{236, 645}";
}
);
layerId = "32EE9563-F6F8-4713-95B2-270CD8F86471";
paths = (
{
closed = 1;
nodes = (
"41 675 LINE",
"41 644 OFFCURVE",
"41 614 OFFCURVE",
"41 561 CURVE",
"44 390 LINE",
"186 371 LINE",
"183 657 LINE SMOOTH",
"183 690 OFFCURVE",
"135 690 OFFCURVE",
"114 690 CURVE",
"84 690 OFFCURVE",
"63 686 OFFCURVE",
"54 683 CURVE"
);
},
{
closed = 1;
nodes = (
"41 71 LINE",
"38 0 LINE",
"60 -5 OFFCURVE",
"119 0 OFFCURVE",
"159 0 CURVE",
"183 0 LINE",
"186 371 LINE",
"44 420 LINE"
);
},
{
closed = 1;
nodes = (
"437 -32 OFFCURVE",
"437 180 CURVE SMOOTH",
"437 279 OFFCURVE",
"411 333 OFFCURVE",
"344 353 CURVE",
"374 357 OFFCURVE",
"423 401 OFFCURVE",
"423 503 CURVE SMOOTH",
"423 617 OFFCURVE",
"386 690 OFFCURVE",
"282 690 CURVE SMOOTH",
"252 690 OFFCURVE",
"185 690 OFFCURVE",
"125 690 CURVE",
"72 617 LINE",
"125 614 OFFCURVE",
"192 617 OFFCURVE",
"272 617 CURVE",
"282 609 OFFCURVE",
"288 572 OFFCURVE",
"288 504 CURVE SMOOTH",
"288 458 OFFCURVE",
"281 389 OFFCURVE",
"269 384 CURVE",
"201 381 OFFCURVE",
"165 381 OFFCURVE",
"140 384 CURVE",
"72 303 LINE",
"123 300 OFFCURVE",
"189 300 OFFCURVE",
"279 300 CURVE",
"290 294 OFFCURVE",
"297 242 OFFCURVE",
"297 186 CURVE SMOOTH",
"297 111 OFFCURVE",
"287 83 OFFCURVE",
"281 75 CURVE",
"227 75 OFFCURVE",
"182 75 OFFCURVE",
"146 75 CURVE",
"54 -2 LINE",
"273 -11 OFFCURVE"
);
}
);
width = 473;
},
{
anchors = (
{
name = bottom;
position = "{251, 0}";
},
{
name = top;
position = "{251, 645}";
}
);
layerId = "BB1D9E28-2A49-4EEB-AB77-8ACE100BF2E3";
paths = (
{
closed = 1;
nodes = (
"427 366 OFFCURVE",
"464 424 OFFCURVE",
"464 516 CURVE SMOOTH",
"464 635 OFFCURVE",
"410 696 OFFCURVE",
"296 696 CURVE SMOOTH",
"35 696 LINE",
"35 -4 LINE",
"286 -4 LINE SMOOTH",
"420 -4 OFFCURVE",
"483 55 OFFCURVE",
"483 180 CURVE SMOOTH",
"483 303 OFFCURVE",
"450 354 OFFCURVE",
"327 377 CURVE",
"330 364 LINE"
);
},
{
closed = 1;
nodes = (
"273 400 LINE",
"220 400 LINE",
"220 615 LINE",
"273 615 LINE"
);
},
{
closed = 1;
nodes = (
"220 79 LINE",
"220 314 LINE",
"283 314 LINE",
"283 79 LINE"
);
}
);
width = 493;
},
{
associatedMasterId = "BB1D9E28-2A49-4EEB-AB77-8ACE100BF2E3";
layerId = "BC01FEDE-0D98-4FC2-8ABC-679269057D46";
name = "Regular Jul 17 16, 19:24";
paths = (
{
closed = 1;
nodes = (
"25 448 LINE",
"26 428 OFFCURVE",
"27 408 OFFCURVE",
"27 394 CURVE",
"29 260 LINE",
"124 254 LINE",
"122 438 LINE SMOOTH",
"122 460 OFFCURVE",
"90 460 OFFCURVE",
"76 460 CURVE",
"55 460 OFFCURVE",
"40 457 OFFCURVE",
"31 454 CURVE"
);
},
{
closed = 1;
nodes = (
"27 47 LINE",
"24 0 LINE",
"39 -3 OFFCURVE",
"79 0 OFFCURVE",
"106 0 CURVE",
"122 0 LINE",
"124 254 LINE",
"29 280 LINE"
);
},
{
closed = 1;
nodes = (
"297 -23 OFFCURVE",
"297 120 CURVE SMOOTH",
"297 186 OFFCURVE",
"276 225 OFFCURVE",
"213 235 CURVE",
"245 238 OFFCURVE",
"289 267 OFFCURVE",
"289 329 CURVE SMOOTH",
"289 411 OFFCURVE",
"256 460 OFFCURVE",
"182 460 CURVE SMOOTH",
"162 460 OFFCURVE",
"123 460 OFFCURVE",
"93 460 CURVE",
"48 398 LINE",
"83 396 OFFCURVE",
"122 396 OFFCURVE",
"160 396 CURVE SMOOTH",
"197 396 OFFCURVE",
"206 372 OFFCURVE",
"206 330 CURVE SMOOTH",
"206 307 OFFCURVE",
"194 264 OFFCURVE",
"149 263 CURVE",
"128 261 OFFCURVE",
"110 260 OFFCURVE",
"93 262 CURVE",
"48 200 LINE",
"82 198 OFFCURVE",
"120 198 OFFCURVE",
"156 198 CURVE SMOOTH",
"201 198 OFFCURVE",
"217 160 OFFCURVE",
"217 124 CURVE SMOOTH",
"217 82 OFFCURVE",
"186 63 OFFCURVE",
"154 62 CURVE",
"132 60 OFFCURVE",
"114 59 OFFCURVE",
"97 61 CURVE",
"52 -1 LINE",
"176 -7 OFFCURVE"
);
}
);
width = 320;
},
{
anchors = (
{
name = bottom;
position = "{157, 0}";
},
{
name = top;
position = "{157, 430}";
}
);
associatedMasterId = "BB1D9E28-2A49-4EEB-AB77-8ACE100BF2E3";
layerId = "A2FA6CDE-7E18-4FA5-A67D-5E679918E22A";
name = "Regular Jul 20 16, 14:29";
paths = (
{
closed = 1;
nodes = (
"25 448 LINE",
"26 428 OFFCURVE",
"27 408 OFFCURVE",
"27 394 CURVE",
"29 260 LINE",
"124 247 LINE",
"122 438 LINE SMOOTH",
"122 460 OFFCURVE",
"90 460 OFFCURVE",
"76 460 CURVE",
"55 460 OFFCURVE",
"40 457 OFFCURVE",
"31 454 CURVE"
);
},
{
closed = 1;
nodes = (
"27 47 LINE",
"24 0 LINE",
"39 -3 OFFCURVE",
"79 0 OFFCURVE",
"106 0 CURVE",
"122 0 LINE",
"124 247 LINE",
"29 280 LINE"
);
},
{
closed = 1;
nodes = (
"293 -23 OFFCURVE",
"293 120 CURVE SMOOTH",
"293 186 OFFCURVE",
"275 225 OFFCURVE",
"229 235 CURVE",
"246 238 OFFCURVE",
"283 267 OFFCURVE",
"283 335 CURVE SMOOTH",
"283 411 OFFCURVE",
"253 460 OFFCURVE",
"188 460 CURVE SMOOTH",
"168 460 OFFCURVE",
"123 460 OFFCURVE",
"83 460 CURVE",
"48 412 LINE",
"83 410 OFFCURVE",
"128 410 OFFCURVE",
"176 410 CURVE SMOOTH",
"188 410 OFFCURVE",
"192 381 OFFCURVE",
"192 336 CURVE SMOOTH",
"192 305 OFFCURVE",
"187 257 OFFCURVE",
"179 256 CURVE",
"134 254 OFFCURVE",
"110 253 OFFCURVE",
"93 255 CURVE",
"48 202 LINE",
"82 200 OFFCURVE",
"126 200 OFFCURVE",
"186 200 CURVE SMOOTH",
"197 200 OFFCURVE",
"205 161 OFFCURVE",
"205 124 CURVE SMOOTH",
"205 75 OFFCURVE",
"193 52 OFFCURVE",
"181 51 CURVE",
"150 49 OFFCURVE",
"120 48 OFFCURVE",
"97 50 CURVE",
"52 -1 LINE",
"177 -7 OFFCURVE"
);
}
);
width = 315;
},
{
anchors = (
{
name = bottom;
position = "{157, 0}";
},
{
name = top;
position = "{157, 430}";
}
);
associatedMasterId = "BB1D9E28-2A49-4EEB-AB77-8ACE100BF2E3";
layerId = "54BA1FFF-5012-41D4-9729-4D8F4AFA5EBC";
name = "Regular Aug 11 16, 16:57";
paths = (
{
closed = 1;
nodes = (
"27 0 LINE",
"106 0 LINE",
"122 0 LINE",
"121 464 LINE",
"28 464 LINE"
);
},
{
closed = 1;
nodes = (
"169 0 LINE",
"232 0 OFFCURVE",
"286 21 OFFCURVE",
"286 120 CURVE SMOOTH",
"286 190 OFFCURVE",
"269 231 OFFCURVE",
"224 245 CURVE",
"244 248 OFFCURVE",
"276 274 OFFCURVE",
"276 341 CURVE SMOOTH",
"276 417 OFFCURVE",
"251 464 OFFCURVE",
"183 464 CURVE",
"28 464 LINE",
"43 415 LINE",
"78 413 OFFCURVE",
"123 415 OFFCURVE",
"176 415 CURVE",
"180 403 OFFCURVE",
"177 270 OFFCURVE",
"174 264 CURVE",
"129 262 OFFCURVE",
"105 262 OFFCURVE",
"88 264 CURVE",
"43 208 LINE",
"77 212 OFFCURVE",
"121 212 OFFCURVE",
"181 212 CURVE",
"185 203 OFFCURVE",
"186 70 OFFCURVE",
"182 50 CURVE",
"146 50 OFFCURVE",
"116 50 OFFCURVE",
"92 50 CURVE",
"28 0 LINE"
);
}
);
width = 315;
},
{
anchors = (
{
name = bottom;
position = "{157, 0}";
},
{
name = top;
position = "{157, 430}";
}
);
associatedMasterId = "BB1D9E28-2A49-4EEB-AB77-8ACE100BF2E3";
layerId = "55306BC1-E1C7-479D-9A30-6C7E40864B63";
name = "Regular Aug 14 16, 23:27";
paths = (
{
closed = 1;
nodes = (
"28 0 LINE",
"122 0 LINE",
"121 464 LINE",
"28 464 LINE"
);
},
{
closed = 1;
nodes = (
"177 0 LINE",
"240 0 OFFCURVE",
"294 21 OFFCURVE",
"294 120 CURVE SMOOTH",
"294 190 OFFCURVE",
"277 231 OFFCURVE",
"232 245 CURVE",
"252 248 OFFCURVE",
"284 274 OFFCURVE",
"284 341 CURVE SMOOTH",
"284 417 OFFCURVE",
"259 464 OFFCURVE",
"191 464 CURVE",
"28 464 LINE",
"43 415 LINE",
"184 415 LINE",
"188 403 OFFCURVE",
"185 270 OFFCURVE",
"182 264 CURVE",
"88 264 LINE",
"43 212 LINE",
"189 212 LINE",
"193 203 OFFCURVE",
"194 70 OFFCURVE",
"190 50 CURVE",
"92 50 LINE",
"28 0 LINE"
);
}
);
width = 315;
}
);
leftKerningGroup = H;
leftMetricsKey = H;
rightKerningGroup = B;
unicode = 0042;
},
{
glyphname = C;
lastChange = "2016-09-26 19:34:44 +0000";
layers = (
{
anchors = (
{
name = bottom;
position = "{245, 0}";
},
{
name = top;
position = "{260, 645}";
}
);
layerId = "F5421C71-FF83-445B-9C53-783D261A57C9";
paths = (
{
closed = 1;
nodes = (
"203 344 LINE",
"203 618 LINE",
"290 618 LINE",
"399 486 LINE",
"416 665 LINE",
"366 693 OFFCURVE",
"324 701 OFFCURVE",
"245 701 CURVE",
"99 701 OFFCURVE",
"30 599 OFFCURVE",
"30 344 CURVE"
);
},
{
closed = 1;
nodes = (
"30 69 OFFCURVE",
"101 -11 OFFCURVE",
"264 -11 CURVE SMOOTH",
"333 -11 OFFCURVE",
"371 -2 OFFCURVE",
"420 18 CURVE",
"395 191 LINE",
"291 72 LINE",
"203 72 LINE",
"203 344 LINE",
"30 344 LINE"
);
}
);
width = 447;
},
{
anchors = (
{
name = bottom;
position = "{158, 0}";
},
{
name = top;
position = "{180, 430}";
}
);
associatedMasterId = "F5421C71-FF83-445B-9C53-783D261A57C9";
layerId = "BAB537DE-8C81-4CB5-98F9-481243CF0763";
name = "Regular Jul 20 16, 14:53";
paths = (
{
closed = 1;
nodes = (
"117 229 LINE",
"117 316 OFFCURVE",
"131 388 OFFCURVE",
"149 409 CURVE",
"172 409 LINE",
"182 395 OFFCURVE",
"227 369 OFFCURVE",
"243 363 CURVE",
"266 373 OFFCURVE",
"281 394 OFFCURVE",
"285 430 CURVE",
"248 457 OFFCURVE",
"218 464 OFFCURVE",
"182 464 CURVE",
"165 464 LINE",
"50 456 OFFCURVE",
"13 333 OFFCURVE",
"13 229 CURVE"
);
},
{
closed = 1;
nodes = (
"13 125 OFFCURVE",
"42 -1 OFFCURVE",
"165 -6 CURVE",
"187 -6 LINE",
"219 -6 OFFCURVE",
"247 0 OFFCURVE",
"282 13 CURVE",
"278 49 OFFCURVE",
"265 85 OFFCURVE",
"251 111 CURVE",
"217 92 OFFCURVE",
"190 62 OFFCURVE",
"179 49 CURVE",
"149 49 LINE",
"131 70 OFFCURVE",
"117 142 OFFCURVE",
"117 229 CURVE",
"13 229 LINE"
);
}
);
width = 293;
},
{
anchors = (
{
name = bottom;
position = "{151, 0}";
},
{
name = top;
position = "{173, 430}";
}
);
associatedMasterId = "F5421C71-FF83-445B-9C53-783D261A57C9";
layerId = "15A042A0-5AA0-4C6F-B846-E214902D1A62";
name = "Regular Aug 8 16, 09:26";
paths = (
{
closed = 1;
nodes = (
"125 229 LINE",
"125 319 OFFCURVE",
"128 391 OFFCURVE",
"131 412 CURVE",
"187 412 LINE",
"260 324 LINE",
"271 443 LINE",
"238 462 OFFCURVE",
"211 467 OFFCURVE",
"166 467 CURVE",
"70 467 OFFCURVE",
"20 395 OFFCURVE",
"20 229 CURVE"
);
},
{
closed = 1;
nodes = (
"20 61 OFFCURVE",
"64 -6 OFFCURVE",
"155 -6 CURVE",
"210 -6 OFFCURVE",
"235 0 OFFCURVE",
"268 13 CURVE",
"251 123 LINE",
"182 49 LINE",
"131 49 LINE",
"128 70 OFFCURVE",
"125 142 OFFCURVE",
"125 229 CURVE",
"20 229 LINE"
);
}
);
width = 286;
},
{
anchors = (
{
name = bottom;
position = "{147, 0}";
},
{
name = top;
position = "{169, 430}";
}
);
associatedMasterId = "F5421C71-FF83-445B-9C53-783D261A57C9";
layerId = "66156280-AD81-43B5-AD59-09EF3475EC92";
name = "Regular Aug 14 16, 23:27";
paths = (
{
closed = 1;
nodes = (
"128 229 LINE",
"128 319 OFFCURVE",
"131 391 OFFCURVE",
"134 412 CURVE",
"177 412 LINE",
"250 324 LINE",
"261 443 LINE",
"228 462 OFFCURVE",
"201 467 OFFCURVE",
"162 467 CURVE",
"73 467 OFFCURVE",
"23 395 OFFCURVE",
"23 229 CURVE"
);
},
{
closed = 1;
nodes = (
"23 60 OFFCURVE",
"67 -7 OFFCURVE",
"151 -7 CURVE",
"206 -7 OFFCURVE",
"231 -1 OFFCURVE",
"264 12 CURVE",
"247 127 LINE",
"178 48 LINE",
"134 48 LINE",
"131 69 OFFCURVE",
"128 141 OFFCURVE",
"128 229 CURVE",
"23 229 LINE"
);
}
);
width = 282;
},
{
anchors = (
{
name = bottom;
position = "{147, 0}";
},
{
name = top;
position = "{169, 430}";
}
);
associatedMasterId = "F5421C71-FF83-445B-9C53-783D261A57C9";
layerId = "11B27C2D-8D1B-4903-BD1D-7BE383562B36";
name = "Regular Aug 15 16, 13:56";
paths = (
{
closed = 1;
nodes = (
"129 229 LINE",
"129 412 LINE",
"177 412 LINE",
"250 324 LINE",
"261 443 LINE",
"228 462 OFFCURVE",
"201 467 OFFCURVE",
"162 467 CURVE",
"73 467 OFFCURVE",
"23 395 OFFCURVE",
"23 229 CURVE"
);
},
{
closed = 1;
nodes = (
"23 46 OFFCURVE",
"67 -7 OFFCURVE",
"170 -7 CURVE SMOOTH",
"206 -7 OFFCURVE",
"231 -1 OFFCURVE",
"264 12 CURVE",
"247 127 LINE",
"178 48 LINE",
"129 48 LINE",
"129 229 LINE",
"23 229 LINE"
);
}
);
width = 282;
},
{
anchors = (
{
name = bottom;
position = "{273, 0}";
},
{
name = top;
position = "{237, 645}";
}
);
layerId = "20F347C1-683B-45AE-B240-2F1F38013DFA";
paths = (
{
closed = 1;
nodes = (
"285 618 LINE",
"399 486 LINE",
"416 665 LINE",
"375 687 OFFCURVE",
"341 699 OFFCURVE",
"285 699 CURVE"
);
},
{
closed = 1;
nodes = (
"291 -11 LINE",
"344 -11 OFFCURVE",
"378 2 OFFCURVE",
"420 18 CURVE",
"395 191 LINE",
"291 72 LINE"
);
},
{
closed = 1;
nodes = (
"207 698 LINE",
"89 698 OFFCURVE",
"30 575 OFFCURVE",
"30 344 CURVE",
"207 344 LINE"
);
},
{
closed = 1;
nodes = (
"207 344 LINE",
"30 344 LINE",
"30 102 OFFCURVE",
"83 -6 OFFCURVE",
"207 -6 CURVE"
);
}
);
width = 447;
},
{
anchors = (
{
name = bottom;
position = "{237, 0}";
},
{
name = top;
position = "{270, 645}";
}
);
layerId = "32EE9563-F6F8-4713-95B2-270CD8F86471";
paths = (
{
closed = 1;
nodes = (
"176 344 LINE",
"176 474 OFFCURVE",
"197 582 OFFCURVE",
"224 614 CURVE",
"258 614 LINE",
"273 593 OFFCURVE",
"341 554 OFFCURVE",
"365 545 CURVE",
"399 560 OFFCURVE",
"422 591 OFFCURVE",
"428 645 CURVE",
"372 686 OFFCURVE",
"327 696 OFFCURVE",
"273 696 CURVE",
"248 696 LINE",
"75 684 OFFCURVE",
"20 500 OFFCURVE",
"20 344 CURVE"
);
},
{
closed = 1;
nodes = (
"20 188 OFFCURVE",
"63 -2 OFFCURVE",
"248 -9 CURVE",
"281 -9 LINE",
"327 -9 OFFCURVE",
"368 0 OFFCURVE",
"419 20 CURVE",
"414 74 OFFCURVE",
"398 128 OFFCURVE",
"381 167 CURVE",
"329 138 OFFCURVE",
"285 93 OFFCURVE",
"269 74 CURVE",
"224 74 LINE",
"197 105 OFFCURVE",
"176 213 OFFCURVE",
"176 344 CURVE",
"20 344 LINE"
);
}
);
width = 440;
},
{
anchors = (
{
name = bottom;
position = "{255, 0}";
},
{
name = top;
position = "{270, 645}";
}
);
layerId = "BB1D9E28-2A49-4EEB-AB77-8ACE100BF2E3";
paths = (
{
closed = 1;
nodes = (
"254 76 LINE",
"235 76 LINE",
"235 614 LINE",
"252 614 LINE",
"403 448 LINE",
"416 669 LINE",
"366 695 OFFCURVE",
"313 705 OFFCURVE",
"255 705 CURVE SMOOTH",
"87 705 OFFCURVE",
"18 596 OFFCURVE",
"18 344 CURVE SMOOTH",
"18 80 OFFCURVE",
"84 -15 OFFCURVE",
"254 -15 CURVE SMOOTH",
"314 -15 OFFCURVE",
"362 -7 OFFCURVE",
"420 13 CURVE",
"399 224 LINE"
);
}
);
width = 428;
},
{
anchors = (
{
name = bottom;
position = "{158, 0}";
},
{
name = top;
position = "{180, 430}";
}
);
associatedMasterId = "BB1D9E28-2A49-4EEB-AB77-8ACE100BF2E3";
layerId = "ADB0D508-9F3A-4341-B6F9-D75B6A022AF3";
name = "Regular Jul 20 16, 14:53";
paths = (
{
closed = 1;
nodes = (
"117 229 LINE",
"117 316 OFFCURVE",
"131 388 OFFCURVE",
"149 409 CURVE",
"172 409 LINE",
"182 395 OFFCURVE",
"227 369 OFFCURVE",
"243 363 CURVE",
"266 373 OFFCURVE",
"281 394 OFFCURVE",
"285 430 CURVE",
"248 457 OFFCURVE",
"218 464 OFFCURVE",
"182 464 CURVE",
"165 464 LINE",
"50 456 OFFCURVE",
"13 333 OFFCURVE",
"13 229 CURVE"
);
},
{
closed = 1;
nodes = (
"13 125 OFFCURVE",
"42 -1 OFFCURVE",
"165 -6 CURVE",
"187 -6 LINE",
"219 -6 OFFCURVE",
"247 0 OFFCURVE",
"282 13 CURVE",
"278 49 OFFCURVE",
"265 85 OFFCURVE",
"251 111 CURVE",
"217 92 OFFCURVE",
"190 62 OFFCURVE",
"179 49 CURVE",
"149 49 LINE",
"131 70 OFFCURVE",
"117 142 OFFCURVE",
"117 229 CURVE",
"13 229 LINE"
);
}
);
width = 293;
},
{
anchors = (
{
name = bottom;
position = "{151, 0}";
},
{
name = top;
position = "{173, 430}";
}
);
associatedMasterId = "BB1D9E28-2A49-4EEB-AB77-8ACE100BF2E3";
layerId = "568E3F80-8D87-41FC-8996-83531DEDE594";
name = "Regular Aug 8 16, 09:26";
paths = (
{
closed = 1;
nodes = (
"125 229 LINE",
"125 319 OFFCURVE",
"128 391 OFFCURVE",
"131 412 CURVE",
"187 412 LINE",
"260 324 LINE",
"271 443 LINE",
"238 462 OFFCURVE",
"211 467 OFFCURVE",
"166 467 CURVE",
"70 467 OFFCURVE",
"20 395 OFFCURVE",
"20 229 CURVE"
);
},
{
closed = 1;
nodes = (
"20 61 OFFCURVE",
"64 -6 OFFCURVE",
"155 -6 CURVE",
"210 -6 OFFCURVE",
"235 0 OFFCURVE",
"268 13 CURVE",
"251 123 LINE",
"182 49 LINE",
"131 49 LINE",
"128 70 OFFCURVE",
"125 142 OFFCURVE",
"125 229 CURVE",
"20 229 LINE"
);
}
);
width = 286;
},
{
anchors = (
{
name = bottom;
position = "{147, 0}";
},
{
name = top;
position = "{169, 430}";
}
);
associatedMasterId = "BB1D9E28-2A49-4EEB-AB77-8ACE100BF2E3";
layerId = "DD8B1735-0605-4CF3-AF99-24AB6BC063D2";
name = "Regular Aug 14 16, 23:27";
paths = (
{
closed = 1;
nodes = (
"128 229 LINE",
"128 319 OFFCURVE",
"131 391 OFFCURVE",
"134 412 CURVE",
"177 412 LINE",
"250 324 LINE",
"261 443 LINE",
"228 462 OFFCURVE",
"201 467 OFFCURVE",
"162 467 CURVE",
"73 467 OFFCURVE",
"23 395 OFFCURVE",
"23 229 CURVE"
);
},
{
closed = 1;
nodes = (
"23 60 OFFCURVE",
"67 -7 OFFCURVE",
"151 -7 CURVE",
"206 -7 OFFCURVE",
"231 -1 OFFCURVE",
"264 12 CURVE",
"247 127 LINE",
"178 48 LINE",
"134 48 LINE",
"131 69 OFFCURVE",
"128 141 OFFCURVE",
"128 229 CURVE",
"23 229 LINE"
);
}
);
width = 282;
},
{
anchors = (
{
name = bottom;
position = "{147, 0}";
},
{
name = top;
position = "{169, 430}";
}
);
associatedMasterId = "BB1D9E28-2A49-4EEB-AB77-8ACE100BF2E3";
layerId = "C4786EE4-C7D2-4CF2-817F-897E855092EB";
name = "Regular Aug 15 16, 13:56";
paths = (
{
closed = 1;
nodes = (
"129 229 LINE",
"129 412 LINE",
"177 412 LINE",
"250 324 LINE",
"261 443 LINE",
"228 462 OFFCURVE",
"201 467 OFFCURVE",
"162 467 CURVE",
"73 467 OFFCURVE",
"23 395 OFFCURVE",
"23 229 CURVE"
);
},
{
closed = 1;
nodes = (
"23 46 OFFCURVE",
"67 -7 OFFCURVE",
"170 -7 CURVE SMOOTH",
"206 -7 OFFCURVE",
"231 -1 OFFCURVE",
"264 12 CURVE",
"247 127 LINE",
"178 48 LINE",
"129 48 LINE",
"129 229 LINE",
"23 229 LINE"
);
}
);
width = 282;
}
);
leftKerningGroup = O;
leftMetricsKey = O;
rightKerningGroup = C;
unicode = 0043;
},
{
glyphname = Cacute;
lastChange = "2016-09-23 14:49:47 +0000";
layers = (
{
anchors = (
{
name = bottom;
position = "{245, 0}";
},
{
name = top;
position = "{260, 645}";
}
);
layerId = "F5421C71-FF83-445B-9C53-783D261A57C9";
paths = (
{
closed = 1;
nodes = (
"203 344 LINE",
"203 618 LINE",
"290 618 LINE",
"399 486 LINE",
"416 665 LINE",
"366 693 OFFCURVE",
"324 701 OFFCURVE",
"245 701 CURVE",
"99 701 OFFCURVE",
"30 599 OFFCURVE",
"30 344 CURVE"
);
},
{
closed = 1;
nodes = (
"30 69 OFFCURVE",
"101 -11 OFFCURVE",
"264 -11 CURVE SMOOTH",
"333 -11 OFFCURVE",
"371 -2 OFFCURVE",
"420 18 CURVE",
"395 191 LINE",
"291 72 LINE",
"203 72 LINE",
"203 344 LINE",
"30 344 LINE"
);
},
{
closed = 1;
nodes = (
"308 740 LINE",
"354 911 LINE",
"231 911 LINE",
"227 833 LINE",
"219 740 LINE"
);
}
);
width = 447;
},
{
anchors = (
{
name = bottom;
position = "{273, 0}";
},
{
name = top;
position = "{278, 645}";
}
);
components = (
{
name = C;
},
{
name = acutecomb;
transform = "{1, 0, 0, 1, 169, 127}";
}
);
layerId = "20F347C1-683B-45AE-B240-2F1F38013DFA";
width = 447;
},
{
anchors = (
{
name = bottom;
position = "{237, 0}";
},
{
name = top;
position = "{270, 645}";
}
);
layerId = "32EE9563-F6F8-4713-95B2-270CD8F86471";
paths = (
{
closed = 1;
nodes = (
"176 344 LINE",
"176 474 OFFCURVE",
"197 582 OFFCURVE",
"224 614 CURVE",
"258 614 LINE",
"273 593 OFFCURVE",
"341 554 OFFCURVE",
"365 545 CURVE",
"399 560 OFFCURVE",
"422 591 OFFCURVE",
"428 645 CURVE",
"372 686 OFFCURVE",
"327 696 OFFCURVE",
"273 696 CURVE",
"248 696 LINE",
"75 684 OFFCURVE",
"20 500 OFFCURVE",
"20 344 CURVE"
);
},
{
closed = 1;
nodes = (
"20 188 OFFCURVE",
"63 -2 OFFCURVE",
"248 -9 CURVE",
"281 -9 LINE",
"327 -9 OFFCURVE",
"368 0 OFFCURVE",
"419 20 CURVE",
"414 74 OFFCURVE",
"398 128 OFFCURVE",
"381 167 CURVE",
"329 138 OFFCURVE",
"285 93 OFFCURVE",
"269 74 CURVE",
"224 74 LINE",
"197 105 OFFCURVE",
"176 213 OFFCURVE",
"176 344 CURVE",
"20 344 LINE"
);
},
{
closed = 1;
nodes = (
"276 746 OFFCURVE",
"300 755 CURVE",
"329 797 OFFCURVE",
"351 875 OFFCURVE",
"359 908 CURVE",
"350 932 OFFCURVE",
"296 939 OFFCURVE",
"261 933 CURVE",
"255 933 OFFCURVE",
"251 930 OFFCURVE",
"245 917 CURVE",
"233 882 OFFCURVE",
"225 815 OFFCURVE",
"224 767 CURVE",
"239 749 OFFCURVE"
);
}
);
width = 440;
},
{
anchors = (
{
name = bottom;
position = "{245, 0}";
},
{
name = top;
position = "{260, 645}";
}
);
components = (
{
name = C;
},
{
name = acutecomb;
transform = "{1, 0, 0, 1, 202, 127}";
}
);
layerId = "BB1D9E28-2A49-4EEB-AB77-8ACE100BF2E3";
width = 428;
}
);
leftKerningGroup = O;
rightKerningGroup = C;
unicode = 0106;
},
{
glyphname = Ccaron;
lastChange = "2016-09-23 14:49:47 +0000";
layers = (
{
anchors = (
{
name = bottom;
position = "{245, 0}";
},
{
name = top;
position = "{260, 645}";
}
);
layerId = "F5421C71-FF83-445B-9C53-783D261A57C9";
paths = (
{
closed = 1;
nodes = (
"203 344 LINE",
"203 618 LINE",
"290 618 LINE",
"399 486 LINE",
"416 665 LINE",
"366 693 OFFCURVE",
"324 701 OFFCURVE",
"245 701 CURVE",
"99 701 OFFCURVE",
"30 599 OFFCURVE",
"30 344 CURVE"
);
},
{
closed = 1;
nodes = (
"30 69 OFFCURVE",
"101 -11 OFFCURVE",
"264 -11 CURVE SMOOTH",
"333 -11 OFFCURVE",
"371 -2 OFFCURVE",
"420 18 CURVE",
"395 191 LINE",
"291 72 LINE",
"203 72 LINE",
"203 344 LINE",
"30 344 LINE"
);
},
{
closed = 1;
nodes = (
"155 812 LINE",
"182 740 LINE",
"297 740 LINE",
"252 809 LINE",
"207 911 LINE",
"119 911 LINE"
);
},
{
closed = 1;
nodes = (
"312 911 LINE",
"267 809 LINE",
"222 740 LINE",
"336 740 LINE",
"363 812 LINE",
"401 911 LINE"
);
}
);
width = 447;
},
{
anchors = (
{
name = bottom;
position = "{273, 0}";
},
{
name = top;
position = "{278, 645}";
}
);
components = (
{
name = C;
},
{
name = caroncomb;
transform = "{1, 0, 0, 1, 106, 127}";
}
);
layerId = "20F347C1-683B-45AE-B240-2F1F38013DFA";
width = 447;
},
{
anchors = (
{
name = bottom;
position = "{237, 0}";
},
{
name = top;
position = "{270, 645}";
}
);
layerId = "32EE9563-F6F8-4713-95B2-270CD8F86471";
paths = (
{
closed = 1;
nodes = (
"176 344 LINE",
"176 474 OFFCURVE",
"197 582 OFFCURVE",
"224 614 CURVE",
"258 614 LINE",
"273 593 OFFCURVE",
"341 554 OFFCURVE",
"365 545 CURVE",
"399 560 OFFCURVE",
"422 591 OFFCURVE",
"428 645 CURVE",
"372 686 OFFCURVE",
"327 696 OFFCURVE",
"273 696 CURVE",
"248 696 LINE",
"75 684 OFFCURVE",
"20 500 OFFCURVE",
"20 344 CURVE"
);
},
{
closed = 1;
nodes = (
"20 188 OFFCURVE",
"63 -2 OFFCURVE",
"248 -9 CURVE",
"281 -9 LINE",
"327 -9 OFFCURVE",
"368 0 OFFCURVE",
"419 20 CURVE",
"414 74 OFFCURVE",
"398 128 OFFCURVE",
"381 167 CURVE",
"329 138 OFFCURVE",
"285 93 OFFCURVE",
"269 74 CURVE",
"224 74 LINE",
"197 105 OFFCURVE",
"176 213 OFFCURVE",
"176 344 CURVE",
"20 344 LINE"
);
},
{
closed = 1;
nodes = (
"290 866 OFFCURVE",
"252 795 OFFCURVE",
"227 752 CURVE",
"224 753 OFFCURVE",
"272 747 OFFCURVE",
"318 752 CURVE",
"336 767 OFFCURVE",
"380 854 OFFCURVE",
"399 918 CURVE",
"384 936 OFFCURVE",
"354 939 OFFCURVE",
"330 930 CURVE"
);
},
{
closed = 1;
nodes = (
"183 939 OFFCURVE",
"153 936 OFFCURVE",
"138 918 CURVE",
"158 854 OFFCURVE",
"195 767 OFFCURVE",
"215 752 CURVE",
"260 747 OFFCURVE",
"309 753 OFFCURVE",
"306 752 CURVE",
"282 795 OFFCURVE",
"245 866 OFFCURVE",
"207 930 CURVE"
);
}
);
width = 440;
},
{
anchors = (
{
name = bottom;
position = "{245, 0}";
},
{
name = top;
position = "{260, 645}";
}
);
components = (
{
name = C;
},
{
name = caroncomb;
transform = "{1, 0, 0, 1, 139, 127}";
}
);
layerId = "BB1D9E28-2A49-4EEB-AB77-8ACE100BF2E3";
width = 428;
}
);
leftKerningGroup = O;
rightKerningGroup = C;
unicode = 010C;
},
{
glyphname = Ccedilla;
lastChange = "2016-09-26 08:54:32 +0000";
layers = (
{
anchors = (
{
name = bottom;
position = "{245, 0}";
},
{
name = top;
position = "{260, 645}";
}
);
layerId = "F5421C71-FF83-445B-9C53-783D261A57C9";
paths = (
{
closed = 1;
nodes = (
"203 344 LINE",
"203 618 LINE",
"290 618 LINE",
"399 486 LINE",
"416 665 LINE",
"366 693 OFFCURVE",
"324 701 OFFCURVE",
"245 701 CURVE",
"99 701 OFFCURVE",
"30 599 OFFCURVE",
"30 344 CURVE"
);
},
{
closed = 1;
nodes = (
"30 69 OFFCURVE",
"101 -11 OFFCURVE",
"264 -11 CURVE SMOOTH",
"333 -11 OFFCURVE",
"371 -2 OFFCURVE",
"420 18 CURVE",
"395 191 LINE",
"291 72 LINE",
"203 72 LINE",
"203 344 LINE",
"30 344 LINE"
);
},
{
closed = 1;
nodes = (
"197 5 OFFCURVE",
"191 -23 OFFCURVE",
"177 -89 CURVE",
"258 -89 LINE",
"258 -167 LINE",
"252 -167 OFFCURVE",
"233 -167 OFFCURVE",
"225 -167 CURVE",
"167 -140 LINE",
"161 -204 LINE",
"179 -212 OFFCURVE",
"201 -218 OFFCURVE",
"233 -218 CURVE SMOOTH",
"269 -218 OFFCURVE",
"360 -210 OFFCURVE",
"360 -125 CURVE SMOOTH",
"360 -80 OFFCURVE",
"333 -36 OFFCURVE",
"257 -36 CURVE",
"266 -3 OFFCURVE",
"269 15 OFFCURVE",
"270 23 CURVE",
"200 27 LINE"
);
}
);
width = 447;
},
{
anchors = (
{
name = bottom;
position = "{273, 0}";
},
{
name = top;
position = "{278, 645}";
}
);
components = (
{
name = C;
},
{
name = cedillacomb;
transform = "{1, 0, 0, 1, 166, 0}";
}
);
layerId = "20F347C1-683B-45AE-B240-2F1F38013DFA";
width = 447;
},
{
anchors = (
{
name = bottom;
position = "{237, 0}";
},
{
name = top;
position = "{270, 645}";
}
);
layerId = "32EE9563-F6F8-4713-95B2-270CD8F86471";
paths = (
{
closed = 1;
nodes = (
"176 344 LINE",
"176 474 OFFCURVE",
"197 582 OFFCURVE",
"224 614 CURVE",
"258 614 LINE",
"273 593 OFFCURVE",
"341 554 OFFCURVE",
"365 545 CURVE",
"399 560 OFFCURVE",
"422 591 OFFCURVE",
"428 645 CURVE",
"372 686 OFFCURVE",
"327 696 OFFCURVE",
"273 696 CURVE",
"248 696 LINE",
"75 684 OFFCURVE",
"20 500 OFFCURVE",
"20 344 CURVE"
);
},
{
closed = 1;
nodes = (
"20 188 OFFCURVE",
"63 -2 OFFCURVE",
"248 -9 CURVE",
"281 -9 LINE",
"327 -9 OFFCURVE",
"368 0 OFFCURVE",
"419 20 CURVE",
"414 74 OFFCURVE",
"398 128 OFFCURVE",
"381 167 CURVE",
"329 138 OFFCURVE",
"285 93 OFFCURVE",
"269 74 CURVE",
"224 74 LINE",
"197 105 OFFCURVE",
"176 213 OFFCURVE",
"176 344 CURVE",
"20 344 LINE"
);
},
{
closed = 1;
nodes = (
"185 5 OFFCURVE",
"179 -14 OFFCURVE",
"165 -80 CURVE",
"236 -78 OFFCURVE",
"269 -110 OFFCURVE",
"243 -153 CURVE",
"239 -153 OFFCURVE",
"224 -153 OFFCURVE",
"218 -153 CURVE SMOOTH",
"203 -153 OFFCURVE",
"188 -146 OFFCURVE",
"164 -140 CURVE",
"141 -159 OFFCURVE",
"141 -215 OFFCURVE",
"147 -228 CURVE",
"161 -234 OFFCURVE",
"191 -243 OFFCURVE",
"225 -243 CURVE SMOOTH",
"282 -243 OFFCURVE",
"353 -218 OFFCURVE",
"353 -119 CURVE SMOOTH",
"353 -80 OFFCURVE",
"339 -36 OFFCURVE",
"257 -36 CURVE",
"266 -3 OFFCURVE",
"269 15 OFFCURVE",
"270 23 CURVE",
"188 27 LINE"
);
}
);
width = 440;
},
{
anchors = (
{
name = bottom;
position = "{245, 0}";
},
{
name = top;
position = "{260, 645}";
}
);
components = (
{
name = C;
},
{
name = cedillacomb;
transform = "{1, 0, 0, 1, 163, -17}";
}
);
layerId = "BB1D9E28-2A49-4EEB-AB77-8ACE100BF2E3";
width = 428;
}
);
leftKerningGroup = O;
rightKerningGroup = C;
unicode = 00C7;
},
{
glyphname = Cdotaccent;
lastChange = "2016-09-23 14:49:47 +0000";
layers = (
{
anchors = (
{
name = bottom;
position = "{245, 0}";
},
{
name = top;
position = "{260, 932}";
}
);
layerId = "F5421C71-FF83-445B-9C53-783D261A57C9";
paths = (
{
closed = 1;
nodes = (
"203 344 LINE",
"203 618 LINE",
"290 618 LINE",
"399 486 LINE",
"416 665 LINE",
"366 693 OFFCURVE",
"324 701 OFFCURVE",
"245 701 CURVE",
"99 701 OFFCURVE",
"30 599 OFFCURVE",
"30 344 CURVE"
);
},
{
closed = 1;
nodes = (
"30 69 OFFCURVE",
"101 -11 OFFCURVE",
"264 -11 CURVE SMOOTH",
"333 -11 OFFCURVE",
"371 -2 OFFCURVE",
"420 18 CURVE",
"395 191 LINE",
"291 72 LINE",
"203 72 LINE",
"203 344 LINE",
"30 344 LINE"
);
},
{
closed = 1;
nodes = (
"323 770 LINE",
"327 897 LINE",
"194 897 LINE",
"195 770 LINE"
);
}
);
width = 447;
},
{
anchors = (
{
name = bottom;
position = "{273, 0}";
},
{
name = top;
position = "{239, 672}";
}
);
components = (
{
name = C;
},
{
name = dotaccentcomb;
transform = "{1, 0, 0, 1, 160, 127}";
}
);
layerId = "20F347C1-683B-45AE-B240-2F1F38013DFA";
width = 447;
},
{
anchors = (
{
name = bottom;
position = "{237, 0}";
},
{
name = top;
position = "{270, 932}";
}
);
hints = (
{
horizontal = 1;
place = "{1127, 272}";
},
{
place = "{291, 227}";
}
);
layerId = "32EE9563-F6F8-4713-95B2-270CD8F86471";
paths = (
{
closed = 1;
nodes = (
"176 344 LINE",
"176 474 OFFCURVE",
"197 582 OFFCURVE",
"224 614 CURVE",
"258 614 LINE",
"273 593 OFFCURVE",
"341 554 OFFCURVE",
"365 545 CURVE",
"399 560 OFFCURVE",
"422 591 OFFCURVE",
"428 645 CURVE",
"372 686 OFFCURVE",
"327 696 OFFCURVE",
"273 696 CURVE",
"248 696 LINE",
"75 684 OFFCURVE",
"20 500 OFFCURVE",
"20 344 CURVE"
);
},
{
closed = 1;
nodes = (
"20 188 OFFCURVE",
"63 -2 OFFCURVE",
"248 -9 CURVE",
"281 -9 LINE",
"327 -9 OFFCURVE",
"368 0 OFFCURVE",
"419 20 CURVE",
"414 74 OFFCURVE",
"398 128 OFFCURVE",
"381 167 CURVE",
"329 138 OFFCURVE",
"285 93 OFFCURVE",
"269 74 CURVE",
"224 74 LINE",
"197 105 OFFCURVE",
"176 213 OFFCURVE",
"176 344 CURVE",
"20 344 LINE"
);
},
{
closed = 1;
nodes = (
"297 743 OFFCURVE",
"323 767 CURVE",
"345 794 OFFCURVE",
"351 854 OFFCURVE",
"339 890 CURVE",
"321 935 OFFCURVE",
"242 945 OFFCURVE",
"213 914 CURVE",
"189 882 OFFCURVE",
"188 816 OFFCURVE",
"207 779 CURVE",
"228 746 OFFCURVE"
);
}
);
width = 440;
},
{
anchors = (
{
name = bottom;
position = "{245, 0}";
},
{
name = top;
position = "{260, 932}";
}
);
components = (
{
name = C;
},
{
name = dotaccentcomb;
transform = "{1, 0, 0, 1, 193, 127}";
}
);
layerId = "BB1D9E28-2A49-4EEB-AB77-8ACE100BF2E3";
width = 428;
}
);
leftKerningGroup = O;
rightKerningGroup = C;
unicode = 010A;
},
{
glyphname = D;
lastChange = "2016-09-26 19:48:31 +0000";
layers = (
{
anchors = (
{
name = bottom;
position = "{266, 0}";
},
{
name = center;
position = "{270, 363}";
},
{
name = top;
position = "{266, 645}";
}
);
layerId = "F5421C71-FF83-445B-9C53-783D261A57C9";
paths = (
{
closed = 1;
nodes = (
"162 614 LINE",
"309 614 LINE",
"309 75 LINE",
"110 78 LINE",
"57 0 LINE",
"288 0 LINE",
"431 0 OFFCURVE",
"482 156 OFFCURVE",
"482 341 CURVE SMOOTH",
"482 557 OFFCURVE",
"425 696 OFFCURVE",
"284 696 CURVE",
"59 696 LINE"
);
},
{
closed = 1;
nodes = (
"59 696 LINE",
"59 0 LINE",
"201 0 LINE",
"201 696 LINE"
);
}
);
width = 512;
},
{
anchors = (
{
name = bottom;
position = "{167, 0}";
},
{
name = center;
position = "{167, 250}";
},
{
name = top;
position = "{167, 430}";
}
);
associatedMasterId = "F5421C71-FF83-445B-9C53-783D261A57C9";
layerId = "8285478F-969E-454C-84C2-79E8E41CD538";
name = "Regular Jul 20 16, 14:33";
paths = (
{
closed = 1;
nodes = (
"27 452 LINE",
"28 432 OFFCURVE",
"29 408 OFFCURVE",
"29 394 CURVE",
"31 260 LINE",
"126 254 LINE",
"124 438 LINE SMOOTH",
"124 460 OFFCURVE",
"92 460 OFFCURVE",
"78 460 CURVE",
"57 460 OFFCURVE",
"47 457 OFFCURVE",
"33 454 CURVE"
);
},
{
closed = 1;
nodes = (
"29 47 LINE",
"26 0 LINE",
"41 -3 OFFCURVE",
"81 0 OFFCURVE",
"108 0 CURVE",
"124 0 LINE",
"126 254 LINE",
"31 280 LINE"
);
},
{
closed = 1;
nodes = (
"119 395 LINE",
"122 401 OFFCURVE",
"125 406 OFFCURVE",
"128 409 CURVE",
"191 409 LINE",
"207 402 OFFCURVE",
"217 356 OFFCURVE",
"217 225 CURVE SMOOTH",
"217 149 OFFCURVE",
"205 76 OFFCURVE",
"194 50 CURVE",
"134 50 LINE",
"107 52 OFFCURVE",
"83 61 OFFCURVE",
"63 73 CURVE",
"26 -1 LINE",
"55 -3 OFFCURVE",
"84 -5 OFFCURVE",
"121 -5 CURVE",
"173 -5 LINE",
"282 -2 OFFCURVE",
"320 121 OFFCURVE",
"320 227 CURVE SMOOTH",
"320 371 OFFCURVE",
"277 464 OFFCURVE",
"179 464 CURVE",
"144 464 LINE",
"111 464 OFFCURVE",
"84 462 OFFCURVE",
"61 459 CURVE"
);
}
);
width = 333;
},
{
anchors = (
{
name = bottom;
position = "{169, 0}";
},
{
name = center;
position = "{172, 242}";
},
{
name = top;
position = "{169, 430}";
}
);
associatedMasterId = "F5421C71-FF83-445B-9C53-783D261A57C9";
layerId = "96ECED03-14FC-452A-BD4C-B394EE52D614";
name = "Regular Aug 14 16, 23:29";
paths = (
{
closed = 1;
nodes = (
"100 409 LINE",
"197 409 LINE",
"211 366 OFFCURVE",
"206 104 OFFCURVE",
"198 50 CURVE",
"136 50 LINE",
"109 50 OFFCURVE",
"85 50 OFFCURVE",
"65 52 CURVE",
"30 0 LINE",
"184 0 LINE",
"277 0 OFFCURVE",
"313 104 OFFCURVE",
"313 227 CURVE SMOOTH",
"313 371 OFFCURVE",
"273 464 OFFCURVE",
"181 464 CURVE",
"31 464 LINE"
);
},
{
closed = 1;
nodes = (
"31 464 LINE",
"31 0 LINE",
"126 0 LINE",
"126 464 LINE"
);
}
);
width = 346;
},
{
anchors = (
{
name = bottom;
position = "{264, 0}";
},
{
name = center;
position = "{269, 363}";
},
{
name = top;
position = "{264, 645}";
}
);
layerId = "20F347C1-683B-45AE-B240-2F1F38013DFA";
paths = (
{
closed = 1;
nodes = (
"294 0 LINE",
"411 0 OFFCURVE",
"465 156 OFFCURVE",
"465 341 CURVE SMOOTH",
"465 557 OFFCURVE",
"410 696 OFFCURVE",
"294 696 CURVE"
);
},
{
closed = 1;
nodes = (
"57 696 LINE",
"57 0 LINE",
"200 0 LINE",
"200 696 LINE"
);
}
);
width = 495;
},
{
anchors = (
{
name = bottom;
position = "{252, 0}";
},
{
name = center;
position = "{252, 375}";
},
{
name = top;
position = "{252, 645}";
}
);
layerId = "32EE9563-F6F8-4713-95B2-270CD8F86471";
paths = (
{
closed = 1;
nodes = (
"45 681 LINE",
"45 650 OFFCURVE",
"45 612 OFFCURVE",
"45 591 CURVE",
"48 390 LINE",
"191 381 LINE",
"188 657 LINE SMOOTH",
"188 690 OFFCURVE",
"140 690 OFFCURVE",
"119 690 CURVE",
"89 690 OFFCURVE",
"74 687 OFFCURVE",
"54 684 CURVE"
);
},
{
closed = 1;
nodes = (
"45 71 LINE",
"41 0 LINE",
"63 -5 OFFCURVE",
"123 0 OFFCURVE",
"164 0 CURVE",
"188 0 LINE",
"191 381 LINE",
"48 420 LINE"
);
},
{
closed = 1;
nodes = (
"149 614 LINE",
"194 614 LINE",
"294 614 LINE",
"306 596 OFFCURVE",
"321 534 OFFCURVE",
"321 338 CURVE SMOOTH",
"321 224 OFFCURVE",
"308 114 OFFCURVE",
"296 75 CURVE",
"203 75 LINE",
"162 75 OFFCURVE",
"126 77 OFFCURVE",
"96 80 CURVE",
"41 -2 LINE",
"84 -5 OFFCURVE",
"128 -8 OFFCURVE",
"183 -8 CURVE",
"261 -8 LINE",
"425 -3 OFFCURVE",
"482 152 OFFCURVE",
"482 341 CURVE SMOOTH",
"482 557 OFFCURVE",
"417 696 OFFCURVE",
"270 696 CURVE",
"218 696 LINE",
"168 696 OFFCURVE",
"80 695 OFFCURVE",
"45 681 CURVE"
);
}
);
width = 501;
},
{
anchors = (
{
name = bottom;
position = "{266, 0}";
},
{
name = center;
position = "{270, 363}";
},
{
name = top;
position = "{266, 645}";
}
);
layerId = "BB1D9E28-2A49-4EEB-AB77-8ACE100BF2E3";
paths = (
{
closed = 1;
nodes = (
"37 696 LINE",
"37 -0.324 LINE",
"34.549 -4 LINE",
"288 -4 LINE SMOOTH",
"430.453 -4 OFFCURVE",
"504 115.685 OFFCURVE",
"504 341 CURVE SMOOTH",
"504 577 OFFCURVE",
"433 696 OFFCURVE",
"284 696 CURVE SMOOTH"
);
},
{
closed = 1;
nodes = (
"223 80.599 LINE",
"223 606 LINE",
"287 606 LINE",
"287 79.414 LINE"
);
}
);
width = 522;
},
{
anchors = (
{
name = bottom;
position = "{167, 0}";
},
{
name = center;
position = "{167, 250}";
},
{
name = top;
position = "{167, 430}";
}
);
associatedMasterId = "BB1D9E28-2A49-4EEB-AB77-8ACE100BF2E3";
layerId = "6F09C942-E2CF-4027-9DDB-34DE9B5C382E";
name = "Regular Jul 20 16, 14:33";
paths = (
{
closed = 1;
nodes = (
"27 452 LINE",
"28 432 OFFCURVE",
"29 408 OFFCURVE",
"29 394 CURVE",
"31 260 LINE",
"126 254 LINE",
"124 438 LINE SMOOTH",
"124 460 OFFCURVE",
"92 460 OFFCURVE",
"78 460 CURVE",
"57 460 OFFCURVE",
"47 457 OFFCURVE",
"33 454 CURVE"
);
},
{
closed = 1;
nodes = (
"29 47 LINE",
"26 0 LINE",
"41 -3 OFFCURVE",
"81 0 OFFCURVE",
"108 0 CURVE",
"124 0 LINE",
"126 254 LINE",
"31 280 LINE"
);
},
{
closed = 1;
nodes = (
"119 395 LINE",
"122 401 OFFCURVE",
"125 406 OFFCURVE",
"128 409 CURVE",
"191 409 LINE",
"207 402 OFFCURVE",
"217 356 OFFCURVE",
"217 225 CURVE SMOOTH",
"217 149 OFFCURVE",
"205 76 OFFCURVE",
"194 50 CURVE",
"134 50 LINE",
"107 52 OFFCURVE",
"83 61 OFFCURVE",
"63 73 CURVE",
"26 -1 LINE",
"55 -3 OFFCURVE",
"84 -5 OFFCURVE",
"121 -5 CURVE",
"173 -5 LINE",
"282 -2 OFFCURVE",
"320 121 OFFCURVE",
"320 227 CURVE SMOOTH",
"320 371 OFFCURVE",
"277 464 OFFCURVE",
"179 464 CURVE",
"144 464 LINE",
"111 464 OFFCURVE",
"84 462 OFFCURVE",
"61 459 CURVE"
);
}
);
width = 333;
},
{
anchors = (
{
name = bottom;
position = "{169, 0}";
},
{
name = center;
position = "{172, 242}";
},
{
name = top;
position = "{169, 430}";
}
);
associatedMasterId = "BB1D9E28-2A49-4EEB-AB77-8ACE100BF2E3";
layerId = "15B3ECDC-0EB6-48A5-83C0-2D14ED2160FD";
name = "Regular Aug 14 16, 23:29";
paths = (
{
closed = 1;
nodes = (
"100 409 LINE",
"197 409 LINE",
"211 366 OFFCURVE",
"206 104 OFFCURVE",
"198 50 CURVE",
"136 50 LINE",
"109 50 OFFCURVE",
"85 50 OFFCURVE",
"65 52 CURVE",
"30 0 LINE",
"184 0 LINE",
"277 0 OFFCURVE",
"313 104 OFFCURVE",
"313 227 CURVE SMOOTH",
"313 371 OFFCURVE",
"273 464 OFFCURVE",
"181 464 CURVE",
"31 464 LINE"
);
},
{
closed = 1;
nodes = (
"31 464 LINE",
"31 0 LINE",
"126 0 LINE",
"126 464 LINE"
);
}
);
width = 346;
}
);
leftKerningGroup = H;
leftMetricsKey = H;
rightKerningGroup = O;
rightMetricsKey = O;
unicode = 0044;
},
{
glyphname = Eth;
lastChange = "2016-09-26 08:39:46 +0000";
layers = (
{
anchors = (
{
name = bottom;
position = "{356, 0}";
},
{
name = center;
position = "{360, 363}";
},
{
name = top;
position = "{356, 645}";
}
);
layerId = "F5421C71-FF83-445B-9C53-783D261A57C9";
paths = (
{
closed = 1;
nodes = (
"57 305 LINE",
"344 305 LINE",
"344 401 LINE",
"57 401 LINE"
);
},
{
closed = 1;
nodes = (
"252 614 LINE",
"399 614 LINE",
"399 75 LINE",
"200 78 LINE",
"147 0 LINE",
"378 0 LINE",
"521 0 OFFCURVE",
"572 156 OFFCURVE",
"572 341 CURVE SMOOTH",
"572 557 OFFCURVE",
"515 696 OFFCURVE",
"374 696 CURVE",
"149 696 LINE"
);
},
{
closed = 1;
nodes = (
"149 696 LINE",
"149 0 LINE",
"291 0 LINE",
"291 696 LINE"
);
}
);
width = 602;
},
{
anchors = (
{
name = bottom;
position = "{368, 0}";
},
{
name = center;
position = "{372, 363}";
},
{
name = top;
position = "{368, 645}";
}
);
layerId = "20F347C1-683B-45AE-B240-2F1F38013DFA";
paths = (
{
closed = 1;
nodes = (
"57 305 LINE",
"344 305 LINE",
"344 401 LINE",
"57 401 LINE"
);
},
{
closed = 1;
nodes = (
"398 0 LINE",
"515 0 OFFCURVE",
"569 156 OFFCURVE",
"569 341 CURVE SMOOTH",
"569 557 OFFCURVE",
"513 696 OFFCURVE",
"398 696 CURVE"
);
},
{
closed = 1;
nodes = (
"161 696 LINE",
"161 0 LINE",
"303 0 LINE",
"303 696 LINE"
);
}
);
width = 599;
},
{
anchors = (
{
name = bottom;
position = "{252, 0}";
},
{
name = center;
position = "{252, 375}";
},
{
name = top;
position = "{252, 645}";
}
);
layerId = "32EE9563-F6F8-4713-95B2-270CD8F86471";
paths = (
{
closed = 1;
nodes = (
"45 681 LINE",
"45 650 OFFCURVE",
"45 612 OFFCURVE",
"45 591 CURVE",
"48 390 LINE",
"191 381 LINE",
"188 657 LINE SMOOTH",
"188 690 OFFCURVE",
"140 690 OFFCURVE",
"119 690 CURVE",
"89 690 OFFCURVE",
"74 687 OFFCURVE",
"54 684 CURVE"
);
},
{
closed = 1;
nodes = (
"45 71 LINE",
"41 0 LINE",
"63 -5 OFFCURVE",
"123 0 OFFCURVE",
"164 0 CURVE",
"188 0 LINE",
"191 381 LINE",
"48 420 LINE"
);
},
{
closed = 1;
nodes = (
"149 614 LINE",
"194 614 LINE",
"294 614 LINE",
"306 596 OFFCURVE",
"321 534 OFFCURVE",
"321 338 CURVE SMOOTH",
"321 224 OFFCURVE",
"308 114 OFFCURVE",
"296 75 CURVE",
"203 75 LINE",
"162 75 OFFCURVE",
"126 77 OFFCURVE",
"96 80 CURVE",
"41 -2 LINE",
"84 -5 OFFCURVE",
"128 -8 OFFCURVE",
"183 -8 CURVE",
"261 -8 LINE",
"425 -3 OFFCURVE",
"482 152 OFFCURVE",
"482 341 CURVE SMOOTH",
"482 557 OFFCURVE",
"417 696 OFFCURVE",
"270 696 CURVE",
"218 696 LINE",
"168 696 OFFCURVE",
"80 695 OFFCURVE",
"45 681 CURVE"
);
},
{
closed = 1;
nodes = (
"-65 363 OFFCURVE",
"-65 347 OFFCURVE",
"-48 305 CURVE",
"75 305 OFFCURVE",
"131 311 OFFCURVE",
"254 309 CURVE",
"269 351 OFFCURVE",
"269 368 OFFCURVE",
"254 410 CURVE",
"131 422 OFFCURVE",
"75 402 OFFCURVE",
"-48 405 CURVE"
);
}
);
width = 900;
},
{
anchors = (
{
name = bottom;
position = "{399, 0}";
},
{
name = center;
position = "{403, 363}";
},
{
name = top;
position = "{399, 645}";
}
);
components = (
{
name = D;
},
{
name = strokeshortcomb;
transform = "{1, 0, 0, 1, 43, 0}";
}
);
layerId = "BB1D9E28-2A49-4EEB-AB77-8ACE100BF2E3";
width = 522;
}
);
leftKerningGroup = H;
leftMetricsKey = D;
rightKerningGroup = O;
rightMetricsKey = D;
unicode = 00D0;
},
{
glyphname = Dcaron;
lastChange = "2016-09-23 14:49:47 +0000";
layers = (
{
anchors = (
{
name = bottom;
position = "{266, 0}";
},
{
name = center;
position = "{270, 363}";
},
{
name = top;
position = "{266, 645}";
}
);
layerId = "F5421C71-FF83-445B-9C53-783D261A57C9";
paths = (
{
closed = 1;
nodes = (
"162 614 LINE",
"309 614 LINE",
"309 75 LINE",
"110 78 LINE",
"57 0 LINE",
"288 0 LINE",
"431 0 OFFCURVE",
"482 156 OFFCURVE",
"482 341 CURVE SMOOTH",
"482 557 OFFCURVE",
"425 696 OFFCURVE",
"284 696 CURVE",
"59 696 LINE"
);
},
{
closed = 1;
nodes = (
"59 696 LINE",
"59 0 LINE",
"201 0 LINE",
"201 696 LINE"
);
},
{
closed = 1;
nodes = (
"161 812 LINE",
"188 740 LINE",
"303 740 LINE",
"258 809 LINE",
"213 911 LINE",
"125 911 LINE"
);
},
{
closed = 1;
nodes = (
"318 911 LINE",
"273 809 LINE",
"228 740 LINE",
"342 740 LINE",
"369 812 LINE",
"407 911 LINE"
);
}
);
width = 512;
},
{
anchors = (
{
name = bottom;
position = "{264, 0}";
},
{
name = center;
position = "{269, 363}";
},
{
name = top;
position = "{264, 645}";
}
);
components = (
{
name = D;
},
{
name = caroncomb;
transform = "{1, 0, 0, 1, 133, 127}";
}
);
layerId = "20F347C1-683B-45AE-B240-2F1F38013DFA";
width = 495;
},
{
anchors = (
{
name = bottom;
position = "{252, 0}";
},
{
name = center;
position = "{252, 375}";
},
{
name = top;
position = "{252, 645}";
}
);
layerId = "32EE9563-F6F8-4713-95B2-270CD8F86471";
paths = (
{
closed = 1;
nodes = (
"45 681 LINE",
"45 650 OFFCURVE",
"45 612 OFFCURVE",
"45 591 CURVE",
"48 390 LINE",
"191 381 LINE",
"188 657 LINE SMOOTH",
"188 690 OFFCURVE",
"140 690 OFFCURVE",
"119 690 CURVE",
"89 690 OFFCURVE",
"74 687 OFFCURVE",
"54 684 CURVE"
);
},
{
closed = 1;
nodes = (
"45 71 LINE",
"41 0 LINE",
"63 -5 OFFCURVE",
"123 0 OFFCURVE",
"164 0 CURVE",
"188 0 LINE",
"191 381 LINE",
"48 420 LINE"
);
},
{
closed = 1;
nodes = (
"149 614 LINE",
"194 614 LINE",
"294 614 LINE",
"306 596 OFFCURVE",
"321 534 OFFCURVE",
"321 338 CURVE SMOOTH",
"321 224 OFFCURVE",
"308 114 OFFCURVE",
"296 75 CURVE",
"203 75 LINE",
"162 75 OFFCURVE",
"126 77 OFFCURVE",
"96 80 CURVE",
"41 -2 LINE",
"84 -5 OFFCURVE",
"128 -8 OFFCURVE",
"183 -8 CURVE",
"261 -8 LINE",
"425 -3 OFFCURVE",
"482 152 OFFCURVE",
"482 341 CURVE SMOOTH",
"482 557 OFFCURVE",
"417 696 OFFCURVE",
"270 696 CURVE",
"218 696 LINE",
"168 696 OFFCURVE",
"80 695 OFFCURVE",
"45 681 CURVE"
);
},
{
closed = 1;
nodes = (
"272 866 OFFCURVE",
"234 795 OFFCURVE",
"209 752 CURVE",
"206 753 OFFCURVE",
"254 747 OFFCURVE",
"300 752 CURVE",
"318 767 OFFCURVE",
"362 854 OFFCURVE",
"381 918 CURVE",
"366 936 OFFCURVE",
"336 939 OFFCURVE",
"312 930 CURVE"
);
},
{
closed = 1;
nodes = (
"165 939 OFFCURVE",
"135 936 OFFCURVE",
"120 918 CURVE",
"140 854 OFFCURVE",
"177 767 OFFCURVE",
"197 752 CURVE",
"242 747 OFFCURVE",
"291 753 OFFCURVE",
"288 752 CURVE",
"264 795 OFFCURVE",
"227 866 OFFCURVE",
"189 930 CURVE"
);
}
);
width = 501;
},
{
anchors = (
{
name = bottom;
position = "{266, 0}";
},
{
name = center;
position = "{270, 363}";
},
{
name = top;
position = "{266, 645}";
}
);
components = (
{
name = D;
},
{
name = caroncomb;
transform = "{1, 0, 0, 1, 135, 127}";
}
);
layerId = "BB1D9E28-2A49-4EEB-AB77-8ACE100BF2E3";
width = 522;
}
);
leftKerningGroup = H;
rightKerningGroup = O;
unicode = 010E;
},
{
glyphname = Dcroat;
lastChange = "2016-09-26 08:39:47 +0000";
layers = (
{
anchors = (
{
name = bottom;
position = "{356, 0}";
},
{
name = center;
position = "{360, 363}";
},
{
name = top;
position = "{356, 645}";
}
);
layerId = "F5421C71-FF83-445B-9C53-783D261A57C9";
paths = (
{
closed = 1;
nodes = (
"57 305 LINE",
"344 305 LINE",
"344 401 LINE",
"57 401 LINE"
);
},
{
closed = 1;
nodes = (
"252 614 LINE",
"399 614 LINE",
"399 75 LINE",
"200 78 LINE",
"147 0 LINE",
"378 0 LINE",
"521 0 OFFCURVE",
"572 156 OFFCURVE",
"572 341 CURVE SMOOTH",
"572 557 OFFCURVE",
"515 696 OFFCURVE",
"374 696 CURVE",
"149 696 LINE"
);
},
{
closed = 1;
nodes = (
"149 696 LINE",
"149 0 LINE",
"291 0 LINE",
"291 696 LINE"
);
}
);
width = 602;
},
{
anchors = (
{
name = bottom;
position = "{368, 0}";
},
{
name = center;
position = "{372, 363}";
},
{
name = top;
position = "{368, 645}";
}
);
layerId = "20F347C1-683B-45AE-B240-2F1F38013DFA";
paths = (
{
closed = 1;
nodes = (
"57 305 LINE",
"344 305 LINE",
"344 401 LINE",
"57 401 LINE"
);
},
{
closed = 1;
nodes = (
"398 0 LINE",
"515 0 OFFCURVE",
"569 156 OFFCURVE",
"569 341 CURVE SMOOTH",
"569 557 OFFCURVE",
"513 696 OFFCURVE",
"398 696 CURVE"
);
},
{
closed = 1;
nodes = (
"161 696 LINE",
"161 0 LINE",
"303 0 LINE",
"303 696 LINE"
);
}
);
width = 599;
},
{
anchors = (
{
name = bottom;
position = "{252, 0}";
},
{
name = center;
position = "{252, 375}";
},
{
name = top;
position = "{252, 645}";
}
);
layerId = "32EE9563-F6F8-4713-95B2-270CD8F86471";
paths = (
{
closed = 1;
nodes = (
"45 681 LINE",
"45 650 OFFCURVE",
"45 612 OFFCURVE",
"45 591 CURVE",
"48 390 LINE",
"191 381 LINE",
"188 657 LINE SMOOTH",
"188 690 OFFCURVE",
"140 690 OFFCURVE",
"119 690 CURVE",
"89 690 OFFCURVE",
"74 687 OFFCURVE",
"54 684 CURVE"
);
},
{
closed = 1;
nodes = (
"45 71 LINE",
"41 0 LINE",
"63 -5 OFFCURVE",
"123 0 OFFCURVE",
"164 0 CURVE",
"188 0 LINE",
"191 381 LINE",
"48 420 LINE"
);
},
{
closed = 1;
nodes = (
"149 614 LINE",
"194 614 LINE",
"294 614 LINE",
"306 596 OFFCURVE",
"321 534 OFFCURVE",
"321 338 CURVE SMOOTH",
"321 224 OFFCURVE",
"308 114 OFFCURVE",
"296 75 CURVE",
"203 75 LINE",
"162 75 OFFCURVE",
"126 77 OFFCURVE",
"96 80 CURVE",
"41 -2 LINE",
"84 -5 OFFCURVE",
"128 -8 OFFCURVE",
"183 -8 CURVE",
"261 -8 LINE",
"425 -3 OFFCURVE",
"482 152 OFFCURVE",
"482 341 CURVE SMOOTH",
"482 557 OFFCURVE",
"417 696 OFFCURVE",
"270 696 CURVE",
"218 696 LINE",
"168 696 OFFCURVE",
"80 695 OFFCURVE",
"45 681 CURVE"
);
},
{
closed = 1;
nodes = (
"-65 363 OFFCURVE",
"-65 347 OFFCURVE",
"-48 305 CURVE",
"75 305 OFFCURVE",
"131 311 OFFCURVE",
"254 309 CURVE",
"269 351 OFFCURVE",
"269 368 OFFCURVE",
"254 410 CURVE",
"131 422 OFFCURVE",
"75 402 OFFCURVE",
"-48 405 CURVE"
);
}
);
width = 900;
},
{
anchors = (
{
name = bottom;
position = "{356, 0}";
},
{
name = center;
position = "{360, 363}";
},
{
name = top;
position = "{356, 645}";
}
);
components = (
{
name = Eth;
}
);
layerId = "BB1D9E28-2A49-4EEB-AB77-8ACE100BF2E3";
width = 522;
}
);
leftKerningGroup = H;
rightKerningGroup = O;
unicode = 0110;
},
{
glyphname = E;
lastChange = "2016-09-26 14:54:12 +0000";
layers = (
{
anchors = (
{
name = bottom;
position = "{219, 0}";
},
{
name = ogonek;
position = "{378, 15}";
},
{
name = top;
position = "{219, 645}";
},
{
name = topleft;
position = "{48, 645}";
}
);
layerId = "F5421C71-FF83-445B-9C53-783D261A57C9";
paths = (
{
closed = 1;
nodes = (
"57 696 LINE",
"57 0 LINE",
"203 0 LINE",
"203 696 LINE"
);
},
{
closed = 1;
nodes = (
"138 311 LINE",
"354 311 LINE",
"354 393 LINE",
"138 393 LINE"
);
},
{
closed = 1;
nodes = (
"138 0 LINE",
"377 0 LINE",
"365 173 LINE",
"281 68 LINE",
"138 68 LINE"
);
},
{
closed = 1;
nodes = (
"138 629 LINE",
"287 629 LINE",
"365 509 LINE",
"377 696 LINE",
"138 696 LINE"
);
}
);
width = 419;
},
{
anchors = (
{
name = bottom;
position = "{155, 0}";
},
{
name = ogonek;
position = "{241, 0}";
},
{
name = top;
position = "{155, 430}";
},
{
name = topleft;
position = "{32, 430}";
}
);
associatedMasterId = "F5421C71-FF83-445B-9C53-783D261A57C9";
layerId = "B4B11D8B-B31A-45DF-8EEC-BF323B1A3AC1";
name = "Regular Jul 20 16, 14:34";
paths = (
{
closed = 1;
nodes = (
"27 448 LINE",
"28 428 OFFCURVE",
"29 408 OFFCURVE",
"29 394 CURVE",
"31 260 LINE",
"126 254 LINE",
"124 438 LINE SMOOTH",
"124 460 OFFCURVE",
"92 460 OFFCURVE",
"78 460 CURVE",
"57 460 OFFCURVE",
"42 457 OFFCURVE",
"33 454 CURVE"
);
},
{
closed = 1;
nodes = (
"29 47 LINE",
"26 0 LINE",
"41 -3 OFFCURVE",
"81 0 OFFCURVE",
"108 0 CURVE",
"124 0 LINE",
"126 254 LINE",
"31 280 LINE"
);
},
{
closed = 1;
nodes = (
"50 200 LINE",
"111 197 OFFCURVE",
"181 198 OFFCURVE",
"241 200 CURVE",
"248 222 OFFCURVE",
"255 243 OFFCURVE",
"248 265 CURVE",
"237 265 OFFCURVE",
"221 265 OFFCURVE",
"210 265 CURVE SMOOTH",
"160 265 OFFCURVE",
"125 259 OFFCURVE",
"95 262 CURVE"
);
},
{
closed = 1;
nodes = (
"50 398 LINE",
"111 395 OFFCURVE",
"185 396 OFFCURVE",
"245 398 CURVE",
"252 420 OFFCURVE",
"259 441 OFFCURVE",
"252 463 CURVE",
"241 463 OFFCURVE",
"225 463 OFFCURVE",
"214 463 CURVE SMOOTH",
"164 463 OFFCURVE",
"125 457 OFFCURVE",
"95 460 CURVE"
);
},
{
closed = 1;
nodes = (
"54 -1 LINE",
"115 -4 OFFCURVE",
"187 -3 OFFCURVE",
"247 -1 CURVE",
"254 21 OFFCURVE",
"261 42 OFFCURVE",
"254 64 CURVE",
"243 64 OFFCURVE",
"227 64 OFFCURVE",
"216 64 CURVE SMOOTH",
"166 64 OFFCURVE",
"129 58 OFFCURVE",
"99 61 CURVE"
);
}
);
width = 267;
},
{
anchors = (
{
name = bottom;
position = "{135, 0}";
},
{
name = ogonek;
position = "{241, 10}";
},
{
name = top;
position = "{135, 430}";
},
{
name = topleft;
position = "{21, 430}";
}
);
associatedMasterId = "F5421C71-FF83-445B-9C53-783D261A57C9";
layerId = "8D3C0544-9D10-49CF-9E3F-A89D46E68930";
name = "Regular Aug 5 16, 23:47";
paths = (
{
closed = 1;
nodes = (
"28 448 LINE",
"29 428 OFFCURVE",
"30 408 OFFCURVE",
"30 394 CURVE",
"32 260 LINE",
"127 254 LINE",
"125 438 LINE SMOOTH",
"125 460 OFFCURVE",
"93 460 OFFCURVE",
"79 460 CURVE",
"58 460 OFFCURVE",
"43 457 OFFCURVE",
"34 454 CURVE"
);
},
{
closed = 1;
nodes = (
"30 47 LINE",
"27 0 LINE",
"42 -3 OFFCURVE",
"82 0 OFFCURVE",
"109 0 CURVE",
"125 0 LINE",
"127 254 LINE",
"32 280 LINE"
);
},
{
closed = 1;
nodes = (
"51 200 LINE",
"112 197 OFFCURVE",
"179 198 OFFCURVE",
"239 200 CURVE",
"246 222 OFFCURVE",
"253 243 OFFCURVE",
"246 265 CURVE",
"235 265 OFFCURVE",
"219 265 OFFCURVE",
"208 265 CURVE SMOOTH",
"158 265 OFFCURVE",
"126 259 OFFCURVE",
"96 262 CURVE"
);
},
{
closed = 1;
nodes = (
"51 398 LINE",
"112 395 OFFCURVE",
"186 396 OFFCURVE",
"248 398 CURVE",
"253 410 OFFCURVE",
"260 431 OFFCURVE",
"251 463 CURVE",
"242 463 OFFCURVE",
"226 463 OFFCURVE",
"215 463 CURVE SMOOTH",
"165 463 OFFCURVE",
"118 460 OFFCURVE",
"86 460 CURVE"
);
},
{
closed = 1;
nodes = (
"55 -1 LINE",
"116 -4 OFFCURVE",
"188 -3 OFFCURVE",
"254 -1 CURVE",
"256 21 OFFCURVE",
"259 41 OFFCURVE",
"255 64 CURVE",
"244 64 OFFCURVE",
"228 64 OFFCURVE",
"217 64 CURVE SMOOTH",
"166 64 OFFCURVE",
"129 62 OFFCURVE",
"98 63 CURVE"
);
}
);
width = 268;
},
{
anchors = (
{
name = bottom;
position = "{219, 0}";
},
{
name = ogonek;
position = "{378, 15}";
},
{
name = top;
position = "{219, 645}";
},
{
name = topleft;
position = "{48, 645}";
}
);
layerId = "20F347C1-683B-45AE-B240-2F1F38013DFA";
paths = (
{
closed = 1;
nodes = (
"57 696 LINE",
"57 0 LINE",
"203 0 LINE",
"203 696 LINE"
);
},
{
closed = 1;
nodes = (
"273 311 LINE",
"354 296 LINE",
"354 408 LINE",
"273 393 LINE"
);
},
{
closed = 1;
nodes = (
"273 0 LINE",
"377 0 LINE",
"365 177 LINE",
"273 68 LINE"
);
},
{
closed = 1;
nodes = (
"273 629 LINE",
"365 509 LINE",
"377 696 LINE",
"273 696 LINE"
);
}
);
width = 419;
},
{
anchors = (
{
name = bottom;
position = "{203, 0}";
},
{
name = ogonek;
position = "{362, 15}";
},
{
name = top;
position = "{203, 645}";
},
{
name = topleft;
position = "{32, 645}";
}
);
layerId = "32EE9563-F6F8-4713-95B2-270CD8F86471";
paths = (
{
closed = 1;
nodes = (
"42 672 LINE",
"44 642 OFFCURVE",
"45 612 OFFCURVE",
"45 591 CURVE",
"48 390 LINE",
"191 381 LINE",
"188 657 LINE SMOOTH",
"188 690 OFFCURVE",
"140 690 OFFCURVE",
"119 690 CURVE",
"87 690 OFFCURVE",
"65 686 OFFCURVE",
"51 681 CURVE"
);
},
{
closed = 1;
nodes = (
"45 71 LINE",
"41 0 LINE",
"63 -5 OFFCURVE",
"123 0 OFFCURVE",
"164 0 CURVE",
"188 0 LINE",
"191 381 LINE",
"48 420 LINE"
);
},
{
closed = 1;
nodes = (
"77 300 LINE",
"168 296 OFFCURVE",
"269 297 OFFCURVE",
"359 300 CURVE",
"369 333 OFFCURVE",
"380 365 OFFCURVE",
"369 398 CURVE",
"353 398 OFFCURVE",
"329 398 OFFCURVE",
"312 398 CURVE SMOOTH",
"237 398 OFFCURVE",
"189 389 OFFCURVE",
"144 393 CURVE"
);
},
{
closed = 1;
nodes = (
"77 597 LINE",
"168 593 OFFCURVE",
"279 594 OFFCURVE",
"372 597 CURVE",
"380 615 OFFCURVE",
"390 647 OFFCURVE",
"377 695 CURVE",
"363 695 OFFCURVE",
"339 695 OFFCURVE",
"323 695 CURVE SMOOTH",
"248 695 OFFCURVE",
"177 690 OFFCURVE",
"129 690 CURVE"
);
},
{
closed = 1;
nodes = (
"83 -2 LINE",
"174 -6 OFFCURVE",
"282 -5 OFFCURVE",
"381 -2 CURVE",
"384 32 OFFCURVE",
"389 62 OFFCURVE",
"383 96 CURVE",
"366 96 OFFCURVE",
"342 96 OFFCURVE",
"326 96 CURVE SMOOTH",
"249 96 OFFCURVE",
"194 93 OFFCURVE",
"147 95 CURVE"
);
}
);
width = 402;
},
{
anchors = (
{
name = bottom;
position = "{219, 0}";
},
{
name = ogonek;
position = "{410, 15}";
},
{
name = top;
position = "{219, 645}";
},
{
name = topleft;
position = "{48, 645}";
}
);
layerId = "BB1D9E28-2A49-4EEB-AB77-8ACE100BF2E3";
paths = (
{
closed = 1;
nodes = (
"225 72 LINE",
"225 303 LINE",
"366 303 LINE",
"366 393 LINE",
"225 393 LINE",
"225 621 LINE",
"260 621 LINE",
"383 446 LINE",
"389 696 LINE",
"35 696 LINE",
"35 -4 LINE",
"389 -4 LINE",
"384 220 LINE",
"255 72 LINE"
);
}
);
width = 412;
},
{
anchors = (
{
name = bottom;
position = "{155, 0}";
},
{
name = ogonek;
position = "{241, 0}";
},
{
name = top;
position = "{155, 430}";
},
{
name = topleft;
position = "{32, 430}";
}
);
associatedMasterId = "BB1D9E28-2A49-4EEB-AB77-8ACE100BF2E3";
layerId = "CF3F327F-6BE6-4775-B2B4-131620B11650";
name = "Regular Jul 20 16, 14:34";
paths = (
{
closed = 1;
nodes = (
"27 448 LINE",
"28 428 OFFCURVE",
"29 408 OFFCURVE",
"29 394 CURVE",
"31 260 LINE",
"126 254 LINE",
"124 438 LINE SMOOTH",
"124 460 OFFCURVE",
"92 460 OFFCURVE",
"78 460 CURVE",
"57 460 OFFCURVE",
"42 457 OFFCURVE",
"33 454 CURVE"
);
},
{
closed = 1;
nodes = (
"29 47 LINE",
"26 0 LINE",
"41 -3 OFFCURVE",
"81 0 OFFCURVE",
"108 0 CURVE",
"124 0 LINE",
"126 254 LINE",
"31 280 LINE"
);
},
{
closed = 1;
nodes = (
"50 200 LINE",
"111 197 OFFCURVE",
"181 198 OFFCURVE",
"241 200 CURVE",
"248 222 OFFCURVE",
"255 243 OFFCURVE",
"248 265 CURVE",
"237 265 OFFCURVE",
"221 265 OFFCURVE",
"210 265 CURVE SMOOTH",
"160 265 OFFCURVE",
"125 259 OFFCURVE",
"95 262 CURVE"
);
},
{
closed = 1;
nodes = (
"50 398 LINE",
"111 395 OFFCURVE",
"185 396 OFFCURVE",
"245 398 CURVE",
"252 420 OFFCURVE",
"259 441 OFFCURVE",
"252 463 CURVE",
"241 463 OFFCURVE",
"225 463 OFFCURVE",
"214 463 CURVE SMOOTH",
"164 463 OFFCURVE",
"125 457 OFFCURVE",
"95 460 CURVE"
);
},
{
closed = 1;
nodes = (
"54 -1 LINE",
"115 -4 OFFCURVE",
"187 -3 OFFCURVE",
"247 -1 CURVE",
"254 21 OFFCURVE",
"261 42 OFFCURVE",
"254 64 CURVE",
"243 64 OFFCURVE",
"227 64 OFFCURVE",
"216 64 CURVE SMOOTH",
"166 64 OFFCURVE",
"129 58 OFFCURVE",
"99 61 CURVE"
);
}
);
width = 267;
},
{
anchors = (
{
name = bottom;
position = "{135, 0}";
},
{
name = ogonek;
position = "{241, 10}";
},
{
name = top;
position = "{135, 430}";
},
{
name = topleft;
position = "{21, 430}";
}
);
associatedMasterId = "BB1D9E28-2A49-4EEB-AB77-8ACE100BF2E3";
layerId = "4097C4C4-98EC-4ABB-AA7A-AEC3831701DA";
name = "Regular Aug 5 16, 23:47";
paths = (
{
closed = 1;
nodes = (
"28 448 LINE",
"29 428 OFFCURVE",
"30 408 OFFCURVE",
"30 394 CURVE",
"32 260 LINE",
"127 254 LINE",
"125 438 LINE SMOOTH",
"125 460 OFFCURVE",
"93 460 OFFCURVE",
"79 460 CURVE",
"58 460 OFFCURVE",
"43 457 OFFCURVE",
"34 454 CURVE"
);
},
{
closed = 1;
nodes = (
"30 47 LINE",
"27 0 LINE",
"42 -3 OFFCURVE",
"82 0 OFFCURVE",
"109 0 CURVE",
"125 0 LINE",
"127 254 LINE",
"32 280 LINE"
);
},
{
closed = 1;
nodes = (
"51 200 LINE",
"112 197 OFFCURVE",
"179 198 OFFCURVE",
"239 200 CURVE",
"246 222 OFFCURVE",
"253 243 OFFCURVE",
"246 265 CURVE",
"235 265 OFFCURVE",
"219 265 OFFCURVE",
"208 265 CURVE SMOOTH",
"158 265 OFFCURVE",
"126 259 OFFCURVE",
"96 262 CURVE"
);
},
{
closed = 1;
nodes = (
"51 398 LINE",
"112 395 OFFCURVE",
"186 396 OFFCURVE",
"248 398 CURVE",
"253 410 OFFCURVE",
"260 431 OFFCURVE",
"251 463 CURVE",
"242 463 OFFCURVE",
"226 463 OFFCURVE",
"215 463 CURVE SMOOTH",
"165 463 OFFCURVE",
"118 460 OFFCURVE",
"86 460 CURVE"
);
},
{
closed = 1;
nodes = (
"55 -1 LINE",
"116 -4 OFFCURVE",
"188 -3 OFFCURVE",
"254 -1 CURVE",
"256 21 OFFCURVE",
"259 41 OFFCURVE",
"255 64 CURVE",
"244 64 OFFCURVE",
"228 64 OFFCURVE",
"217 64 CURVE SMOOTH",
"166 64 OFFCURVE",
"129 62 OFFCURVE",
"98 63 CURVE"
);
}
);
width = 268;
}
);
leftKerningGroup = H;
leftMetricsKey = H;
rightKerningGroup = E;
unicode = 0045;
},
{
glyphname = Eacute;
lastChange = "2016-09-23 14:49:47 +0000";
layers = (
{
anchors = (
{
name = bottom;
position = "{219, 0}";
},
{
name = ogonek;
position = "{378, 15}";
},
{
name = top;
position = "{219, 645}";
},
{
name = topleft;
position = "{48, 645}";
}
);
layerId = "F5421C71-FF83-445B-9C53-783D261A57C9";
paths = (
{
closed = 1;
nodes = (
"57 696 LINE",
"57 0 LINE",
"203 0 LINE",
"203 696 LINE"
);
},
{
closed = 1;
nodes = (
"138 311 LINE",
"354 311 LINE",
"354 393 LINE",
"138 393 LINE"
);
},
{
closed = 1;
nodes = (
"138 0 LINE",
"377 0 LINE",
"365 173 LINE",
"281 68 LINE",
"138 68 LINE"
);
},
{
closed = 1;
nodes = (
"138 629 LINE",
"287 629 LINE",
"365 509 LINE",
"377 696 LINE",
"138 696 LINE"
);
},
{
closed = 1;
nodes = (
"267 740 LINE",
"314 911 LINE",
"191 911 LINE",
"186 833 LINE",
"179 740 LINE"
);
}
);
width = 419;
},
{
anchors = (
{
name = bottom;
position = "{219, 0}";
},
{
name = ogonek;
position = "{378, 15}";
},
{
name = top;
position = "{219, 645}";
},
{
name = topleft;
position = "{48, 645}";
}
);
components = (
{
name = E;
},
{
name = acutecomb;
transform = "{1, 0, 0, 1, 151, 127}";
}
);
layerId = "20F347C1-683B-45AE-B240-2F1F38013DFA";
width = 419;
},
{
anchors = (
{
name = bottom;
position = "{203, 0}";
},
{
name = ogonek;
position = "{362, 15}";
},
{
name = top;
position = "{203, 645}";
},
{
name = topleft;
position = "{32, 645}";
}
);
layerId = "32EE9563-F6F8-4713-95B2-270CD8F86471";
paths = (
{
closed = 1;
nodes = (
"42 672 LINE",
"44 642 OFFCURVE",
"45 612 OFFCURVE",
"45 591 CURVE",
"48 390 LINE",
"191 381 LINE",
"188 657 LINE SMOOTH",
"188 690 OFFCURVE",
"140 690 OFFCURVE",
"119 690 CURVE",
"87 690 OFFCURVE",
"65 686 OFFCURVE",
"51 681 CURVE"
);
},
{
closed = 1;
nodes = (
"45 71 LINE",
"41 0 LINE",
"63 -5 OFFCURVE",
"123 0 OFFCURVE",
"164 0 CURVE",
"188 0 LINE",
"191 381 LINE",
"48 420 LINE"
);
},
{
closed = 1;
nodes = (
"77 300 LINE",
"168 296 OFFCURVE",
"269 297 OFFCURVE",
"359 300 CURVE",
"369 333 OFFCURVE",
"380 365 OFFCURVE",
"369 398 CURVE",
"353 398 OFFCURVE",
"329 398 OFFCURVE",
"312 398 CURVE SMOOTH",
"237 398 OFFCURVE",
"189 389 OFFCURVE",
"144 393 CURVE"
);
},
{
closed = 1;
nodes = (
"77 597 LINE",
"168 593 OFFCURVE",
"279 594 OFFCURVE",
"372 597 CURVE",
"380 615 OFFCURVE",
"390 647 OFFCURVE",
"377 695 CURVE",
"363 695 OFFCURVE",
"339 695 OFFCURVE",
"323 695 CURVE SMOOTH",
"248 695 OFFCURVE",
"177 690 OFFCURVE",
"129 690 CURVE"
);
},
{
closed = 1;
nodes = (
"83 -2 LINE",
"174 -6 OFFCURVE",
"282 -5 OFFCURVE",
"381 -2 CURVE",
"384 32 OFFCURVE",
"389 62 OFFCURVE",
"383 96 CURVE",
"366 96 OFFCURVE",
"342 96 OFFCURVE",
"326 96 CURVE SMOOTH",
"249 96 OFFCURVE",
"194 93 OFFCURVE",
"147 95 CURVE"
);
},
{
closed = 1;
nodes = (
"209 746 OFFCURVE",
"233 755 CURVE",
"261 797 OFFCURVE",
"284 875 OFFCURVE",
"291 908 CURVE",
"282 932 OFFCURVE",
"228 939 OFFCURVE",
"194 933 CURVE",
"188 933 OFFCURVE",
"183 930 OFFCURVE",
"177 917 CURVE",
"165 882 OFFCURVE",
"158 815 OFFCURVE",
"156 767 CURVE",
"171 749 OFFCURVE"
);
}
);
width = 402;
},
{
anchors = (
{
name = bottom;
position = "{219, 0}";
},
{
name = ogonek;
position = "{378, 15}";
},
{
name = top;
position = "{219, 645}";
},
{
name = topleft;
position = "{48, 645}";
}
);
components = (
{
name = E;
},
{
name = acutecomb;
transform = "{1, 0, 0, 1, 151, 127}";
}
);
layerId = "BB1D9E28-2A49-4EEB-AB77-8ACE100BF2E3";
width = 412;
}
);
leftKerningGroup = H;
rightKerningGroup = E;
unicode = 00C9;
},
{
glyphname = Ecaron;
lastChange = "2016-09-23 14:49:47 +0000";
layers = (
{
anchors = (
{
name = bottom;
position = "{219, 0}";
},
{
name = ogonek;
position = "{378, 15}";
},
{
name = top;
position = "{219, 645}";
},
{
name = topleft;
position = "{48, 645}";
}
);
layerId = "F5421C71-FF83-445B-9C53-783D261A57C9";
paths = (
{
closed = 1;
nodes = (
"57 696 LINE",
"57 0 LINE",
"203 0 LINE",
"203 696 LINE"
);
},
{
closed = 1;
nodes = (
"138 311 LINE",
"354 311 LINE",
"354 393 LINE",
"138 393 LINE"
);
},
{
closed = 1;
nodes = (
"138 0 LINE",
"377 0 LINE",
"365 173 LINE",
"281 68 LINE",
"138 68 LINE"
);
},
{
closed = 1;
nodes = (
"138 629 LINE",
"287 629 LINE",
"365 509 LINE",
"377 696 LINE",
"138 696 LINE"
);
},
{
closed = 1;
nodes = (
"114 812 LINE",
"141 740 LINE",
"257 740 LINE",
"212 809 LINE",
"167 911 LINE",
"78 911 LINE"
);
},
{
closed = 1;
nodes = (
"272 911 LINE",
"227 809 LINE",
"182 740 LINE",
"296 740 LINE",
"323 812 LINE",
"360 911 LINE"
);
}
);
width = 419;
},
{
anchors = (
{
name = bottom;
position = "{219, 0}";
},
{
name = ogonek;
position = "{378, 15}";
},
{
name = top;
position = "{219, 645}";
},
{
name = topleft;
position = "{48, 645}";
}
);
components = (
{
name = E;
},
{
name = caroncomb;
transform = "{1, 0, 0, 1, 88, 127}";
}
);
layerId = "20F347C1-683B-45AE-B240-2F1F38013DFA";
width = 419;
},
{
anchors = (
{
name = bottom;
position = "{203, 0}";
},
{
name = ogonek;
position = "{362, 15}";
},
{
name = top;
position = "{203, 645}";
},
{
name = topleft;
position = "{32, 645}";
}
);
layerId = "32EE9563-F6F8-4713-95B2-270CD8F86471";
paths = (
{
closed = 1;
nodes = (
"42 672 LINE",
"44 642 OFFCURVE",
"45 612 OFFCURVE",
"45 591 CURVE",
"48 390 LINE",
"191 381 LINE",
"188 657 LINE SMOOTH",
"188 690 OFFCURVE",
"140 690 OFFCURVE",
"119 690 CURVE",
"87 690 OFFCURVE",
"65 686 OFFCURVE",
"51 681 CURVE"
);
},
{
closed = 1;
nodes = (
"45 71 LINE",
"41 0 LINE",
"63 -5 OFFCURVE",
"123 0 OFFCURVE",
"164 0 CURVE",
"188 0 LINE",
"191 381 LINE",
"48 420 LINE"
);
},
{
closed = 1;
nodes = (
"77 300 LINE",
"168 296 OFFCURVE",
"269 297 OFFCURVE",
"359 300 CURVE",
"369 333 OFFCURVE",
"380 365 OFFCURVE",
"369 398 CURVE",
"353 398 OFFCURVE",
"329 398 OFFCURVE",
"312 398 CURVE SMOOTH",
"237 398 OFFCURVE",
"189 389 OFFCURVE",
"144 393 CURVE"
);
},
{
closed = 1;
nodes = (
"77 597 LINE",
"168 593 OFFCURVE",
"279 594 OFFCURVE",
"372 597 CURVE",
"380 615 OFFCURVE",
"390 647 OFFCURVE",
"377 695 CURVE",
"363 695 OFFCURVE",
"339 695 OFFCURVE",
"323 695 CURVE SMOOTH",
"248 695 OFFCURVE",
"177 690 OFFCURVE",
"129 690 CURVE"
);
},
{
closed = 1;
nodes = (
"83 -2 LINE",
"174 -6 OFFCURVE",
"282 -5 OFFCURVE",
"381 -2 CURVE",
"384 32 OFFCURVE",
"389 62 OFFCURVE",
"383 96 CURVE",
"366 96 OFFCURVE",
"342 96 OFFCURVE",
"326 96 CURVE SMOOTH",
"249 96 OFFCURVE",
"194 93 OFFCURVE",
"147 95 CURVE"
);
},
{
closed = 1;
nodes = (
"222 866 OFFCURVE",
"185 795 OFFCURVE",
"159 752 CURVE",
"156 753 OFFCURVE",
"204 747 OFFCURVE",
"251 752 CURVE",
"269 767 OFFCURVE",
"312 854 OFFCURVE",
"332 918 CURVE",
"317 936 OFFCURVE",
"287 939 OFFCURVE",
"263 930 CURVE"
);
},
{
closed = 1;
nodes = (
"116 939 OFFCURVE",
"86 936 OFFCURVE",
"71 918 CURVE",
"90 854 OFFCURVE",
"128 767 OFFCURVE",
"147 752 CURVE",
"192 747 OFFCURVE",
"242 753 OFFCURVE",
"239 752 CURVE",
"215 795 OFFCURVE",
"177 866 OFFCURVE",
"140 930 CURVE"
);
}
);
width = 402;
},
{
anchors = (
{
name = bottom;
position = "{219, 0}";
},
{
name = ogonek;
position = "{378, 15}";
},
{
name = top;
position = "{219, 645}";
},
{
name = topleft;
position = "{48, 645}";
}
);
components = (
{
name = E;
},
{
name = caroncomb;
transform = "{1, 0, 0, 1, 88, 127}";
}
);
layerId = "BB1D9E28-2A49-4EEB-AB77-8ACE100BF2E3";
width = 412;
}
);
leftKerningGroup = H;
rightKerningGroup = E;
unicode = 011A;
},
{
glyphname = Ecircumflex;
lastChange = "2016-09-23 14:49:47 +0000";
layers = (
{
anchors = (
{
name = bottom;
position = "{219, 0}";
},
{
name = ogonek;
position = "{378, 15}";
},
{
name = top;
position = "{219, 645}";
},
{
name = topleft;
position = "{48, 645}";
}
);
layerId = "F5421C71-FF83-445B-9C53-783D261A57C9";
paths = (
{
closed = 1;
nodes = (
"57 696 LINE",
"57 0 LINE",
"203 0 LINE",
"203 696 LINE"
);
},
{
closed = 1;
nodes = (
"138 311 LINE",
"354 311 LINE",
"354 393 LINE",
"138 393 LINE"
);
},
{
closed = 1;
nodes = (
"138 0 LINE",
"377 0 LINE",
"365 173 LINE",
"281 68 LINE",
"138 68 LINE"
);
},
{
closed = 1;
nodes = (
"138 629 LINE",
"287 629 LINE",
"365 509 LINE",
"377 696 LINE",
"138 696 LINE"
);
},
{
closed = 1;
nodes = (
"165 740 LINE",
"210 842 LINE",
"255 911 LINE",
"132 911 LINE",
"105 839 LINE",
"77 740 LINE"
);
},
{
closed = 1;
nodes = (
"330 839 LINE",
"303 911 LINE",
"180 911 LINE",
"225 842 LINE",
"270 740 LINE",
"359 740 LINE"
);
}
);
width = 419;
},
{
anchors = (
{
name = bottom;
position = "{219, 0}";
},
{
name = ogonek;
position = "{378, 15}";
},
{
name = top;
position = "{219, 645}";
},
{
name = topleft;
position = "{48, 645}";
}
);
components = (
{
name = E;
},
{
name = circumflexcomb;
transform = "{1, 0, 0, 1, 88, 127}";
}
);
layerId = "20F347C1-683B-45AE-B240-2F1F38013DFA";
width = 419;
},
{
anchors = (
{
name = bottom;
position = "{203, 0}";
},
{
name = ogonek;
position = "{362, 15}";
},
{
name = top;
position = "{203, 645}";
},
{
name = topleft;
position = "{32, 645}";
}
);
layerId = "32EE9563-F6F8-4713-95B2-270CD8F86471";
paths = (
{
closed = 1;
nodes = (
"42 672 LINE",
"44 642 OFFCURVE",
"45 612 OFFCURVE",
"45 591 CURVE",
"48 390 LINE",
"191 381 LINE",
"188 657 LINE SMOOTH",
"188 690 OFFCURVE",
"140 690 OFFCURVE",
"119 690 CURVE",
"87 690 OFFCURVE",
"65 686 OFFCURVE",
"51 681 CURVE"
);
},
{
closed = 1;
nodes = (
"45 71 LINE",
"41 0 LINE",
"63 -5 OFFCURVE",
"123 0 OFFCURVE",
"164 0 CURVE",
"188 0 LINE",
"191 381 LINE",
"48 420 LINE"
);
},
{
closed = 1;
nodes = (
"77 300 LINE",
"168 296 OFFCURVE",
"269 297 OFFCURVE",
"359 300 CURVE",
"369 333 OFFCURVE",
"380 365 OFFCURVE",
"369 398 CURVE",
"353 398 OFFCURVE",
"329 398 OFFCURVE",
"312 398 CURVE SMOOTH",
"237 398 OFFCURVE",
"189 389 OFFCURVE",
"144 393 CURVE"
);
},
{
closed = 1;
nodes = (
"77 597 LINE",
"168 593 OFFCURVE",
"279 594 OFFCURVE",
"372 597 CURVE",
"380 615 OFFCURVE",
"390 647 OFFCURVE",
"377 695 CURVE",
"363 695 OFFCURVE",
"339 695 OFFCURVE",
"323 695 CURVE SMOOTH",
"248 695 OFFCURVE",
"177 690 OFFCURVE",
"129 690 CURVE"
);
},
{
closed = 1;
nodes = (
"83 -2 LINE",
"174 -6 OFFCURVE",
"282 -5 OFFCURVE",
"381 -2 CURVE",
"384 32 OFFCURVE",
"389 62 OFFCURVE",
"383 96 CURVE",
"366 96 OFFCURVE",
"342 96 OFFCURVE",
"326 96 CURVE SMOOTH",
"249 96 OFFCURVE",
"194 93 OFFCURVE",
"147 95 CURVE"
);
},
{
closed = 1;
nodes = (
"285 746 OFFCURVE",
"315 749 OFFCURVE",
"330 767 CURVE",
"311 831 OFFCURVE",
"267 918 OFFCURVE",
"249 933 CURVE",
"203 938 OFFCURVE",
"155 932 OFFCURVE",
"158 933 CURVE",
"183 890 OFFCURVE",
"221 819 OFFCURVE",
"255 755 CURVE"
);
},
{
closed = 1;
nodes = (
"176 819 OFFCURVE",
"213 890 OFFCURVE",
"237 933 CURVE",
"240 932 OFFCURVE",
"191 938 OFFCURVE",
"146 933 CURVE",
"126 918 OFFCURVE",
"89 831 OFFCURVE",
"69 767 CURVE",
"84 749 OFFCURVE",
"114 746 OFFCURVE",
"144 755 CURVE"
);
}
);
width = 402;
},
{
anchors = (
{
name = bottom;
position = "{219, 0}";
},
{
name = ogonek;
position = "{378, 15}";
},
{
name = top;
position = "{219, 645}";
},
{
name = topleft;
position = "{48, 645}";
}
);
components = (
{
name = E;
},
{
name = circumflexcomb;
transform = "{1, 0, 0, 1, 88, 127}";
}
);
layerId = "BB1D9E28-2A49-4EEB-AB77-8ACE100BF2E3";
width = 412;
}
);
leftKerningGroup = H;
rightKerningGroup = E;
unicode = 00CA;
},
{
glyphname = Edieresis;
lastChange = "2016-09-23 14:49:47 +0000";
layers = (
{
anchors = (
{
name = bottom;
position = "{219, 0}";
},
{
name = ogonek;
position = "{378, 15}";
},
{
name = top;
position = "{219, 645}";
},
{
name = topleft;
position = "{48, 645}";
}
);
layerId = "F5421C71-FF83-445B-9C53-783D261A57C9";
paths = (
{
closed = 1;
nodes = (
"57 696 LINE",
"57 0 LINE",
"203 0 LINE",
"203 696 LINE"
);
},
{
closed = 1;
nodes = (
"138 311 LINE",
"354 311 LINE",
"354 393 LINE",
"138 393 LINE"
);
},
{
closed = 1;
nodes = (
"138 0 LINE",
"377 0 LINE",
"365 173 LINE",
"281 68 LINE",
"138 68 LINE"
);
},
{
closed = 1;
nodes = (
"138 629 LINE",
"287 629 LINE",
"365 509 LINE",
"377 696 LINE",
"138 696 LINE"
);
},
{
closed = 1;
nodes = (
"194 767 LINE",
"198 894 LINE",
"65 894 LINE",
"66 767 LINE"
);
},
{
closed = 1;
nodes = (
"374 767 LINE",
"378 894 LINE",
"245 894 LINE",
"246 767 LINE"
);
}
);
width = 419;
},
{
anchors = (
{
name = bottom;
position = "{219, 0}";
},
{
name = ogonek;
position = "{378, 15}";
},
{
name = top;
position = "{219, 645}";
},
{
name = topleft;
position = "{48, 645}";
}
);
components = (
{
name = E;
},
{
name = dieresiscomb;
transform = "{1, 0, 0, 1, 30, 127}";
}
);
layerId = "20F347C1-683B-45AE-B240-2F1F38013DFA";
width = 419;
},
{
anchors = (
{
name = bottom;
position = "{203, 0}";
},
{
name = ogonek;
position = "{362, 15}";
},
{
name = top;
position = "{203, 645}";
},
{
name = topleft;
position = "{32, 645}";
}
);
layerId = "32EE9563-F6F8-4713-95B2-270CD8F86471";
paths = (
{
closed = 1;
nodes = (
"42 672 LINE",
"44 642 OFFCURVE",
"45 612 OFFCURVE",
"45 591 CURVE",
"48 390 LINE",
"191 381 LINE",
"188 657 LINE SMOOTH",
"188 690 OFFCURVE",
"140 690 OFFCURVE",
"119 690 CURVE",
"87 690 OFFCURVE",
"65 686 OFFCURVE",
"51 681 CURVE"
);
},
{
closed = 1;
nodes = (
"45 71 LINE",
"41 0 LINE",
"63 -5 OFFCURVE",
"123 0 OFFCURVE",
"164 0 CURVE",
"188 0 LINE",
"191 381 LINE",
"48 420 LINE"
);
},
{
closed = 1;
nodes = (
"77 300 LINE",
"168 296 OFFCURVE",
"269 297 OFFCURVE",
"359 300 CURVE",
"369 333 OFFCURVE",
"380 365 OFFCURVE",
"369 398 CURVE",
"353 398 OFFCURVE",
"329 398 OFFCURVE",
"312 398 CURVE SMOOTH",
"237 398 OFFCURVE",
"189 389 OFFCURVE",
"144 393 CURVE"
);
},
{
closed = 1;
nodes = (
"77 597 LINE",
"168 593 OFFCURVE",
"279 594 OFFCURVE",
"372 597 CURVE",
"380 615 OFFCURVE",
"390 647 OFFCURVE",
"377 695 CURVE",
"363 695 OFFCURVE",
"339 695 OFFCURVE",
"323 695 CURVE SMOOTH",
"248 695 OFFCURVE",
"177 690 OFFCURVE",
"129 690 CURVE"
);
},
{
closed = 1;
nodes = (
"83 -2 LINE",
"174 -6 OFFCURVE",
"282 -5 OFFCURVE",
"381 -2 CURVE",
"384 32 OFFCURVE",
"389 62 OFFCURVE",
"383 96 CURVE",
"366 96 OFFCURVE",
"342 96 OFFCURVE",
"326 96 CURVE SMOOTH",
"249 96 OFFCURVE",
"194 93 OFFCURVE",
"147 95 CURVE"
);
},
{
closed = 1;
nodes = (
"125 749 OFFCURVE",
"149 771 CURVE",
"170 797 OFFCURVE",
"176 854 OFFCURVE",
"165 887 CURVE",
"147 929 OFFCURVE",
"72 939 OFFCURVE",
"47 909 CURVE",
"23 879 OFFCURVE",
"23 818 OFFCURVE",
"41 782 CURVE",
"60 752 OFFCURVE"
);
},
{
closed = 1;
nodes = (
"338 749 OFFCURVE",
"362 771 CURVE",
"383 797 OFFCURVE",
"387 854 OFFCURVE",
"377 887 CURVE",
"360 929 OFFCURVE",
"285 939 OFFCURVE",
"258 909 CURVE",
"236 879 OFFCURVE",
"234 818 OFFCURVE",
"252 782 CURVE",
"272 752 OFFCURVE"
);
}
);
width = 402;
},
{
anchors = (
{
name = bottom;
position = "{219, 0}";
},
{
name = ogonek;
position = "{378, 15}";
},
{
name = top;
position = "{219, 645}";
},
{
name = topleft;
position = "{48, 645}";
}
);
components = (
{
name = E;
},
{
name = dieresiscomb;
transform = "{1, 0, 0, 1, 30, 127}";
}
);
layerId = "BB1D9E28-2A49-4EEB-AB77-8ACE100BF2E3";
width = 412;
}
);
leftKerningGroup = H;
rightKerningGroup = E;
unicode = 00CB;
},
{
glyphname = Edotaccent;
lastChange = "2016-09-23 14:49:47 +0000";
layers = (
{
anchors = (
{
name = bottom;
position = "{219, 0}";
},
{
name = ogonek;
position = "{378, 15}";
},
{
name = top;
position = "{219, 645}";
},
{
name = topleft;
position = "{48, 645}";
}
);
layerId = "F5421C71-FF83-445B-9C53-783D261A57C9";
paths = (
{
closed = 1;
nodes = (
"57 696 LINE",
"57 0 LINE",
"203 0 LINE",
"203 696 LINE"
);
},
{
closed = 1;
nodes = (
"138 311 LINE",
"354 311 LINE",
"354 393 LINE",
"138 393 LINE"
);
},
{
closed = 1;
nodes = (
"138 0 LINE",
"377 0 LINE",
"365 173 LINE",
"281 68 LINE",
"138 68 LINE"
);
},
{
closed = 1;
nodes = (
"138 629 LINE",
"287 629 LINE",
"365 509 LINE",
"377 696 LINE",
"138 696 LINE"
);
},
{
closed = 1;
nodes = (
"291 770 LINE",
"296 897 LINE",
"162 897 LINE",
"164 770 LINE"
);
}
);
width = 419;
},
{
anchors = (
{
name = bottom;
position = "{219, 0}";
},
{
name = ogonek;
position = "{378, 15}";
},
{
name = top;
position = "{219, 645}";
},
{
name = topleft;
position = "{48, 645}";
}
);
components = (
{
name = E;
},
{
name = dotaccentcomb;
transform = "{1, 0, 0, 1, 142, 127}";
}
);
layerId = "20F347C1-683B-45AE-B240-2F1F38013DFA";
width = 419;
},
{
anchors = (
{
name = bottom;
position = "{203, 0}";
},
{
name = ogonek;
position = "{362, 15}";
},
{
name = top;
position = "{203, 645}";
},
{
name = topleft;
position = "{32, 645}";
}
);
hints = (
{
horizontal = 1;
place = "{1127, 272}";
},
{
place = "{203, 227}";
}
);
layerId = "32EE9563-F6F8-4713-95B2-270CD8F86471";
paths = (
{
closed = 1;
nodes = (
"42 672 LINE",
"44 642 OFFCURVE",
"45 612 OFFCURVE",
"45 591 CURVE",
"48 390 LINE",
"191 381 LINE",
"188 657 LINE SMOOTH",
"188 690 OFFCURVE",
"140 690 OFFCURVE",
"119 690 CURVE",
"87 690 OFFCURVE",
"65 686 OFFCURVE",
"51 681 CURVE"
);
},
{
closed = 1;
nodes = (
"45 71 LINE",
"41 0 LINE",
"63 -5 OFFCURVE",
"123 0 OFFCURVE",
"164 0 CURVE",
"188 0 LINE",
"191 381 LINE",
"48 420 LINE"
);
},
{
closed = 1;
nodes = (
"77 300 LINE",
"168 296 OFFCURVE",
"269 297 OFFCURVE",
"359 300 CURVE",
"369 333 OFFCURVE",
"380 365 OFFCURVE",
"369 398 CURVE",
"353 398 OFFCURVE",
"329 398 OFFCURVE",
"312 398 CURVE SMOOTH",
"237 398 OFFCURVE",
"189 389 OFFCURVE",
"144 393 CURVE"
);
},
{
closed = 1;
nodes = (
"77 597 LINE",
"168 593 OFFCURVE",
"279 594 OFFCURVE",
"372 597 CURVE",
"380 615 OFFCURVE",
"390 647 OFFCURVE",
"377 695 CURVE",
"363 695 OFFCURVE",
"339 695 OFFCURVE",
"323 695 CURVE SMOOTH",
"248 695 OFFCURVE",
"177 690 OFFCURVE",
"129 690 CURVE"
);
},
{
closed = 1;
nodes = (
"83 -2 LINE",
"174 -6 OFFCURVE",
"282 -5 OFFCURVE",
"381 -2 CURVE",
"384 32 OFFCURVE",
"389 62 OFFCURVE",
"383 96 CURVE",
"366 96 OFFCURVE",
"342 96 OFFCURVE",
"326 96 CURVE SMOOTH",
"249 96 OFFCURVE",
"194 93 OFFCURVE",
"147 95 CURVE"
);
},
{
closed = 1;
nodes = (
"239 743 OFFCURVE",
"264 767 CURVE",
"287 794 OFFCURVE",
"293 854 OFFCURVE",
"281 890 CURVE",
"263 935 OFFCURVE",
"183 945 OFFCURVE",
"155 914 CURVE",
"131 882 OFFCURVE",
"129 816 OFFCURVE",
"149 779 CURVE",
"170 746 OFFCURVE"
);
}
);
width = 402;
},
{
anchors = (
{
name = bottom;
position = "{219, 0}";
},
{
name = ogonek;
position = "{378, 15}";
},
{
name = top;
position = "{219, 645}";
},
{
name = topleft;
position = "{48, 645}";
}
);
components = (
{
name = E;
},
{
name = dotaccentcomb;
transform = "{1, 0, 0, 1, 142, 127}";
}
);
layerId = "BB1D9E28-2A49-4EEB-AB77-8ACE100BF2E3";
width = 412;
}
);
leftKerningGroup = H;
rightKerningGroup = E;
unicode = 0116;
},
{
glyphname = Egrave;
lastChange = "2016-09-23 14:49:47 +0000";
layers = (
{
anchors = (
{
name = bottom;
position = "{219, 0}";
},
{
name = ogonek;
position = "{378, 15}";
},
{
name = top;
position = "{219, 645}";
},
{
name = topleft;
position = "{48, 645}";
}
);
layerId = "F5421C71-FF83-445B-9C53-783D261A57C9";
paths = (
{
closed = 1;
nodes = (
"57 696 LINE",
"57 0 LINE",
"203 0 LINE",
"203 696 LINE"
);
},
{
closed = 1;
nodes = (
"138 311 LINE",
"354 311 LINE",
"354 393 LINE",
"138 393 LINE"
);
},
{
closed = 1;
nodes = (
"138 0 LINE",
"377 0 LINE",
"365 173 LINE",
"281 68 LINE",
"138 68 LINE"
);
},
{
closed = 1;
nodes = (
"138 629 LINE",
"287 629 LINE",
"365 509 LINE",
"377 696 LINE",
"138 696 LINE"
);
},
{
closed = 1;
nodes = (
"249 833 LINE",
"248 911 LINE",
"125 911 LINE",
"144 836 LINE",
"174 740 LINE",
"263 740 LINE"
);
}
);
width = 419;
},
{
anchors = (
{
name = bottom;
position = "{219, 0}";
},
{
name = ogonek;
position = "{378, 15}";
},
{
name = top;
position = "{219, 645}";
},
{
name = topleft;
position = "{48, 645}";
}
);
components = (
{
name = E;
},
{
name = gravecomb;
transform = "{1, 0, 0, 1, 151, 127}";
}
);
layerId = "20F347C1-683B-45AE-B240-2F1F38013DFA";
width = 419;
},
{
anchors = (
{
name = bottom;
position = "{203, 0}";
},
{
name = ogonek;
position = "{362, 15}";
},
{
name = top;
position = "{203, 645}";
},
{
name = topleft;
position = "{32, 645}";
}
);
layerId = "32EE9563-F6F8-4713-95B2-270CD8F86471";
paths = (
{
closed = 1;
nodes = (
"42 672 LINE",
"44 642 OFFCURVE",
"45 612 OFFCURVE",
"45 591 CURVE",
"48 390 LINE",
"191 381 LINE",
"188 657 LINE SMOOTH",
"188 690 OFFCURVE",
"140 690 OFFCURVE",
"119 690 CURVE",
"87 690 OFFCURVE",
"65 686 OFFCURVE",
"51 681 CURVE"
);
},
{
closed = 1;
nodes = (
"45 71 LINE",
"41 0 LINE",
"63 -5 OFFCURVE",
"123 0 OFFCURVE",
"164 0 CURVE",
"188 0 LINE",
"191 381 LINE",
"48 420 LINE"
);
},
{
closed = 1;
nodes = (
"77 300 LINE",
"168 296 OFFCURVE",
"269 297 OFFCURVE",
"359 300 CURVE",
"369 333 OFFCURVE",
"380 365 OFFCURVE",
"369 398 CURVE",
"353 398 OFFCURVE",
"329 398 OFFCURVE",
"312 398 CURVE SMOOTH",
"237 398 OFFCURVE",
"189 389 OFFCURVE",
"144 393 CURVE"
);
},
{
closed = 1;
nodes = (
"77 597 LINE",
"168 593 OFFCURVE",
"279 594 OFFCURVE",
"372 597 CURVE",
"380 615 OFFCURVE",
"390 647 OFFCURVE",
"377 695 CURVE",
"363 695 OFFCURVE",
"339 695 OFFCURVE",
"323 695 CURVE SMOOTH",
"248 695 OFFCURVE",
"177 690 OFFCURVE",
"129 690 CURVE"
);
},
{
closed = 1;
nodes = (
"83 -2 LINE",
"174 -6 OFFCURVE",
"282 -5 OFFCURVE",
"381 -2 CURVE",
"384 32 OFFCURVE",
"389 62 OFFCURVE",
"383 96 CURVE",
"366 96 OFFCURVE",
"342 96 OFFCURVE",
"326 96 CURVE SMOOTH",
"249 96 OFFCURVE",
"194 93 OFFCURVE",
"147 95 CURVE"
);
},
{
closed = 1;
nodes = (
"248 767 CURVE",
"246 815 OFFCURVE",
"245 882 OFFCURVE",
"227 917 CURVE",
"221 930 OFFCURVE",
"216 933 OFFCURVE",
"210 933 CURVE",
"176 939 OFFCURVE",
"122 932 OFFCURVE",
"113 908 CURVE",
"120 875 OFFCURVE",
"143 797 OFFCURVE",
"171 755 CURVE",
"195 746 OFFCURVE",
"233 749 OFFCURVE"
);
}
);
width = 402;
},
{
anchors = (
{
name = bottom;
position = "{219, 0}";
},
{
name = ogonek;
position = "{378, 15}";
},
{
name = top;
position = "{219, 645}";
},
{
name = topleft;
position = "{48, 645}";
}
);
components = (
{
name = E;
},
{
name = gravecomb;
transform = "{1, 0, 0, 1, 151, 127}";
}
);
layerId = "BB1D9E28-2A49-4EEB-AB77-8ACE100BF2E3";
width = 412;
}
);
leftKerningGroup = H;
rightKerningGroup = E;
unicode = 00C8;
},
{
glyphname = Emacron;
lastChange = "2016-09-23 14:49:47 +0000";
layers = (
{
anchors = (
{
name = bottom;
position = "{219, 0}";
},
{
name = ogonek;
position = "{378, 15}";
},
{
name = top;
position = "{219, 645}";
},
{
name = topleft;
position = "{48, 645}";
}
);
layerId = "F5421C71-FF83-445B-9C53-783D261A57C9";
paths = (
{
closed = 1;
nodes = (
"57 696 LINE",
"57 0 LINE",
"203 0 LINE",
"203 696 LINE"
);
},
{
closed = 1;
nodes = (
"138 311 LINE",
"354 311 LINE",
"354 393 LINE",
"138 393 LINE"
);
},
{
closed = 1;
nodes = (
"138 0 LINE",
"377 0 LINE",
"365 173 LINE",
"281 68 LINE",
"138 68 LINE"
);
},
{
closed = 1;
nodes = (
"138 629 LINE",
"287 629 LINE",
"365 509 LINE",
"377 696 LINE",
"138 696 LINE"
);
},
{
closed = 1;
nodes = (
"81 782 LINE",
"356 782 LINE",
"356 875 LINE",
"81 875 LINE"
);
}
);
width = 419;
},
{
anchors = (
{
name = bottom;
position = "{219, 0}";
},
{
name = ogonek;
position = "{378, 15}";
},
{
name = top;
position = "{219, 645}";
},
{
name = topleft;
position = "{48, 645}";
}
);
components = (
{
name = E;
},
{
name = macroncomb;
transform = "{1, 0, 0, 1, 76, 127}";
}
);
layerId = "20F347C1-683B-45AE-B240-2F1F38013DFA";
width = 419;
},
{
anchors = (
{
name = bottom;
position = "{203, 0}";
},
{
name = ogonek;
position = "{362, 15}";
},
{
name = top;
position = "{203, 645}";
},
{
name = topleft;
position = "{32, 645}";
}
);
layerId = "32EE9563-F6F8-4713-95B2-270CD8F86471";
paths = (
{
closed = 1;
nodes = (
"42 672 LINE",
"44 642 OFFCURVE",
"45 612 OFFCURVE",
"45 591 CURVE",
"48 390 LINE",
"191 381 LINE",
"188 657 LINE SMOOTH",
"188 690 OFFCURVE",
"140 690 OFFCURVE",
"119 690 CURVE",
"87 690 OFFCURVE",
"65 686 OFFCURVE",
"51 681 CURVE"
);
},
{
closed = 1;
nodes = (
"45 71 LINE",
"41 0 LINE",
"63 -5 OFFCURVE",
"123 0 OFFCURVE",
"164 0 CURVE",
"188 0 LINE",
"191 381 LINE",
"48 420 LINE"
);
},
{
closed = 1;
nodes = (
"77 300 LINE",
"168 296 OFFCURVE",
"269 297 OFFCURVE",
"359 300 CURVE",
"369 333 OFFCURVE",
"380 365 OFFCURVE",
"369 398 CURVE",
"353 398 OFFCURVE",
"329 398 OFFCURVE",
"312 398 CURVE SMOOTH",
"237 398 OFFCURVE",
"189 389 OFFCURVE",
"144 393 CURVE"
);
},
{
closed = 1;
nodes = (
"77 597 LINE",
"168 593 OFFCURVE",
"279 594 OFFCURVE",
"372 597 CURVE",
"380 615 OFFCURVE",
"390 647 OFFCURVE",
"377 695 CURVE",
"363 695 OFFCURVE",
"339 695 OFFCURVE",
"323 695 CURVE SMOOTH",
"248 695 OFFCURVE",
"177 690 OFFCURVE",
"129 690 CURVE"
);
},
{
closed = 1;
nodes = (
"83 -2 LINE",
"174 -6 OFFCURVE",
"282 -5 OFFCURVE",
"381 -2 CURVE",
"384 32 OFFCURVE",
"389 62 OFFCURVE",
"383 96 CURVE",
"366 96 OFFCURVE",
"342 96 OFFCURVE",
"326 96 CURVE SMOOTH",
"249 96 OFFCURVE",
"194 93 OFFCURVE",
"147 95 CURVE"
);
},
{
closed = 1;
nodes = (
"57 843 OFFCURVE",
"56 822 OFFCURVE",
"65 792 CURVE",
"176 791 OFFCURVE",
"228 792 OFFCURVE",
"339 792 CURVE",
"347 834 OFFCURVE",
"347 843 OFFCURVE",
"339 885 CURVE",
"237 894 OFFCURVE",
"159 884 OFFCURVE",
"65 885 CURVE"
);
}
);
width = 402;
},
{
anchors = (
{
name = bottom;
position = "{219, 0}";
},
{
name = ogonek;
position = "{378, 15}";
},
{
name = top;
position = "{219, 645}";
},
{
name = topleft;
position = "{48, 645}";
}
);
components = (
{
name = E;
},
{
name = macroncomb;
transform = "{1, 0, 0, 1, 76, 127}";
}
);
layerId = "BB1D9E28-2A49-4EEB-AB77-8ACE100BF2E3";
width = 412;
}
);
leftKerningGroup = H;
rightKerningGroup = E;
unicode = 0112;
},
{
glyphname = Eogonek;
lastChange = "2016-09-26 14:54:12 +0000";
layers = (
{
anchors = (
{
name = bottom;
position = "{219, 0}";
},
{
name = ogonek;
position = "{378, 15}";
},
{
name = top;
position = "{201, 750}";
},
{
name = topleft;
position = "{48, 645}";
}
);
layerId = "F5421C71-FF83-445B-9C53-783D261A57C9";
paths = (
{
closed = 1;
nodes = (
"57 696 LINE",
"57 0 LINE",
"203 0 LINE",
"203 696 LINE"
);
},
{
closed = 1;
nodes = (
"138 311 LINE",
"354 311 LINE",
"354 393 LINE",
"138 393 LINE"
);
},
{
closed = 1;
nodes = (
"138 0 LINE",
"377 0 LINE",
"365 173 LINE",
"281 68 LINE",
"138 68 LINE"
);
},
{
closed = 1;
nodes = (
"138 629 LINE",
"287 629 LINE",
"365 509 LINE",
"377 696 LINE",
"138 696 LINE"
);
},
{
closed = 1;
nodes = (
"368 24 LINE",
"303 23 OFFCURVE",
"201 -21 OFFCURVE",
"201 -126 CURVE SMOOTH",
"201 -209 OFFCURVE",
"261 -233 OFFCURVE",
"309 -233 CURVE SMOOTH",
"345 -233 OFFCURVE",
"365 -224 OFFCURVE",
"380 -218 CURVE",
"380 -132 LINE",
"308 -134 LINE",
"308 -39 LINE",
"308 -35 OFFCURVE",
"339 -14 OFFCURVE",
"375 12 CURVE"
);
}
);
width = 419;
},
{
anchors = (
{
name = bottom;
position = "{219, 0}";
},
{
name = ogonek;
position = "{378, 15}";
},
{
name = top;
position = "{201, 750}";
},
{
name = topleft;
position = "{48, 645}";
}
);
layerId = "20F347C1-683B-45AE-B240-2F1F38013DFA";
paths = (
{
closed = 1;
nodes = (
"57 696 LINE",
"57 0 LINE",
"203 0 LINE",
"203 696 LINE"
);
},
{
closed = 1;
nodes = (
"273 311 LINE",
"354 296 LINE",
"354 408 LINE",
"273 393 LINE"
);
},
{
closed = 1;
nodes = (
"273 0 LINE",
"377 0 LINE",
"365 177 LINE",
"273 68 LINE"
);
},
{
closed = 1;
nodes = (
"273 629 LINE",
"365 509 LINE",
"377 696 LINE",
"273 696 LINE"
);
},
{
closed = 1;
nodes = (
"186 17 LINE",
"122 15 OFFCURVE",
"20 -29 OFFCURVE",
"20 -134 CURVE SMOOTH",
"20 -216 OFFCURVE",
"80 -240 OFFCURVE",
"128 -240 CURVE SMOOTH",
"164 -240 OFFCURVE",
"183 -231 OFFCURVE",
"198 -225 CURVE",
"198 -140 LINE",
"126 -141 LINE",
"126 -47 LINE",
"126 -42 OFFCURVE",
"158 -21 OFFCURVE",
"194 5 CURVE"
);
}
);
width = 419;
},
{
anchors = (
{
name = bottom;
position = "{203, 0}";
},
{
name = ogonek;
position = "{362, 15}";
},
{
name = top;
position = "{201, 750}";
},
{
name = topleft;
position = "{32, 645}";
}
);
layerId = "32EE9563-F6F8-4713-95B2-270CD8F86471";
paths = (
{
closed = 1;
nodes = (
"42 672 LINE",
"44 642 OFFCURVE",
"45 612 OFFCURVE",
"45 591 CURVE",
"48 390 LINE",
"191 381 LINE",
"188 657 LINE SMOOTH",
"188 690 OFFCURVE",
"140 690 OFFCURVE",
"119 690 CURVE",
"87 690 OFFCURVE",
"65 686 OFFCURVE",
"51 681 CURVE"
);
},
{
closed = 1;
nodes = (
"45 71 LINE",
"41 0 LINE",
"63 -5 OFFCURVE",
"123 0 OFFCURVE",
"164 0 CURVE",
"188 0 LINE",
"191 381 LINE",
"48 420 LINE"
);
},
{
closed = 1;
nodes = (
"77 300 LINE",
"168 296 OFFCURVE",
"269 297 OFFCURVE",
"359 300 CURVE",
"369 333 OFFCURVE",
"380 365 OFFCURVE",
"369 398 CURVE",
"353 398 OFFCURVE",
"329 398 OFFCURVE",
"312 398 CURVE SMOOTH",
"237 398 OFFCURVE",
"189 389 OFFCURVE",
"144 393 CURVE"
);
},
{
closed = 1;
nodes = (
"77 597 LINE",
"168 593 OFFCURVE",
"279 594 OFFCURVE",
"372 597 CURVE",
"380 615 OFFCURVE",
"390 647 OFFCURVE",
"377 695 CURVE",
"363 695 OFFCURVE",
"339 695 OFFCURVE",
"323 695 CURVE SMOOTH",
"248 695 OFFCURVE",
"177 690 OFFCURVE",
"129 690 CURVE"
);
},
{
closed = 1;
nodes = (
"83 -2 LINE",
"174 -6 OFFCURVE",
"282 -5 OFFCURVE",
"381 -2 CURVE",
"384 32 OFFCURVE",
"389 62 OFFCURVE",
"383 96 CURVE",
"366 96 OFFCURVE",
"342 96 OFFCURVE",
"326 96 CURVE SMOOTH",
"249 96 OFFCURVE",
"194 93 OFFCURVE",
"147 95 CURVE"
);
},
{
closed = 1;
nodes = (
"317 48 LINE",
"291 23 OFFCURVE",
"200 -21 OFFCURVE",
"200 -126 CURVE SMOOTH",
"200 -219 OFFCURVE",
"266 -243 OFFCURVE",
"320 -243 CURVE SMOOTH",
"357 -243 OFFCURVE",
"378 -234 OFFCURVE",
"393 -228 CURVE",
"404 -212 OFFCURVE",
"414 -120 OFFCURVE",
"374 -108 CURVE",
"362 -116 OFFCURVE",
"342 -125 OFFCURVE",
"327 -125 CURVE SMOOTH",
"323 -125 OFFCURVE",
"312 -125 OFFCURVE",
"309 -123 CURVE",
"306 -116 OFFCURVE",
"306 -111 OFFCURVE",
"306 -99 CURVE SMOOTH",
"306 -33 OFFCURVE",
"368 5 OFFCURVE",
"387 53 CURVE"
);
}
);
width = 402;
},
{
anchors = (
{
name = bottom;
position = "{219, 0}";
},
{
name = ogonek;
position = "{378, 15}";
},
{
name = top;
position = "{201, 750}";
},
{
name = topleft;
position = "{48, 645}";
}
);
components = (
{
name = E;
},
{
name = ogonekcomb;
transform = "{1, 0, 0, 1, 192, 0}";
}
);
layerId = "BB1D9E28-2A49-4EEB-AB77-8ACE100BF2E3";
width = 412;
}
);
leftKerningGroup = E;
rightKerningGroup = E;
unicode = 0118;
},
{
glyphname = F;
lastChange = "2016-09-26 19:43:30 +0000";
layers = (
{
anchors = (
{
name = bottom;
position = "{212, 0}";
},
{
name = top;
position = "{212, 645}";
}
);
layerId = "F5421C71-FF83-445B-9C53-783D261A57C9";
paths = (
{
closed = 1;
nodes = (
"57 696 LINE",
"57 0 LINE",
"203 0 LINE",
"203 696 LINE"
);
},
{
closed = 1;
nodes = (
"138 311 LINE",
"348 311 LINE",
"348 393 LINE",
"138 393 LINE"
);
},
{
closed = 1;
nodes = (
"134 614 LINE",
"302 614 LINE",
"362 524 LINE",
"377 696 LINE",
"143 696 LINE"
);
}
);
width = 419;
},
{
anchors = (
{
name = bottom;
position = "{212, 0}";
},
{
name = top;
position = "{212, 645}";
}
);
layerId = "20F347C1-683B-45AE-B240-2F1F38013DFA";
paths = (
{
closed = 1;
nodes = (
"57 696 LINE",
"57 0 LINE",
"203 0 LINE",
"203 696 LINE"
);
},
{
closed = 1;
nodes = (
"273 311 LINE",
"354 296 LINE",
"354 408 LINE",
"273 393 LINE"
);
},
{
closed = 1;
nodes = (
"273 629 LINE",
"365 509 LINE",
"377 696 LINE",
"273 696 LINE"
);
}
);
width = 419;
},
{
anchors = (
{
name = bottom;
position = "{195, 0}";
},
{
name = top;
position = "{195, 645}";
}
);
layerId = "32EE9563-F6F8-4713-95B2-270CD8F86471";
paths = (
{
closed = 1;
nodes = (
"42 672 LINE",
"44 642 OFFCURVE",
"45 612 OFFCURVE",
"45 591 CURVE",
"48 390 LINE",
"191 381 LINE",
"188 657 LINE SMOOTH",
"188 690 OFFCURVE",
"140 690 OFFCURVE",
"119 690 CURVE",
"87 690 OFFCURVE",
"65 686 OFFCURVE",
"51 681 CURVE"
);
},
{
closed = 1;
nodes = (
"45 71 LINE",
"41 0 LINE",
"63 -5 OFFCURVE",
"123 -3 OFFCURVE",
"164 -3 CURVE",
"188 0 LINE",
"191 381 LINE",
"48 420 LINE"
);
},
{
closed = 1;
nodes = (
"77 300 LINE",
"168 296 OFFCURVE",
"255 297 OFFCURVE",
"345 300 CURVE",
"359 320 OFFCURVE",
"360 365 OFFCURVE",
"350 398 CURVE",
"333 398 OFFCURVE",
"318 398 OFFCURVE",
"302 398 CURVE SMOOTH",
"227 398 OFFCURVE",
"219 389 OFFCURVE",
"144 393 CURVE"
);
},
{
closed = 1;
nodes = (
"77 597 LINE",
"168 593 OFFCURVE",
"269 594 OFFCURVE",
"359 597 CURVE",
"369 630 OFFCURVE",
"380 662 OFFCURVE",
"369 695 CURVE",
"353 695 OFFCURVE",
"329 695 OFFCURVE",
"312 695 CURVE SMOOTH",
"240 693 OFFCURVE",
"203 690 OFFCURVE",
"125 690 CURVE"
);
}
);
width = 390;
},
{
anchors = (
{
name = bottom;
position = "{212, 0}";
},
{
name = top;
position = "{212, 645}";
}
);
layerId = "BB1D9E28-2A49-4EEB-AB77-8ACE100BF2E3";
paths = (
{
closed = 1;
nodes = (
"379 465 LINE",
"389 696 LINE",
"35 696 LINE",
"35 -4 LINE",
"225 -4 LINE",
"225 303 LINE",
"372 303 LINE",
"372 393 LINE",
"225 393 LINE",
"225 606 LINE",
"275 606 LINE"
);
}
);
width = 412;
}
);
leftKerningGroup = H;
leftMetricsKey = H;
rightKerningGroup = F;
rightMetricsKey = E;
unicode = 0046;
},
{
glyphname = G;
lastChange = "2016-09-26 08:36:36 +0000";
layers = (
{
anchors = (
{
name = bottom;
position = "{273, 60}";
},
{
name = center;
position = "{273, 375}";
},
{
name = ogonek;
position = "{473, 15}";
},
{
name = top;
position = "{284, 645}";
},
{
name = topleft;
position = "{51, 645}";
},
{
name = topright;
position = "{494, 645}";
}
);
background = {
components = (
{
name = C;
transform = "{1, 0, 0, 1, 11, 0}";
}
);
};
layerId = "F5421C71-FF83-445B-9C53-783D261A57C9";
paths = (
{
closed = 1;
nodes = (
"335 138 LINE",
"338 68 LINE",
"344 0 LINE",
"461 0 LINE",
"461 330 LINE",
"335 335 LINE"
);
},
{
closed = 1;
nodes = (
"281 371 LINE",
"281 254 LINE",
"359 300 LINE",
"461 300 LINE",
"461 371 LINE"
);
},
{
closed = 1;
nodes = (
"198 344 LINE",
"198 618 LINE",
"297 618 LINE",
"390 494 LINE",
"423 665 LINE",
"375 690 OFFCURVE",
"329 701 OFFCURVE",
"251 701 CURVE",
"102 701 OFFCURVE",
"30 593 OFFCURVE",
"30 344 CURVE"
);
},
{
closed = 1;
nodes = (
"30 90 OFFCURVE",
"93 -11 OFFCURVE",
"231 -11 CURVE",
"330 -11 OFFCURVE",
"353 89 OFFCURVE",
"378 153 CURVE",
"368 228 LINE",
"279 72 LINE",
"198 72 LINE",
"198 344 LINE",
"30 344 LINE"
);
}
);
width = 518;
},
{
anchors = (
{
name = bottom;
position = "{264, 0}";
},
{
name = center;
position = "{264, 375}";
},
{
name = ogonek;
position = "{464, 15}";
},
{
name = top;
position = "{275, 645}";
},
{
name = topleft;
position = "{42, 645}";
},
{
name = topright;
position = "{485, 645}";
}
);
background = {
components = (
{
name = C;
transform = "{1, 0, 0, 1, 5, 0}";
}
);
};
layerId = "20F347C1-683B-45AE-B240-2F1F38013DFA";
paths = (
{
closed = 1;
nodes = (
"326 138 LINE",
"329 68 LINE",
"335 0 LINE",
"452 0 LINE",
"452 330 LINE",
"326 335 LINE"
);
},
{
closed = 1;
nodes = (
"272 371 LINE",
"272 254 LINE",
"350 300 LINE",
"452 300 LINE",
"452 371 LINE"
);
},
{
closed = 1;
nodes = (
"282 618 LINE",
"381 494 LINE",
"414 665 LINE",
"375 686 OFFCURVE",
"338 696 OFFCURVE",
"282 699 CURVE"
);
},
{
closed = 1;
nodes = (
"192 696 LINE",
"83 696 OFFCURVE",
"30 561 OFFCURVE",
"30 344 CURVE",
"192 344 LINE"
);
},
{
closed = 1;
nodes = (
"192 344 LINE",
"30 344 LINE",
"30 110 OFFCURVE",
"81 -9 OFFCURVE",
"192 -9 CURVE"
);
}
);
width = 509;
},
{
anchors = (
{
name = bottom;
position = "{257, 0}";
},
{
name = center;
position = "{257, 375}";
},
{
name = ogonek;
position = "{456, 15}";
},
{
name = top;
position = "{267, 645}";
},
{
name = topleft;
position = "{35, 645}";
},
{
name = topright;
position = "{477, 645}";
}
);
layerId = "32EE9563-F6F8-4713-95B2-270CD8F86471";
paths = (
{
closed = 1;
nodes = (
"338 237 LINE",
"330 159 OFFCURVE",
"299 104 OFFCURVE",
"275 75 CURVE",
"233 75 LINE",
"197 86 OFFCURVE",
"176 182 OFFCURVE",
"176 344 CURVE SMOOTH",
"176 474 OFFCURVE",
"197 582 OFFCURVE",
"224 614 CURVE",
"266 614 LINE",
"281 591 OFFCURVE",
"344 551 OFFCURVE",
"377 542 CURVE",
"410 561 OFFCURVE",
"432 593 OFFCURVE",
"440 642 CURVE",
"384 683 OFFCURVE",
"336 696 OFFCURVE",
"281 696 CURVE",
"251 696 LINE",
"72 696 OFFCURVE",
"20 519 OFFCURVE",
"20 344 CURVE SMOOTH",
"20 111 OFFCURVE",
"89 -14 OFFCURVE",
"242 -9 CURVE",
"272 -8 LINE",
"324 9 OFFCURVE",
"396 212 OFFCURVE",
"399 237 CURVE"
);
},
{
closed = 1;
nodes = (
"333 147 LINE",
"332 39 LINE",
"335 -2 LINE",
"351 -14 OFFCURVE",
"402 -18 OFFCURVE",
"446 -8 CURVE",
"464 -2 LINE",
"459 63 LINE",
"458 296 LINE",
"335 335 LINE"
);
},
{
closed = 1;
nodes = (
"413 369 OFFCURVE",
"405 375 OFFCURVE",
"330 375 CURVE SMOOTH",
"314 375 OFFCURVE",
"293 375 OFFCURVE",
"276 375 CURVE",
"270 342 OFFCURVE",
"269 323 OFFCURVE",
"279 290 CURVE",
"369 287 OFFCURVE",
"366 285 OFFCURVE",
"458 290 CURVE",
"458 365 LINE"
);
}
);
width = 497;
},
{
anchors = (
{
name = bottom;
position = "{283, -10}";
},
{
name = center;
position = "{283, 375}";
},
{
name = ogonek;
position = "{483, 15}";
},
{
name = top;
position = "{294, 645}";
},
{
name = topleft;
position = "{61, 645}";
},
{
name = topright;
position = "{504, 645}";
}
);
background = {
components = (
{
name = C;
transform = "{1, 0, 0, 1, 21, 0}";
}
);
};
layerId = "BB1D9E28-2A49-4EEB-AB77-8ACE100BF2E3";
paths = (
{
closed = 1;
nodes = (
"277 231 LINE",
"421 326 LINE",
"332 308 LINE",
"332 167 LINE",
"271 76 LINE",
"230 76 LINE",
"230 614 LINE",
"291 614 LINE",
"433 458 LINE",
"454 670 LINE",
"403 692 OFFCURVE",
"344 705 OFFCURVE",
"261 705 CURVE SMOOTH",
"92 705 OFFCURVE",
"18 593 OFFCURVE",
"18 344 CURVE SMOOTH",
"18 91 OFFCURVE",
"82 -15 OFFCURVE",
"226 -15 CURVE SMOOTH",
"285 -15 OFFCURVE",
"325 2 OFFCURVE",
"352 146 CURVE",
"327 78 LINE",
"332 -4 LINE",
"493 -4 LINE",
"493 375 LINE",
"277 375 LINE"
);
}
);
width = 528;
}
);
leftKerningGroup = O;
leftMetricsKey = O;
rightKerningGroup = G;
rightMetricsKey = H;
unicode = 0047;
},
{
glyphname = Gbreve;
lastChange = "2016-09-23 14:49:47 +0000";
layers = (
{
anchors = (
{
name = bottom;
position = "{273, 60}";
},
{
name = center;
position = "{273, 375}";
},
{
name = ogonek;
position = "{473, 15}";
},
{
name = top;
position = "{284, 935}";
},
{
name = topleft;
position = "{51, 645}";
},
{
name = topright;
position = "{494, 645}";
}
);
layerId = "F5421C71-FF83-445B-9C53-783D261A57C9";
paths = (
{
closed = 1;
nodes = (
"335 138 LINE",
"338 68 LINE",
"344 0 LINE",
"461 0 LINE",
"461 330 LINE",
"335 335 LINE"
);
},
{
closed = 1;
nodes = (
"281 371 LINE",
"281 254 LINE",
"359 300 LINE",
"461 300 LINE",
"461 371 LINE"
);
},
{
closed = 1;
nodes = (
"198 344 LINE",
"198 618 LINE",
"297 618 LINE",
"390 494 LINE",
"423 665 LINE",
"375 690 OFFCURVE",
"329 701 OFFCURVE",
"251 701 CURVE",
"102 701 OFFCURVE",
"30 593 OFFCURVE",
"30 344 CURVE"
);
},
{
closed = 1;
nodes = (
"30 90 OFFCURVE",
"93 -11 OFFCURVE",
"231 -11 CURVE",
"330 -11 OFFCURVE",
"353 89 OFFCURVE",
"378 153 CURVE",
"368 228 LINE",
"279 72 LINE",
"198 72 LINE",
"198 344 LINE",
"30 344 LINE"
);
},
{
closed = 1;
nodes = (
"320 911 LINE",
"324 882 OFFCURVE",
"320 828 OFFCURVE",
"312 794 CURVE",
"254 794 LINE",
"248 828 OFFCURVE",
"243 882 OFFCURVE",
"246 911 CURVE",
"165 911 LINE",
"149 849 OFFCURVE",
"179 755 OFFCURVE",
"249 740 CURVE",
"252 740 OFFCURVE",
"309 740 OFFCURVE",
"317 740 CURVE",
"389 755 OFFCURVE",
"419 849 OFFCURVE",
"402 911 CURVE"
);
}
);
width = 518;
},
{
anchors = (
{
name = bottom;
position = "{264, 0}";
},
{
name = center;
position = "{264, 375}";
},
{
name = ogonek;
position = "{464, 15}";
},
{
name = top;
position = "{275, 935}";
},
{
name = topleft;
position = "{42, 645}";
},
{
name = topright;
position = "{485, 645}";
}
);
layerId = "20F347C1-683B-45AE-B240-2F1F38013DFA";
paths = (
{
closed = 1;
nodes = (
"326 138 LINE",
"329 68 LINE",
"335 0 LINE",
"452 0 LINE",
"452 330 LINE",
"326 335 LINE"
);
},
{
closed = 1;
nodes = (
"272 371 LINE",
"272 254 LINE",
"350 300 LINE",
"452 300 LINE",
"452 371 LINE"
);
},
{
closed = 1;
nodes = (
"282 618 LINE",
"381 494 LINE",
"414 665 LINE",
"375 686 OFFCURVE",
"338 696 OFFCURVE",
"282 699 CURVE"
);
},
{
closed = 1;
nodes = (
"192 696 LINE",
"83 696 OFFCURVE",
"30 561 OFFCURVE",
"30 344 CURVE",
"192 344 LINE"
);
},
{
closed = 1;
nodes = (
"192 344 LINE",
"30 344 LINE",
"30 110 OFFCURVE",
"81 -9 OFFCURVE",
"192 -9 CURVE"
);
},
{
closed = 1;
nodes = (
"300 735 LINE",
"303 735 OFFCURVE",
"306 735 OFFCURVE",
"308 735 CURVE",
"380 750 OFFCURVE",
"410 849 OFFCURVE",
"393 914 CURVE",
"311 914 LINE",
"315 885 OFFCURVE",
"311 830 OFFCURVE",
"303 794 CURVE",
"300 794 LINE"
);
},
{
closed = 1;
nodes = (
"243 806 LINE",
"237 842 OFFCURVE",
"234 888 OFFCURVE",
"237 914 CURVE",
"156 914 LINE",
"140 849 OFFCURVE",
"170 750 OFFCURVE",
"240 735 CURVE",
"240 735 OFFCURVE",
"242 735 OFFCURVE",
"243 735 CURVE"
);
}
);
width = 509;
},
{
anchors = (
{
name = bottom;
position = "{257, 0}";
},
{
name = center;
position = "{257, 375}";
},
{
name = ogonek;
position = "{456, 15}";
},
{
name = top;
position = "{267, 935}";
},
{
name = topleft;
position = "{35, 645}";
},
{
name = topright;
position = "{477, 645}";
}
);
layerId = "32EE9563-F6F8-4713-95B2-270CD8F86471";
paths = (
{
closed = 1;
nodes = (
"338 237 LINE",
"330 159 OFFCURVE",
"299 104 OFFCURVE",
"275 75 CURVE",
"233 75 LINE",
"197 86 OFFCURVE",
"176 182 OFFCURVE",
"176 344 CURVE SMOOTH",
"176 474 OFFCURVE",
"197 582 OFFCURVE",
"224 614 CURVE",
"266 614 LINE",
"281 591 OFFCURVE",
"344 551 OFFCURVE",
"377 542 CURVE",
"410 561 OFFCURVE",
"432 593 OFFCURVE",
"440 642 CURVE",
"384 683 OFFCURVE",
"336 696 OFFCURVE",
"281 696 CURVE",
"251 696 LINE",
"72 696 OFFCURVE",
"20 519 OFFCURVE",
"20 344 CURVE SMOOTH",
"20 111 OFFCURVE",
"89 -14 OFFCURVE",
"242 -9 CURVE",
"272 -8 LINE",
"324 9 OFFCURVE",
"396 212 OFFCURVE",
"399 237 CURVE"
);
},
{
closed = 1;
nodes = (
"333 147 LINE",
"332 39 LINE",
"335 -2 LINE",
"351 -14 OFFCURVE",
"402 -18 OFFCURVE",
"446 -8 CURVE",
"464 -2 LINE",
"459 63 LINE",
"458 296 LINE",
"335 335 LINE"
);
},
{
closed = 1;
nodes = (
"413 369 OFFCURVE",
"405 375 OFFCURVE",
"330 375 CURVE SMOOTH",
"314 375 OFFCURVE",
"293 375 OFFCURVE",
"276 375 CURVE",
"270 342 OFFCURVE",
"269 323 OFFCURVE",
"279 290 CURVE",
"369 287 OFFCURVE",
"366 285 OFFCURVE",
"458 290 CURVE",
"458 365 LINE"
);
},
{
closed = 1;
nodes = (
"195 939 OFFCURVE",
"162 936 OFFCURVE",
"146 918 CURVE",
"129 854 OFFCURVE",
"159 767 OFFCURVE",
"230 752 CURVE",
"269 747 OFFCURVE",
"305 746 OFFCURVE",
"323 764 CURVE",
"302 773 OFFCURVE",
"285 783 OFFCURVE",
"272 800 CURVE",
"230 824 OFFCURVE",
"224 881 OFFCURVE",
"222 930 CURVE"
);
},
{
closed = 1;
nodes = (
"311 881 OFFCURVE",
"305 824 OFFCURVE",
"261 800 CURVE",
"248 783 OFFCURVE",
"231 773 OFFCURVE",
"210 764 CURVE",
"228 746 OFFCURVE",
"264 747 OFFCURVE",
"303 752 CURVE",
"375 767 OFFCURVE",
"405 854 OFFCURVE",
"389 918 CURVE",
"374 936 OFFCURVE",
"341 939 OFFCURVE",
"312 930 CURVE"
);
}
);
width = 497;
},
{
anchors = (
{
name = bottom;
position = "{273, 60}";
},
{
name = center;
position = "{273, 375}";
},
{
name = ogonek;
position = "{473, 15}";
},
{
name = top;
position = "{284, 935}";
},
{
name = topleft;
position = "{51, 645}";
},
{
name = topright;
position = "{494, 645}";
}
);
components = (
{
name = G;
},
{
name = brevecomb;
transform = "{1, 0, 0, 1, 160, 127}";
}
);
layerId = "BB1D9E28-2A49-4EEB-AB77-8ACE100BF2E3";
width = 528;
}
);
leftKerningGroup = O;
rightKerningGroup = G;
unicode = 011E;
},
{
glyphname = Gcommaaccent;
lastChange = "2016-09-26 14:55:32 +0000";
layers = (
{
anchors = (
{
name = bottom;
position = "{273, -45}";
},
{
name = center;
position = "{273, 375}";
},
{
name = ogonek;
position = "{473, 15}";
},
{
name = top;
position = "{284, 645}";
},
{
name = topleft;
position = "{51, 645}";
},
{
name = topright;
position = "{494, 645}";
}
);
layerId = "F5421C71-FF83-445B-9C53-783D261A57C9";
paths = (
{
closed = 1;
nodes = (
"335 138 LINE",
"338 68 LINE",
"344 0 LINE",
"461 0 LINE",
"461 330 LINE",
"335 335 LINE"
);
},
{
closed = 1;
nodes = (
"281 371 LINE",
"281 254 LINE",
"359 300 LINE",
"461 300 LINE",
"461 371 LINE"
);
},
{
closed = 1;
nodes = (
"198 344 LINE",
"198 618 LINE",
"297 618 LINE",
"390 494 LINE",
"423 665 LINE",
"375 690 OFFCURVE",
"329 701 OFFCURVE",
"251 701 CURVE",
"102 701 OFFCURVE",
"30 593 OFFCURVE",
"30 344 CURVE"
);
},
{
closed = 1;
nodes = (
"30 90 OFFCURVE",
"93 -11 OFFCURVE",
"231 -11 CURVE",
"330 -11 OFFCURVE",
"353 89 OFFCURVE",
"378 153 CURVE",
"368 228 LINE",
"279 72 LINE",
"198 72 LINE",
"198 344 LINE",
"30 344 LINE"
);
},
{
closed = 1;
nodes = (
"211 -146 LINE",
"189 -252 LINE",
"264 -259 LINE",
"321 -74 LINE",
"223 -65 LINE"
);
}
);
width = 518;
},
{
anchors = (
{
name = bottom;
position = "{264, -105}";
},
{
name = center;
position = "{264, 375}";
},
{
name = ogonek;
position = "{464, 15}";
},
{
name = top;
position = "{275, 645}";
},
{
name = topleft;
position = "{42, 645}";
},
{
name = topright;
position = "{485, 645}";
}
);
layerId = "20F347C1-683B-45AE-B240-2F1F38013DFA";
paths = (
{
closed = 1;
nodes = (
"326 138 LINE",
"329 68 LINE",
"335 0 LINE",
"452 0 LINE",
"452 330 LINE",
"326 335 LINE"
);
},
{
closed = 1;
nodes = (
"272 371 LINE",
"272 254 LINE",
"350 300 LINE",
"452 300 LINE",
"452 371 LINE"
);
},
{
closed = 1;
nodes = (
"282 618 LINE",
"381 494 LINE",
"414 665 LINE",
"375 686 OFFCURVE",
"338 696 OFFCURVE",
"282 699 CURVE"
);
},
{
closed = 1;
nodes = (
"192 696 LINE",
"83 696 OFFCURVE",
"30 561 OFFCURVE",
"30 344 CURVE",
"192 344 LINE"
);
},
{
closed = 1;
nodes = (
"192 344 LINE",
"30 344 LINE",
"30 110 OFFCURVE",
"81 -9 OFFCURVE",
"192 -9 CURVE"
);
},
{
closed = 1;
nodes = (
"202 -206 LINE",
"180 -312 LINE",
"255 -319 LINE",
"312 -134 LINE",
"214 -125 LINE"
);
}
);
width = 509;
},
{
anchors = (
{
name = bottom;
position = "{257, -105}";
},
{
name = center;
position = "{257, 375}";
},
{
name = ogonek;
position = "{456, 15}";
},
{
name = top;
position = "{267, 645}";
},
{
name = topleft;
position = "{35, 645}";
},
{
name = topright;
position = "{477, 645}";
}
);
layerId = "32EE9563-F6F8-4713-95B2-270CD8F86471";
paths = (
{
closed = 1;
nodes = (
"338 237 LINE",
"330 159 OFFCURVE",
"299 104 OFFCURVE",
"275 75 CURVE",
"233 75 LINE",
"197 86 OFFCURVE",
"176 182 OFFCURVE",
"176 344 CURVE SMOOTH",
"176 474 OFFCURVE",
"197 582 OFFCURVE",
"224 614 CURVE",
"266 614 LINE",
"281 591 OFFCURVE",
"344 551 OFFCURVE",
"377 542 CURVE",
"410 561 OFFCURVE",
"432 593 OFFCURVE",
"440 642 CURVE",
"384 683 OFFCURVE",
"336 696 OFFCURVE",
"281 696 CURVE",
"251 696 LINE",
"72 696 OFFCURVE",
"20 519 OFFCURVE",
"20 344 CURVE SMOOTH",
"20 111 OFFCURVE",
"89 -14 OFFCURVE",
"242 -9 CURVE",
"272 -8 LINE",
"324 9 OFFCURVE",
"396 212 OFFCURVE",
"399 237 CURVE"
);
},
{
closed = 1;
nodes = (
"333 147 LINE",
"332 39 LINE",
"335 -2 LINE",
"351 -14 OFFCURVE",
"402 -18 OFFCURVE",
"446 -8 CURVE",
"464 -2 LINE",
"459 63 LINE",
"458 296 LINE",
"335 335 LINE"
);
},
{
closed = 1;
nodes = (
"413 369 OFFCURVE",
"405 375 OFFCURVE",
"330 375 CURVE SMOOTH",
"314 375 OFFCURVE",
"293 375 OFFCURVE",
"276 375 CURVE",
"270 342 OFFCURVE",
"269 323 OFFCURVE",
"279 290 CURVE",
"369 287 OFFCURVE",
"366 285 OFFCURVE",
"458 290 CURVE",
"458 365 LINE"
);
},
{
closed = 1;
nodes = (
"213 -99 OFFCURVE",
"204 -133 OFFCURVE",
"201 -166 CURVE",
"186 -194 OFFCURVE",
"178 -227 OFFCURVE",
"167 -255 CURVE",
"179 -263 OFFCURVE",
"207 -290 OFFCURVE",
"234 -291 CURVE",
"255 -291 LINE",
"276 -264 OFFCURVE",
"293 -214 OFFCURVE",
"317 -93 CURVE",
"300 -85 OFFCURVE",
"272 -78 OFFCURVE",
"244 -80 CURVE",
"232 -82 OFFCURVE",
"224 -83 OFFCURVE",
"218 -86 CURVE"
);
}
);
width = 497;
},
{
anchors = (
{
name = bottom;
position = "{273, -45}";
},
{
name = center;
position = "{273, 375}";
},
{
name = ogonek;
position = "{473, 15}";
},
{
name = top;
position = "{284, 645}";
},
{
name = topleft;
position = "{51, 645}";
},
{
name = topright;
position = "{494, 645}";
}
);
components = (
{
name = G;
},
{
name = commaaccentcomb;
transform = "{1, 0, 0, 1, 190, -70}";
}
);
layerId = "BB1D9E28-2A49-4EEB-AB77-8ACE100BF2E3";
width = 528;
}
);
leftKerningGroup = O;
rightKerningGroup = G;
unicode = 0122;
},
{
glyphname = Gdotaccent;
lastChange = "2016-09-23 14:49:47 +0000";
layers = (
{
anchors = (
{
name = bottom;
position = "{273, 60}";
},
{
name = center;
position = "{273, 375}";
},
{
name = ogonek;
position = "{473, 15}";
},
{
name = top;
position = "{284, 932}";
},
{
name = topleft;
position = "{51, 645}";
},
{
name = topright;
position = "{494, 645}";
}
);
layerId = "F5421C71-FF83-445B-9C53-783D261A57C9";
paths = (
{
closed = 1;
nodes = (
"335 138 LINE",
"338 68 LINE",
"344 0 LINE",
"461 0 LINE",
"461 330 LINE",
"335 335 LINE"
);
},
{
closed = 1;
nodes = (
"281 371 LINE",
"281 254 LINE",
"359 300 LINE",
"461 300 LINE",
"461 371 LINE"
);
},
{
closed = 1;
nodes = (
"198 344 LINE",
"198 618 LINE",
"297 618 LINE",
"390 494 LINE",
"423 665 LINE",
"375 690 OFFCURVE",
"329 701 OFFCURVE",
"251 701 CURVE",
"102 701 OFFCURVE",
"30 593 OFFCURVE",
"30 344 CURVE"
);
},
{
closed = 1;
nodes = (
"30 90 OFFCURVE",
"93 -11 OFFCURVE",
"231 -11 CURVE",
"330 -11 OFFCURVE",
"353 89 OFFCURVE",
"378 153 CURVE",
"368 228 LINE",
"279 72 LINE",
"198 72 LINE",
"198 344 LINE",
"30 344 LINE"
);
},
{
closed = 1;
nodes = (
"347 770 LINE",
"351 897 LINE",
"218 897 LINE",
"219 770 LINE"
);
}
);
width = 518;
},
{
anchors = (
{
name = bottom;
position = "{264, 0}";
},
{
name = center;
position = "{264, 375}";
},
{
name = ogonek;
position = "{464, 15}";
},
{
name = top;
position = "{275, 932}";
},
{
name = topleft;
position = "{42, 645}";
},
{
name = topright;
position = "{485, 645}";
}
);
layerId = "20F347C1-683B-45AE-B240-2F1F38013DFA";
paths = (
{
closed = 1;
nodes = (
"326 138 LINE",
"329 68 LINE",
"335 0 LINE",
"452 0 LINE",
"452 330 LINE",
"326 335 LINE"
);
},
{
closed = 1;
nodes = (
"272 371 LINE",
"272 254 LINE",
"350 300 LINE",
"452 300 LINE",
"452 371 LINE"
);
},
{
closed = 1;
nodes = (
"282 618 LINE",
"381 494 LINE",
"414 665 LINE",
"375 686 OFFCURVE",
"338 696 OFFCURVE",
"282 699 CURVE"
);
},
{
closed = 1;
nodes = (
"192 696 LINE",
"83 696 OFFCURVE",
"30 561 OFFCURVE",
"30 344 CURVE",
"192 344 LINE"
);
},
{
closed = 1;
nodes = (
"192 344 LINE",
"30 344 LINE",
"30 110 OFFCURVE",
"81 -9 OFFCURVE",
"192 -9 CURVE"
);
},
{
closed = 1;
nodes = (
"338 758 LINE",
"342 885 LINE",
"209 885 LINE",
"210 758 LINE"
);
}
);
width = 509;
},
{
anchors = (
{
name = bottom;
position = "{257, 0}";
},
{
name = center;
position = "{257, 375}";
},
{
name = ogonek;
position = "{456, 15}";
},
{
name = top;
position = "{267, 932}";
},
{
name = topleft;
position = "{35, 645}";
},
{
name = topright;
position = "{477, 645}";
}
);
hints = (
{
horizontal = 1;
place = "{1127, 272}";
},
{
place = "{287, 227}";
}
);
layerId = "32EE9563-F6F8-4713-95B2-270CD8F86471";
paths = (
{
closed = 1;
nodes = (
"338 237 LINE",
"330 159 OFFCURVE",
"299 104 OFFCURVE",
"275 75 CURVE",
"233 75 LINE",
"197 86 OFFCURVE",
"176 182 OFFCURVE",
"176 344 CURVE SMOOTH",
"176 474 OFFCURVE",
"197 582 OFFCURVE",
"224 614 CURVE",
"266 614 LINE",
"281 591 OFFCURVE",
"344 551 OFFCURVE",
"377 542 CURVE",
"410 561 OFFCURVE",
"432 593 OFFCURVE",
"440 642 CURVE",
"384 683 OFFCURVE",
"336 696 OFFCURVE",
"281 696 CURVE",
"251 696 LINE",
"72 696 OFFCURVE",
"20 519 OFFCURVE",
"20 344 CURVE SMOOTH",
"20 111 OFFCURVE",
"89 -14 OFFCURVE",
"242 -9 CURVE",
"272 -8 LINE",
"324 9 OFFCURVE",
"396 212 OFFCURVE",
"399 237 CURVE"
);
},
{
closed = 1;
nodes = (
"333 147 LINE",
"332 39 LINE",
"335 -2 LINE",
"351 -14 OFFCURVE",
"402 -18 OFFCURVE",
"446 -8 CURVE",
"464 -2 LINE",
"459 63 LINE",
"458 296 LINE",
"335 335 LINE"
);
},
{
closed = 1;
nodes = (
"413 369 OFFCURVE",
"405 375 OFFCURVE",
"330 375 CURVE SMOOTH",
"314 375 OFFCURVE",
"293 375 OFFCURVE",
"276 375 CURVE",
"270 342 OFFCURVE",
"269 323 OFFCURVE",
"279 290 CURVE",
"369 287 OFFCURVE",
"366 285 OFFCURVE",
"458 290 CURVE",
"458 365 LINE"
);
},
{
closed = 1;
nodes = (
"294 743 OFFCURVE",
"320 767 CURVE",
"342 794 OFFCURVE",
"348 854 OFFCURVE",
"336 890 CURVE",
"318 935 OFFCURVE",
"239 945 OFFCURVE",
"210 914 CURVE",
"186 882 OFFCURVE",
"185 816 OFFCURVE",
"204 779 CURVE",
"225 746 OFFCURVE"
);
}
);
width = 497;
},
{
anchors = (
{
name = bottom;
position = "{273, 60}";
},
{
name = center;
position = "{273, 375}";
},
{
name = ogonek;
position = "{473, 15}";
},
{
name = top;
position = "{284, 932}";
},
{
name = topleft;
position = "{51, 645}";
},
{
name = topright;
position = "{494, 645}";
}
);
components = (
{
name = G;
},
{
name = dotaccentcomb;
transform = "{1, 0, 0, 1, 217, 127}";
}
);
layerId = "BB1D9E28-2A49-4EEB-AB77-8ACE100BF2E3";
width = 528;
}
);
leftKerningGroup = O;
rightKerningGroup = G;
unicode = 0120;
},
{
glyphname = H;
lastChange = "2016-09-26 12:53:27 +0000";
layers = (
{
anchors = (
{
name = bottom;
position = "{284, 0}";
},
{
name = center;
position = "{284, 375}";
},
{
name = top;
position = "{284, 645}";
},
{
name = topleft;
position = "{47, 645}";
}
);
layerId = "F5421C71-FF83-445B-9C53-783D261A57C9";
paths = (
{
closed = 1;
nodes = (
"57 696 LINE",
"57 0 LINE",
"203 0 LINE",
"203 696 LINE"
);
},
{
closed = 1;
nodes = (
"134 303 LINE",
"362 303 LINE",
"362 386 LINE",
"143 386 LINE"
);
},
{
closed = 1;
nodes = (
"353 696 LINE",
"353 0 LINE",
"498 0 LINE",
"498 696 LINE"
);
}
);
width = 555;
},
{
anchors = (
{
name = bottom;
position = "{178, 0}";
},
{
name = center;
position = "{178, 250}";
},
{
name = top;
position = "{178, 430}";
},
{
name = topleft;
position = "{20, 430}";
}
);
associatedMasterId = "F5421C71-FF83-445B-9C53-783D261A57C9";
layerId = "9FB3FD80-701D-441B-904D-19ADDFBFAAA8";
name = "Regular Jul 20 16, 14:34";
paths = (
{
closed = 1;
nodes = (
"27 448 LINE",
"28 428 OFFCURVE",
"29 408 OFFCURVE",
"29 394 CURVE",
"31 260 LINE",
"126 254 LINE",
"124 438 LINE SMOOTH",
"124 460 OFFCURVE",
"92 460 OFFCURVE",
"78 460 CURVE",
"57 460 OFFCURVE",
"42 457 OFFCURVE",
"33 454 CURVE"
);
},
{
closed = 1;
nodes = (
"29 47 LINE",
"26 0 LINE",
"41 -3 OFFCURVE",
"81 0 OFFCURVE",
"108 0 CURVE",
"124 0 LINE",
"126 254 LINE",
"31 280 LINE"
);
},
{
closed = 1;
nodes = (
"30 197 LINE",
"91 194 OFFCURVE",
"183 195 OFFCURVE",
"232 197 CURVE",
"239 219 OFFCURVE",
"246 240 OFFCURVE",
"239 262 CURVE",
"228 262 OFFCURVE",
"212 262 OFFCURVE",
"201 262 CURVE SMOOTH",
"162 262 OFFCURVE",
"125 256 OFFCURVE",
"75 259 CURVE"
);
},
{
closed = 1;
nodes = (
"235 448 LINE",
"235 428 OFFCURVE",
"234 357 OFFCURVE",
"234 343 CURVE",
"234 260 LINE",
"329 254 LINE",
"329 438 LINE SMOOTH",
"329 460 OFFCURVE",
"301 460 OFFCURVE",
"287 460 CURVE",
"266 460 OFFCURVE",
"250 457 OFFCURVE",
"241 454 CURVE"
);
},
{
closed = 1;
nodes = (
"230 47 LINE",
"232 0 LINE",
"247 -3 OFFCURVE",
"286 0 OFFCURVE",
"313 0 CURVE",
"329 0 LINE",
"329 254 LINE",
"234 280 LINE"
);
}
);
width = 355;
},
{
anchors = (
{
name = bottom;
position = "{284, 0}";
},
{
name = center;
position = "{284, 375}";
},
{
name = top;
position = "{284, 645}";
},
{
name = topleft;
position = "{47, 645}";
}
);
layerId = "20F347C1-683B-45AE-B240-2F1F38013DFA";
paths = (
{
closed = 1;
nodes = (
"57 357 LINE",
"57 0 LINE",
"203 0 LINE",
"203 357 LINE"
);
},
{
closed = 1;
nodes = (
"353 251 LINE",
"353 0 LINE",
"498 0 LINE",
"498 251 LINE"
);
},
{
closed = 1;
nodes = (
"498 386 LINE",
"57 386 LINE",
"57 303 LINE",
"498 303 LINE"
);
},
{
closed = 1;
nodes = (
"498 311 LINE",
"498 696 LINE",
"353 696 LINE",
"353 311 LINE"
);
},
{
closed = 1;
nodes = (
"203 447 LINE",
"203 696 LINE",
"57 696 LINE",
"57 447 LINE"
);
}
);
width = 555;
},
{
anchors = (
{
name = bottom;
position = "{267, 0}";
},
{
name = center;
position = "{267, 375}";
},
{
name = top;
position = "{267, 645}";
},
{
name = topleft;
position = "{30, 645}";
}
);
layerId = "32EE9563-F6F8-4713-95B2-270CD8F86471";
paths = (
{
closed = 1;
nodes = (
"41 672 LINE",
"42 642 OFFCURVE",
"44 612 OFFCURVE",
"44 591 CURVE",
"47 390 LINE",
"189 381 LINE",
"186 657 LINE SMOOTH",
"186 690 OFFCURVE",
"138 690 OFFCURVE",
"117 690 CURVE",
"86 690 OFFCURVE",
"63 686 OFFCURVE",
"50 681 CURVE"
);
},
{
closed = 1;
nodes = (
"44 71 LINE",
"42 0 LINE",
"65 -5 OFFCURVE",
"122 -3 OFFCURVE",
"162 -3 CURVE",
"186 0 LINE",
"189 381 LINE",
"47 420 LINE"
);
},
{
closed = 1;
nodes = (
"45 296 LINE",
"137 291 OFFCURVE",
"279 293 OFFCURVE",
"353 296 CURVE",
"363 329 OFFCURVE",
"369 360 OFFCURVE",
"359 393 CURVE",
"342 393 OFFCURVE",
"318 393 OFFCURVE",
"302 393 CURVE SMOOTH",
"243 393 OFFCURVE",
"188 384 OFFCURVE",
"113 389 CURVE"
);
},
{
closed = 1;
nodes = (
"353 672 LINE",
"353 642 OFFCURVE",
"351 536 OFFCURVE",
"351 515 CURVE",
"351 390 LINE",
"494 381 LINE",
"494 657 LINE SMOOTH",
"494 690 OFFCURVE",
"452 690 OFFCURVE",
"431 690 CURVE",
"399 690 OFFCURVE",
"375 686 OFFCURVE",
"362 681 CURVE"
);
},
{
closed = 1;
nodes = (
"348 71 LINE",
"350 0 LINE",
"372 -5 OFFCURVE",
"429 -3 OFFCURVE",
"440 -3 CURVE",
"494 0 LINE",
"494 381 LINE",
"351 420 LINE"
);
}
);
width = 533;
},
{
anchors = (
{
name = bottom;
position = "{284, 0}";
},
{
name = center;
position = "{284, 375}";
},
{
name = top;
position = "{284, 645}";
},
{
name = topleft;
position = "{47, 645}";
}
);
layerId = "BB1D9E28-2A49-4EEB-AB77-8ACE100BF2E3";
paths = (
{
closed = 1;
nodes = (
"321 390 LINE",
"225 390 LINE",
"225 696 LINE",
"35 696 LINE",
"35 -4 LINE",
"225 -4 LINE",
"225 299 LINE",
"321 299 LINE",
"321 -4 LINE",
"510 -4 LINE",
"510 696 LINE",
"321 696 LINE"
);
}
);
width = 545;
},
{
anchors = (
{
name = bottom;
position = "{178, 0}";
},
{
name = center;
position = "{178, 250}";
},
{
name = top;
position = "{178, 430}";
},
{
name = topleft;
position = "{20, 430}";
}
);
associatedMasterId = "BB1D9E28-2A49-4EEB-AB77-8ACE100BF2E3";
layerId = "395C7EBD-5D87-43D2-B8AD-448C23BE6DAD";
name = "Regular Jul 20 16, 14:34";
paths = (
{
closed = 1;
nodes = (
"27 448 LINE",
"28 428 OFFCURVE",
"29 408 OFFCURVE",
"29 394 CURVE",
"31 260 LINE",
"126 254 LINE",
"124 438 LINE SMOOTH",
"124 460 OFFCURVE",
"92 460 OFFCURVE",
"78 460 CURVE",
"57 460 OFFCURVE",
"42 457 OFFCURVE",
"33 454 CURVE"
);
},
{
closed = 1;
nodes = (
"29 47 LINE",
"26 0 LINE",
"41 -3 OFFCURVE",
"81 0 OFFCURVE",
"108 0 CURVE",
"124 0 LINE",
"126 254 LINE",
"31 280 LINE"
);
},
{
closed = 1;
nodes = (
"30 197 LINE",
"91 194 OFFCURVE",
"183 195 OFFCURVE",
"232 197 CURVE",
"239 219 OFFCURVE",
"246 240 OFFCURVE",
"239 262 CURVE",
"228 262 OFFCURVE",
"212 262 OFFCURVE",
"201 262 CURVE SMOOTH",
"162 262 OFFCURVE",
"125 256 OFFCURVE",
"75 259 CURVE"
);
},
{
closed = 1;
nodes = (
"235 448 LINE",
"235 428 OFFCURVE",
"234 357 OFFCURVE",
"234 343 CURVE",
"234 260 LINE",
"329 254 LINE",
"329 438 LINE SMOOTH",
"329 460 OFFCURVE",
"301 460 OFFCURVE",
"287 460 CURVE",
"266 460 OFFCURVE",
"250 457 OFFCURVE",
"241 454 CURVE"
);
},
{
closed = 1;
nodes = (
"230 47 LINE",
"232 0 LINE",
"247 -3 OFFCURVE",
"286 0 OFFCURVE",
"313 0 CURVE",
"329 0 LINE",
"329 254 LINE",
"234 280 LINE"
);
}
);
width = 355;
}
);
leftKerningGroup = H;
rightKerningGroup = H;
unicode = 0048;
},
{
glyphname = Hbar;
lastChange = "2016-09-26 08:39:46 +0000";
layers = (
{
anchors = (
{
name = bottom;
position = "{342, 0}";
},
{
name = center;
position = "{342, 375}";
},
{
name = top;
position = "{342, 645}";
},
{
name = topleft;
position = "{105, 645}";
}
);
layerId = "F5421C71-FF83-445B-9C53-783D261A57C9";
paths = (
{
closed = 1;
nodes = (
"116 696 LINE",
"116 0 LINE",
"261 0 LINE",
"261 696 LINE"
);
},
{
closed = 1;
nodes = (
"192 303 LINE",
"420 303 LINE",
"420 386 LINE",
"201 386 LINE"
);
},
{
closed = 1;
nodes = (
"411 696 LINE",
"411 0 LINE",
"557 0 LINE",
"557 696 LINE"
);
},
{
closed = 1;
nodes = (
"57 482 LINE",
"615 482 LINE",
"615 564 LINE",
"57 564 LINE"
);
}
);
width = 672;
},
{
anchors = (
{
name = bottom;
position = "{284, 0}";
},
{
name = center;
position = "{284, 375}";
},
{
name = top;
position = "{284, 645}";
},
{
name = topleft;
position = "{47, 645}";
}
);
layerId = "20F347C1-683B-45AE-B240-2F1F38013DFA";
paths = (
{
closed = 1;
nodes = (
"57 357 LINE",
"57 0 LINE",
"203 0 LINE",
"203 357 LINE"
);
},
{
closed = 1;
nodes = (
"353 251 LINE",
"353 0 LINE",
"498 0 LINE",
"498 251 LINE"
);
},
{
closed = 1;
nodes = (
"498 386 LINE",
"57 386 LINE",
"57 303 LINE",
"498 303 LINE"
);
},
{
closed = 1;
nodes = (
"498 311 LINE",
"498 696 LINE",
"353 696 LINE",
"353 311 LINE"
);
},
{
closed = 1;
nodes = (
"203 447 LINE",
"203 696 LINE",
"57 696 LINE",
"57 447 LINE"
);
}
);
width = 555;
},
{
anchors = (
{
name = bottom;
position = "{267, 0}";
},
{
name = center;
position = "{267, 375}";
},
{
name = top;
position = "{267, 645}";
},
{
name = topleft;
position = "{30, 645}";
}
);
layerId = "32EE9563-F6F8-4713-95B2-270CD8F86471";
paths = (
{
closed = 1;
nodes = (
"41 672 LINE",
"42 642 OFFCURVE",
"44 612 OFFCURVE",
"44 591 CURVE",
"47 390 LINE",
"189 381 LINE",
"186 657 LINE SMOOTH",
"186 690 OFFCURVE",
"138 690 OFFCURVE",
"117 690 CURVE",
"86 690 OFFCURVE",
"63 686 OFFCURVE",
"50 681 CURVE"
);
},
{
closed = 1;
nodes = (
"44 71 LINE",
"42 0 LINE",
"65 -5 OFFCURVE",
"122 -3 OFFCURVE",
"162 -3 CURVE",
"186 0 LINE",
"189 381 LINE",
"47 420 LINE"
);
},
{
closed = 1;
nodes = (
"45 296 LINE",
"137 291 OFFCURVE",
"279 293 OFFCURVE",
"353 296 CURVE",
"363 329 OFFCURVE",
"369 360 OFFCURVE",
"359 393 CURVE",
"342 393 OFFCURVE",
"318 393 OFFCURVE",
"302 393 CURVE SMOOTH",
"243 393 OFFCURVE",
"188 384 OFFCURVE",
"113 389 CURVE"
);
},
{
closed = 1;
nodes = (
"353 672 LINE",
"353 642 OFFCURVE",
"351 536 OFFCURVE",
"351 515 CURVE",
"351 390 LINE",
"494 381 LINE",
"494 657 LINE SMOOTH",
"494 690 OFFCURVE",
"452 690 OFFCURVE",
"431 690 CURVE",
"399 690 OFFCURVE",
"375 686 OFFCURVE",
"362 681 CURVE"
);
},
{
closed = 1;
nodes = (
"348 71 LINE",
"350 0 LINE",
"372 -5 OFFCURVE",
"429 -3 OFFCURVE",
"440 -3 CURVE",
"494 0 LINE",
"494 381 LINE",
"351 420 LINE"
);
}
);
width = 900;
},
{
anchors = (
{
name = bottom;
position = "{399, 0}";
},
{
name = center;
position = "{399, 375}";
},
{
name = top;
position = "{399, 645}";
},
{
name = topleft;
position = "{162, 645}";
}
);
components = (
{
name = H;
},
{
name = strokelongcomb;
transform = "{1, 0, 0, 1, 57, 0}";
}
);
layerId = "BB1D9E28-2A49-4EEB-AB77-8ACE100BF2E3";
width = 672;
}
);
leftKerningGroup = H;
leftMetricsKey = H;
rightKerningGroup = H;
rightMetricsKey = H;
unicode = 0126;
},
{
glyphname = I;
lastChange = "2016-09-26 19:45:52 +0000";
layers = (
{
anchors = (
{
name = bottom;
position = "{129, 0}";
},
{
name = ogonek;
position = "{189, 15}";
},
{
name = top;
position = "{129, 645}";
},
{
name = topleft;
position = "{47, 645}";
}
);
layerId = "F5421C71-FF83-445B-9C53-783D261A57C9";
paths = (
{
closed = 1;
nodes = (
"203 696 LINE",
"57 696 LINE",
"57 0 LINE",
"203 0 LINE"
);
}
);
width = 260;
},
{
anchors = (
{
name = bottom;
position = "{129, 0}";
},
{
name = ogonek;
position = "{189, 15}";
},
{
name = top;
position = "{129, 645}";
},
{
name = topleft;
position = "{47, 645}";
}
);
layerId = "20F347C1-683B-45AE-B240-2F1F38013DFA";
paths = (
{
closed = 1;
nodes = (
"203 696 LINE",
"57 696 LINE",
"57 0 LINE",
"203 0 LINE"
);
}
);
width = 260;
},
{
anchors = (
{
name = bottom;
position = "{114, 0}";
},
{
name = ogonek;
position = "{174, 15}";
},
{
name = top;
position = "{114, 645}";
},
{
name = topleft;
position = "{32, 645}";
}
);
layerId = "32EE9563-F6F8-4713-95B2-270CD8F86471";
paths = (
{
closed = 1;
nodes = (
"41 665 LINE",
"42 635 OFFCURVE",
"42 605 OFFCURVE",
"42 587 CURVE",
"44 390 LINE",
"186 381 LINE",
"186 650 LINE SMOOTH",
"186 663 OFFCURVE",
"180 671 OFFCURVE",
"171 677 CURVE",
"152 683 OFFCURVE",
"138 683 OFFCURVE",
"117 683 CURVE",
"86 683 OFFCURVE",
"63 678 OFFCURVE",
"50 674 CURVE"
);
},
{
closed = 1;
nodes = (
"41 71 LINE",
"42 0 LINE",
"65 -5 OFFCURVE",
"98 -6 OFFCURVE",
"137 -6 CURVE",
"188 0 LINE",
"186 381 LINE",
"44 420 LINE"
);
}
);
width = 227;
},
{
anchors = (
{
name = bottom;
position = "{129, 0}";
},
{
name = ogonek;
position = "{249, 15}";
},
{
name = top;
position = "{129, 645}";
},
{
name = topleft;
position = "{47, 645}";
}
);
layerId = "BB1D9E28-2A49-4EEB-AB77-8ACE100BF2E3";
paths = (
{
closed = 1;
nodes = (
"225 696 LINE",
"35 696 LINE",
"35 -4 LINE",
"225 -4 LINE"
);
}
);
width = 260;
}
);
leftKerningGroup = H;
leftMetricsKey = H;
rightKerningGroup = H;
rightMetricsKey = H;
unicode = 0049;
},
{
glyphname = Iacute;
lastChange = "2016-09-23 14:49:47 +0000";
layers = (
{
anchors = (
{
name = bottom;
position = "{129, 0}";
},
{
name = ogonek;
position = "{189, 15}";
},
{
name = top;
position = "{129, 645}";
},
{
name = topleft;
position = "{47, 645}";
}
);
layerId = "F5421C71-FF83-445B-9C53-783D261A57C9";
paths = (
{
closed = 1;
nodes = (
"203 696 LINE",
"57 696 LINE",
"57 0 LINE",
"203 0 LINE"
);
},
{
closed = 1;
nodes = (
"177 740 LINE",
"224 911 LINE",
"101 911 LINE",
"96 833 LINE",
"89 740 LINE"
);
}
);
width = 260;
},
{
anchors = (
{
name = bottom;
position = "{129, 0}";
},
{
name = ogonek;
position = "{189, 15}";
},
{
name = top;
position = "{129, 645}";
},
{
name = topleft;
position = "{47, 645}";
}
);
layerId = "20F347C1-683B-45AE-B240-2F1F38013DFA";
paths = (
{
closed = 1;
nodes = (
"203 696 LINE",
"57 696 LINE",
"57 0 LINE",
"203 0 LINE"
);
},
{
closed = 1;
nodes = (
"177 740 LINE",
"224 911 LINE",
"101 911 LINE",
"96 833 LINE",
"89 740 LINE"
);
}
);
width = 260;
},
{
anchors = (
{
name = bottom;
position = "{114, 0}";
},
{
name = ogonek;
position = "{174, 15}";
},
{
name = top;
position = "{114, 645}";
},
{
name = topleft;
position = "{32, 645}";
}
);
layerId = "32EE9563-F6F8-4713-95B2-270CD8F86471";
paths = (
{
closed = 1;
nodes = (
"41 665 LINE",
"42 635 OFFCURVE",
"42 605 OFFCURVE",
"42 587 CURVE",
"44 390 LINE",
"186 381 LINE",
"186 650 LINE SMOOTH",
"186 663 OFFCURVE",
"180 671 OFFCURVE",
"171 677 CURVE",
"152 683 OFFCURVE",
"138 683 OFFCURVE",
"117 683 CURVE",
"86 683 OFFCURVE",
"63 678 OFFCURVE",
"50 674 CURVE"
);
},
{
closed = 1;
nodes = (
"41 71 LINE",
"42 0 LINE",
"65 -5 OFFCURVE",
"98 -6 OFFCURVE",
"137 -6 CURVE",
"188 0 LINE",
"186 381 LINE",
"44 420 LINE"
);
},
{
closed = 1;
nodes = (
"120 746 OFFCURVE",
"144 755 CURVE",
"173 797 OFFCURVE",
"195 875 OFFCURVE",
"203 908 CURVE",
"194 932 OFFCURVE",
"140 939 OFFCURVE",
"105 933 CURVE",
"99 933 OFFCURVE",
"95 930 OFFCURVE",
"89 917 CURVE",
"77 882 OFFCURVE",
"69 815 OFFCURVE",
"68 767 CURVE",
"83 749 OFFCURVE"
);
}
);
width = 227;
},
{
anchors = (
{
name = bottom;
position = "{129, 0}";
},
{
name = ogonek;
position = "{189, 15}";
},
{
name = top;
position = "{129, 645}";
},
{
name = topleft;
position = "{47, 645}";
}
);
components = (
{
name = I;
},
{
name = acutecomb;
transform = "{1, 0, 0, 1, 61, 127}";
}
);
layerId = "BB1D9E28-2A49-4EEB-AB77-8ACE100BF2E3";
width = 260;
}
);
leftKerningGroup = H;
rightKerningGroup = H;
unicode = 00CD;
},
{
glyphname = Icircumflex;
lastChange = "2016-09-23 14:49:47 +0000";
layers = (
{
anchors = (
{
name = bottom;
position = "{129, 0}";
},
{
name = ogonek;
position = "{189, 15}";
},
{
name = top;
position = "{129, 645}";
},
{
name = topleft;
position = "{47, 645}";
}
);
layerId = "F5421C71-FF83-445B-9C53-783D261A57C9";
paths = (
{
closed = 1;
nodes = (
"203 696 LINE",
"57 696 LINE",
"57 0 LINE",
"203 0 LINE"
);
},
{
closed = 1;
nodes = (
"75 740 LINE",
"120 842 LINE",
"165 911 LINE",
"42 911 LINE",
"15 839 LINE",
"-14 740 LINE"
);
},
{
closed = 1;
nodes = (
"240 839 LINE",
"213 911 LINE",
"90 911 LINE",
"135 842 LINE",
"180 740 LINE",
"269 740 LINE"
);
}
);
width = 260;
},
{
anchors = (
{
name = bottom;
position = "{129, 0}";
},
{
name = ogonek;
position = "{189, 15}";
},
{
name = top;
position = "{129, 645}";
},
{
name = topleft;
position = "{47, 645}";
}
);
layerId = "20F347C1-683B-45AE-B240-2F1F38013DFA";
paths = (
{
closed = 1;
nodes = (
"203 696 LINE",
"57 696 LINE",
"57 0 LINE",
"203 0 LINE"
);
},
{
closed = 1;
nodes = (
"182 737 LINE",
"270 737 LINE",
"233 842 LINE",
"206 914 LINE",
"147 914 LINE",
"147 827 LINE"
);
},
{
closed = 1;
nodes = (
"51 914 LINE",
"24 842 LINE",
"-12 737 LINE",
"77 737 LINE",
"111 825 LINE",
"111 914 LINE"
);
}
);
width = 260;
},
{
anchors = (
{
name = bottom;
position = "{114, 0}";
},
{
name = ogonek;
position = "{174, 15}";
},
{
name = top;
position = "{114, 645}";
},
{
name = topleft;
position = "{32, 645}";
}
);
layerId = "32EE9563-F6F8-4713-95B2-270CD8F86471";
paths = (
{
closed = 1;
nodes = (
"41 665 LINE",
"42 635 OFFCURVE",
"42 605 OFFCURVE",
"42 587 CURVE",
"44 390 LINE",
"186 381 LINE",
"186 650 LINE SMOOTH",
"186 663 OFFCURVE",
"180 671 OFFCURVE",
"171 677 CURVE",
"152 683 OFFCURVE",
"138 683 OFFCURVE",
"117 683 CURVE",
"86 683 OFFCURVE",
"63 678 OFFCURVE",
"50 674 CURVE"
);
},
{
closed = 1;
nodes = (
"41 71 LINE",
"42 0 LINE",
"65 -5 OFFCURVE",
"98 -6 OFFCURVE",
"137 -6 CURVE",
"188 0 LINE",
"186 381 LINE",
"44 420 LINE"
);
},
{
closed = 1;
nodes = (
"197 746 OFFCURVE",
"227 749 OFFCURVE",
"242 767 CURVE",
"222 831 OFFCURVE",
"179 918 OFFCURVE",
"161 933 CURVE",
"114 938 OFFCURVE",
"66 932 OFFCURVE",
"69 933 CURVE",
"95 890 OFFCURVE",
"132 819 OFFCURVE",
"167 755 CURVE"
);
},
{
closed = 1;
nodes = (
"87 819 OFFCURVE",
"125 890 OFFCURVE",
"149 933 CURVE",
"152 932 OFFCURVE",
"102 938 OFFCURVE",
"57 933 CURVE",
"38 918 OFFCURVE",
"0 831 OFFCURVE",
"-20 767 CURVE",
"-5 749 OFFCURVE",
"26 746 OFFCURVE",
"56 755 CURVE"
);
}
);
width = 227;
},
{
anchors = (
{
name = bottom;
position = "{129, 0}";
},
{
name = ogonek;
position = "{189, 15}";
},
{
name = top;
position = "{129, 645}";
},
{
name = topleft;
position = "{47, 645}";
}
);
components = (
{
name = I;
},
{
name = circumflexcomb;
transform = "{1, 0, 0, 1, -2, 127}";
}
);
layerId = "BB1D9E28-2A49-4EEB-AB77-8ACE100BF2E3";
width = 260;
}
);
leftKerningGroup = H;
rightKerningGroup = H;
unicode = 00CE;
},
{
glyphname = Idieresis;
lastChange = "2016-09-23 14:49:47 +0000";
layers = (
{
anchors = (
{
name = bottom;
position = "{129, 0}";
},
{
name = ogonek;
position = "{189, 15}";
},
{
name = top;
position = "{129, 645}";
},
{
name = topleft;
position = "{47, 645}";
}
);
layerId = "F5421C71-FF83-445B-9C53-783D261A57C9";
paths = (
{
closed = 1;
nodes = (
"203 696 LINE",
"57 696 LINE",
"57 0 LINE",
"203 0 LINE"
);
},
{
closed = 1;
nodes = (
"104 767 LINE",
"108 894 LINE",
"-26 894 LINE",
"-24 767 LINE"
);
},
{
closed = 1;
nodes = (
"284 767 LINE",
"288 894 LINE",
"155 894 LINE",
"156 767 LINE"
);
}
);
width = 260;
},
{
anchors = (
{
name = bottom;
position = "{129, 0}";
},
{
name = ogonek;
position = "{189, 15}";
},
{
name = top;
position = "{129, 645}";
},
{
name = topleft;
position = "{47, 645}";
}
);
layerId = "20F347C1-683B-45AE-B240-2F1F38013DFA";
paths = (
{
closed = 1;
nodes = (
"203 696 LINE",
"57 696 LINE",
"57 0 LINE",
"203 0 LINE"
);
},
{
closed = 1;
nodes = (
"104 788 LINE",
"108 915 LINE",
"-26 915 LINE",
"-24 788 LINE"
);
},
{
closed = 1;
nodes = (
"284 788 LINE",
"288 915 LINE",
"155 915 LINE",
"156 788 LINE"
);
}
);
width = 260;
},
{
anchors = (
{
name = bottom;
position = "{114, 0}";
},
{
name = ogonek;
position = "{174, 15}";
},
{
name = top;
position = "{114, 645}";
},
{
name = topleft;
position = "{32, 645}";
}
);
layerId = "32EE9563-F6F8-4713-95B2-270CD8F86471";
paths = (
{
closed = 1;
nodes = (
"41 665 LINE",
"42 635 OFFCURVE",
"42 605 OFFCURVE",
"42 587 CURVE",
"44 390 LINE",
"186 381 LINE",
"186 650 LINE SMOOTH",
"186 663 OFFCURVE",
"180 671 OFFCURVE",
"171 677 CURVE",
"152 683 OFFCURVE",
"138 683 OFFCURVE",
"117 683 CURVE",
"86 683 OFFCURVE",
"63 678 OFFCURVE",
"50 674 CURVE"
);
},
{
closed = 1;
nodes = (
"41 71 LINE",
"42 0 LINE",
"65 -5 OFFCURVE",
"98 -6 OFFCURVE",
"137 -6 CURVE",
"188 0 LINE",
"186 381 LINE",
"44 420 LINE"
);
},
{
closed = 1;
nodes = (
"36 749 OFFCURVE",
"60 771 CURVE",
"81 797 OFFCURVE",
"87 854 OFFCURVE",
"77 887 CURVE",
"59 929 OFFCURVE",
"-17 939 OFFCURVE",
"-42 909 CURVE",
"-66 879 OFFCURVE",
"-66 818 OFFCURVE",
"-48 782 CURVE",
"-29 752 OFFCURVE"
);
},
{
closed = 1;
nodes = (
"249 749 OFFCURVE",
"273 771 CURVE",
"294 797 OFFCURVE",
"299 854 OFFCURVE",
"288 887 CURVE",
"272 929 OFFCURVE",
"197 939 OFFCURVE",
"170 909 CURVE",
"147 879 OFFCURVE",
"146 818 OFFCURVE",
"164 782 CURVE",
"183 752 OFFCURVE"
);
}
);
width = 227;
},
{
anchors = (
{
name = bottom;
position = "{129, 0}";
},
{
name = ogonek;
position = "{189, 15}";
},
{
name = top;
position = "{129, 645}";
},
{
name = topleft;
position = "{47, 645}";
}
);
components = (
{
name = I;
},
{
name = dieresiscomb;
transform = "{1, 0, 0, 1, -60, 127}";
}
);
layerId = "BB1D9E28-2A49-4EEB-AB77-8ACE100BF2E3";
width = 260;
}
);
leftKerningGroup = H;
rightKerningGroup = H;
unicode = 00CF;
},
{
glyphname = Idotaccent;
lastChange = "2016-09-23 14:49:47 +0000";
layers = (
{
anchors = (
{
name = bottom;
position = "{129, 0}";
},
{
name = ogonek;
position = "{189, 15}";
},
{
name = top;
position = "{129, 932}";
},
{
name = topleft;
position = "{47, 645}";
}
);
layerId = "F5421C71-FF83-445B-9C53-783D261A57C9";
paths = (
{
closed = 1;
nodes = (
"203 696 LINE",
"57 696 LINE",
"57 0 LINE",
"203 0 LINE"
);
},
{
closed = 1;
nodes = (
"192 770 LINE",
"197 897 LINE",
"63 897 LINE",
"65 770 LINE"
);
}
);
width = 260;
},
{
anchors = (
{
name = bottom;
position = "{129, 0}";
},
{
name = ogonek;
position = "{189, 15}";
},
{
name = top;
position = "{129, 932}";
},
{
name = topleft;
position = "{47, 645}";
}
);
layerId = "20F347C1-683B-45AE-B240-2F1F38013DFA";
paths = (
{
closed = 1;
nodes = (
"203 696 LINE",
"57 696 LINE",
"57 0 LINE",
"203 0 LINE"
);
},
{
closed = 1;
nodes = (
"192 758 LINE",
"197 885 LINE",
"63 885 LINE",
"65 758 LINE"
);
}
);
width = 260;
},
{
anchors = (
{
name = bottom;
position = "{114, 0}";
},
{
name = ogonek;
position = "{174, 15}";
},
{
name = top;
position = "{114, 932}";
},
{
name = topleft;
position = "{32, 645}";
}
);
hints = (
{
horizontal = 1;
place = "{1127, 272}";
},
{
place = "{57, 227}";
}
);
layerId = "32EE9563-F6F8-4713-95B2-270CD8F86471";
paths = (
{
closed = 1;
nodes = (
"41 665 LINE",
"42 635 OFFCURVE",
"42 605 OFFCURVE",
"42 587 CURVE",
"44 390 LINE",
"186 381 LINE",
"186 650 LINE SMOOTH",
"186 663 OFFCURVE",
"180 671 OFFCURVE",
"171 677 CURVE",
"152 683 OFFCURVE",
"138 683 OFFCURVE",
"117 683 CURVE",
"86 683 OFFCURVE",
"63 678 OFFCURVE",
"50 674 CURVE"
);
},
{
closed = 1;
nodes = (
"41 71 LINE",
"42 0 LINE",
"65 -5 OFFCURVE",
"98 -6 OFFCURVE",
"137 -6 CURVE",
"188 0 LINE",
"186 381 LINE",
"44 420 LINE"
);
},
{
closed = 1;
nodes = (
"141 743 OFFCURVE",
"167 767 CURVE",
"189 794 OFFCURVE",
"195 854 OFFCURVE",
"183 890 CURVE",
"165 935 OFFCURVE",
"86 945 OFFCURVE",
"57 914 CURVE",
"33 882 OFFCURVE",
"32 816 OFFCURVE",
"51 779 CURVE",
"72 746 OFFCURVE"
);
}
);
width = 227;
},
{
anchors = (
{
name = bottom;
position = "{129, 0}";
},
{
name = ogonek;
position = "{189, 15}";
},
{
name = top;
position = "{129, 932}";
},
{
name = topleft;
position = "{47, 645}";
}
);
components = (
{
name = I;
},
{
name = dotaccentcomb;
transform = "{1, 0, 0, 1, 52, 127}";
}
);
layerId = "BB1D9E28-2A49-4EEB-AB77-8ACE100BF2E3";
width = 260;
}
);
leftKerningGroup = H;
rightKerningGroup = H;
unicode = 0130;
},
{
glyphname = Igrave;
lastChange = "2016-09-23 14:49:47 +0000";
layers = (
{
anchors = (
{
name = bottom;
position = "{129, 0}";
},
{
name = ogonek;
position = "{189, 15}";
},
{
name = top;
position = "{129, 645}";
},
{
name = topleft;
position = "{47, 645}";
}
);
layerId = "F5421C71-FF83-445B-9C53-783D261A57C9";
paths = (
{
closed = 1;
nodes = (
"203 696 LINE",
"57 696 LINE",
"57 0 LINE",
"203 0 LINE"
);
},
{
closed = 1;
nodes = (
"159 833 LINE",
"158 911 LINE",
"35 911 LINE",
"54 836 LINE",
"84 740 LINE",
"173 740 LINE"
);
}
);
width = 260;
},
{
anchors = (
{
name = bottom;
position = "{129, 0}";
},
{
name = ogonek;
position = "{189, 15}";
},
{
name = top;
position = "{129, 645}";
},
{
name = topleft;
position = "{47, 645}";
}
);
layerId = "20F347C1-683B-45AE-B240-2F1F38013DFA";
paths = (
{
closed = 1;
nodes = (
"203 696 LINE",
"57 696 LINE",
"57 0 LINE",
"203 0 LINE"
);
},
{
closed = 1;
nodes = (
"159 848 LINE",
"158 932 LINE",
"35 932 LINE",
"54 851 LINE",
"84 755 LINE",
"173 755 LINE"
);
}
);
width = 260;
},
{
anchors = (
{
name = bottom;
position = "{114, 0}";
},
{
name = ogonek;
position = "{174, 15}";
},
{
name = top;
position = "{114, 645}";
},
{
name = topleft;
position = "{32, 645}";
}
);
layerId = "32EE9563-F6F8-4713-95B2-270CD8F86471";
paths = (
{
closed = 1;
nodes = (
"41 665 LINE",
"42 635 OFFCURVE",
"42 605 OFFCURVE",
"42 587 CURVE",
"44 390 LINE",
"186 381 LINE",
"186 650 LINE SMOOTH",
"186 663 OFFCURVE",
"180 671 OFFCURVE",
"171 677 CURVE",
"152 683 OFFCURVE",
"138 683 OFFCURVE",
"117 683 CURVE",
"86 683 OFFCURVE",
"63 678 OFFCURVE",
"50 674 CURVE"
);
},
{
closed = 1;
nodes = (
"41 71 LINE",
"42 0 LINE",
"65 -5 OFFCURVE",
"98 -6 OFFCURVE",
"137 -6 CURVE",
"188 0 LINE",
"186 381 LINE",
"44 420 LINE"
);
},
{
closed = 1;
nodes = (
"159 767 CURVE",
"158 815 OFFCURVE",
"156 882 OFFCURVE",
"138 917 CURVE",
"132 930 OFFCURVE",
"128 933 OFFCURVE",
"122 933 CURVE",
"87 939 OFFCURVE",
"33 932 OFFCURVE",
"24 908 CURVE",
"32 875 OFFCURVE",
"54 797 OFFCURVE",
"83 755 CURVE",
"107 746 OFFCURVE",
"144 749 OFFCURVE"
);
}
);
width = 227;
},
{
anchors = (
{
name = bottom;
position = "{129, 0}";
},
{
name = ogonek;
position = "{189, 15}";
},
{
name = top;
position = "{129, 645}";
},
{
name = topleft;
position = "{47, 645}";
}
);
components = (
{
name = I;
},
{
name = gravecomb;
transform = "{1, 0, 0, 1, 61, 127}";
}
);
layerId = "BB1D9E28-2A49-4EEB-AB77-8ACE100BF2E3";
width = 260;
}
);
leftKerningGroup = H;
rightKerningGroup = H;
unicode = 00CC;
},
{
glyphname = Imacron;
lastChange = "2016-09-23 14:49:47 +0000";
layers = (
{
anchors = (
{
name = bottom;
position = "{129, 0}";
},
{
name = ogonek;
position = "{189, 15}";
},
{
name = top;
position = "{129, 645}";
},
{
name = topleft;
position = "{47, 645}";
}
);
layerId = "F5421C71-FF83-445B-9C53-783D261A57C9";
paths = (
{
closed = 1;
nodes = (
"203 696 LINE",
"57 696 LINE",
"57 0 LINE",
"203 0 LINE"
);
},
{
closed = 1;
nodes = (
"-9 782 LINE",
"266 782 LINE",
"266 875 LINE",
"-9 875 LINE"
);
}
);
width = 260;
},
{
anchors = (
{
name = bottom;
position = "{129, 0}";
},
{
name = ogonek;
position = "{189, 15}";
},
{
name = top;
position = "{129, 645}";
},
{
name = topleft;
position = "{47, 645}";
}
);
layerId = "20F347C1-683B-45AE-B240-2F1F38013DFA";
paths = (
{
closed = 1;
nodes = (
"203 696 LINE",
"57 696 LINE",
"57 0 LINE",
"203 0 LINE"
);
},
{
closed = 1;
nodes = (
"-9 792 LINE",
"266 792 LINE",
"266 885 LINE",
"-9 885 LINE"
);
}
);
width = 260;
},
{
anchors = (
{
name = bottom;
position = "{114, 0}";
},
{
name = ogonek;
position = "{174, 15}";
},
{
name = top;
position = "{114, 645}";
},
{
name = topleft;
position = "{32, 645}";
}
);
layerId = "32EE9563-F6F8-4713-95B2-270CD8F86471";
paths = (
{
closed = 1;
nodes = (
"41 665 LINE",
"42 635 OFFCURVE",
"42 605 OFFCURVE",
"42 587 CURVE",
"44 390 LINE",
"186 381 LINE",
"186 650 LINE SMOOTH",
"186 663 OFFCURVE",
"180 671 OFFCURVE",
"171 677 CURVE",
"152 683 OFFCURVE",
"138 683 OFFCURVE",
"117 683 CURVE",
"86 683 OFFCURVE",
"63 678 OFFCURVE",
"50 674 CURVE"
);
},
{
closed = 1;
nodes = (
"41 71 LINE",
"42 0 LINE",
"65 -5 OFFCURVE",
"98 -6 OFFCURVE",
"137 -6 CURVE",
"188 0 LINE",
"186 381 LINE",
"44 420 LINE"
);
},
{
closed = 1;
nodes = (
"-32 843 OFFCURVE",
"-33 822 OFFCURVE",
"-24 792 CURVE",
"87 791 OFFCURVE",
"140 792 OFFCURVE",
"251 792 CURVE",
"258 834 OFFCURVE",
"258 843 OFFCURVE",
"251 885 CURVE",
"149 894 OFFCURVE",
"71 884 OFFCURVE",
"-24 885 CURVE"
);
}
);
width = 227;
},
{
anchors = (
{
name = bottom;
position = "{129, 0}";
},
{
name = ogonek;
position = "{189, 15}";
},
{
name = top;
position = "{129, 645}";
},
{
name = topleft;
position = "{47, 645}";
}
);
components = (
{
name = I;
},
{
name = macroncomb;
transform = "{1, 0, 0, 1, -14, 127}";
}
);
layerId = "BB1D9E28-2A49-4EEB-AB77-8ACE100BF2E3";
width = 260;
}
);
leftKerningGroup = H;
rightKerningGroup = H;
unicode = 012A;
},
{
glyphname = Iogonek;
lastChange = "2016-09-26 14:54:23 +0000";
layers = (
{
anchors = (
{
name = bottom;
position = "{129, 0}";
},
{
name = ogonek;
position = "{189, 15}";
},
{
name = top;
position = "{129, 645}";
},
{
name = topleft;
position = "{47, 645}";
}
);
layerId = "F5421C71-FF83-445B-9C53-783D261A57C9";
paths = (
{
closed = 1;
nodes = (
"203 696 LINE",
"57 696 LINE",
"57 0 LINE",
"203 0 LINE"
);
},
{
closed = 1;
nodes = (
"179 24 LINE",
"114 23 OFFCURVE",
"12 -21 OFFCURVE",
"12 -126 CURVE SMOOTH",
"12 -209 OFFCURVE",
"72 -233 OFFCURVE",
"120 -233 CURVE SMOOTH",
"156 -233 OFFCURVE",
"176 -224 OFFCURVE",
"191 -218 CURVE",
"191 -132 LINE",
"119 -134 LINE",
"119 -39 LINE",
"119 -35 OFFCURVE",
"150 -14 OFFCURVE",
"186 12 CURVE"
);
}
);
width = 260;
},
{
anchors = (
{
name = bottom;
position = "{129, 0}";
},
{
name = ogonek;
position = "{189, 15}";
},
{
name = top;
position = "{129, 645}";
},
{
name = topleft;
position = "{47, 645}";
}
);
layerId = "20F347C1-683B-45AE-B240-2F1F38013DFA";
paths = (
{
closed = 1;
nodes = (
"203 696 LINE",
"57 696 LINE",
"57 0 LINE",
"203 0 LINE"
);
},
{
closed = 1;
nodes = (
"179 24 LINE",
"114 23 OFFCURVE",
"12 -21 OFFCURVE",
"12 -126 CURVE SMOOTH",
"12 -209 OFFCURVE",
"72 -233 OFFCURVE",
"120 -233 CURVE SMOOTH",
"156 -233 OFFCURVE",
"176 -224 OFFCURVE",
"191 -218 CURVE",
"191 -132 LINE",
"119 -134 LINE",
"119 -39 LINE",
"119 -35 OFFCURVE",
"150 -14 OFFCURVE",
"186 12 CURVE"
);
}
);
width = 260;
},
{
anchors = (
{
name = bottom;
position = "{114, 0}";
},
{
name = ogonek;
position = "{174, 15}";
},
{
name = top;
position = "{114, 645}";
},
{
name = topleft;
position = "{32, 645}";
}
);
layerId = "32EE9563-F6F8-4713-95B2-270CD8F86471";
paths = (
{
closed = 1;
nodes = (
"41 665 LINE",
"42 635 OFFCURVE",
"42 605 OFFCURVE",
"42 587 CURVE",
"44 390 LINE",
"186 381 LINE",
"186 650 LINE SMOOTH",
"186 663 OFFCURVE",
"180 671 OFFCURVE",
"171 677 CURVE",
"152 683 OFFCURVE",
"138 683 OFFCURVE",
"117 683 CURVE",
"86 683 OFFCURVE",
"63 678 OFFCURVE",
"50 674 CURVE"
);
},
{
closed = 1;
nodes = (
"41 71 LINE",
"42 0 LINE",
"65 -5 OFFCURVE",
"98 -6 OFFCURVE",
"137 -6 CURVE",
"188 0 LINE",
"186 381 LINE",
"44 420 LINE"
);
},
{
closed = 1;
nodes = (
"129 48 LINE",
"104 23 OFFCURVE",
"12 -21 OFFCURVE",
"12 -126 CURVE SMOOTH",
"12 -219 OFFCURVE",
"78 -243 OFFCURVE",
"132 -243 CURVE SMOOTH",
"170 -243 OFFCURVE",
"191 -234 OFFCURVE",
"206 -228 CURVE",
"216 -212 OFFCURVE",
"227 -120 OFFCURVE",
"186 -108 CURVE",
"174 -116 OFFCURVE",
"155 -125 OFFCURVE",
"140 -125 CURVE SMOOTH",
"135 -125 OFFCURVE",
"125 -125 OFFCURVE",
"122 -123 CURVE",
"119 -116 OFFCURVE",
"119 -111 OFFCURVE",
"119 -99 CURVE SMOOTH",
"119 -33 OFFCURVE",
"180 5 OFFCURVE",
"200 53 CURVE"
);
}
);
width = 227;
},
{
anchors = (
{
name = bottom;
position = "{129, 0}";
},
{
name = ogonek;
position = "{189, 15}";
},
{
name = top;
position = "{129, 645}";
},
{
name = topleft;
position = "{47, 645}";
}
);
components = (
{
name = I;
},
{
name = ogonekcomb;
transform = "{1, 0, 0, 1, 31, 0}";
}
);
layerId = "BB1D9E28-2A49-4EEB-AB77-8ACE100BF2E3";
width = 260;
}
);
leftKerningGroup = H;
rightKerningGroup = H;
unicode = 012E;
},
{
glyphname = J;
lastChange = "2016-09-26 12:53:32 +0000";
layers = (
{
anchors = (
{
name = bottom;
position = "{173, 0}";
},
{
name = top;
position = "{248, 645}";
}
);
background = {
anchors = (
{
name = bottom;
position = "{97, 0}";
},
{
name = top;
position = "{87, 450}";
}
);
paths = (
{
closed = 1;
nodes = (
"108 229 LINE",
"108 142 OFFCURVE",
"107 70 OFFCURVE",
"106 49 CURVE",
"76 49 LINE",
"65 62 OFFCURVE",
"38 92 OFFCURVE",
"4 111 CURVE",
"-10 85 OFFCURVE",
"-23 49 OFFCURVE",
"-27 13 CURVE",
"8 0 OFFCURVE",
"36 -6 OFFCURVE",
"68 -6 CURVE",
"90 -6 LINE",
"189 -1 OFFCURVE",
"212 125 OFFCURVE",
"212 229 CURVE"
);
}
);
};
layerId = "F5421C71-FF83-445B-9C53-783D261A57C9";
paths = (
{
closed = 1;
nodes = (
"176 68 LINE",
"122 68 LINE",
"54 224 LINE",
"20 18 LINE",
"56 -2 OFFCURVE",
"114 -11 OFFCURVE",
"165 -11 CURVE SMOOTH",
"290 -11 OFFCURVE",
"321 41 OFFCURVE",
"321 195 CURVE SMOOTH",
"321 696 LINE",
"176 696 LINE"
);
}
);
width = 378;
},
{
anchors = (
{
name = bottom;
position = "{173, 0}";
},
{
name = top;
position = "{248, 645}";
}
);
background = {
anchors = (
{
name = bottom;
position = "{97, 0}";
},
{
name = top;
position = "{87, 450}";
}
);
paths = (
{
closed = 1;
nodes = (
"108 229 LINE",
"108 142 OFFCURVE",
"107 70 OFFCURVE",
"106 49 CURVE",
"76 49 LINE",
"65 62 OFFCURVE",
"38 92 OFFCURVE",
"4 111 CURVE",
"-10 85 OFFCURVE",
"-23 49 OFFCURVE",
"-27 13 CURVE",
"8 0 OFFCURVE",
"36 -6 OFFCURVE",
"68 -6 CURVE",
"90 -6 LINE",
"189 -1 OFFCURVE",
"212 125 OFFCURVE",
"212 229 CURVE"
);
}
);
};
layerId = "20F347C1-683B-45AE-B240-2F1F38013DFA";
paths = (
{
closed = 1;
nodes = (
"126 68 LINE",
"54 251 LINE",
"20 18 LINE",
"47 3 OFFCURVE",
"87 -6 OFFCURVE",
"126 -9 CURVE"
);
},
{
closed = 1;
nodes = (
"176 -11 LINE",
"288 -11 OFFCURVE",
"320 42 OFFCURVE",
"320 195 CURVE SMOOTH",
"320 696 LINE",
"176 696 LINE"
);
}
);
width = 377;
},
{
anchors = (
{
name = bottom;
position = "{188, 0}";
},
{
name = top;
position = "{263, 645}";
}
);
background = {
anchors = (
{
name = bottom;
position = "{107, 0}";
},
{
name = top;
position = "{97, 450}";
}
);
paths = (
{
closed = 1;
nodes = (
"118 229 LINE",
"118 142 OFFCURVE",
"117 70 OFFCURVE",
"116 49 CURVE",
"86 49 LINE",
"75 62 OFFCURVE",
"48 92 OFFCURVE",
"14 111 CURVE",
"0 85 OFFCURVE",
"-13 49 OFFCURVE",
"-17 13 CURVE",
"18 0 OFFCURVE",
"46 -6 OFFCURVE",
"78 -6 CURVE",
"100 -6 LINE",
"199 -1 OFFCURVE",
"222 125 OFFCURVE",
"222 229 CURVE"
);
}
);
};
layerId = "32EE9563-F6F8-4713-95B2-270CD8F86471";
paths = (
{
closed = 1;
nodes = (
"189 684 CURVE",
"191 650 OFFCURVE",
"191 615 OFFCURVE",
"191 591 CURVE",
"192 341 LINE",
"335 287 LINE",
"335 657 LINE SMOOTH",
"335 671 OFFCURVE",
"329 678 OFFCURVE",
"320 684 CURVE",
"300 690 OFFCURVE",
"287 690 OFFCURVE",
"266 690 CURVE",
"231 690 OFFCURVE",
"210 690 OFFCURVE"
);
},
{
closed = 1;
nodes = (
"192 344 LINE",
"192 213 OFFCURVE",
"191 105 OFFCURVE",
"189 74 CURVE",
"144 74 LINE",
"128 93 OFFCURVE",
"87 138 OFFCURVE",
"36 167 CURVE",
"15 128 OFFCURVE",
"-5 74 OFFCURVE",
"-11 20 CURVE",
"42 0 OFFCURVE",
"84 -9 OFFCURVE",
"132 -9 CURVE",
"165 -9 LINE",
"333 -3 OFFCURVE",
"335 137 OFFCURVE",
"335 299 CURVE"
);
}
);
width = 374;
},
{
anchors = (
{
name = bottom;
position = "{173, 0}";
},
{
name = top;
position = "{248, 645}";
}
);
background = {
anchors = (
{
name = bottom;
position = "{97, 0}";
},
{
name = top;
position = "{87, 450}";
}
);
paths = (
{
closed = 1;
nodes = (
"108 229 LINE",
"108 142 OFFCURVE",
"107 70 OFFCURVE",
"106 49 CURVE",
"76 49 LINE",
"65 62 OFFCURVE",
"38 92 OFFCURVE",
"4 111 CURVE",
"-10 85 OFFCURVE",
"-23 49 OFFCURVE",
"-27 13 CURVE",
"8 0 OFFCURVE",
"36 -6 OFFCURVE",
"68 -6 CURVE",
"90 -6 LINE",
"189 -1 OFFCURVE",
"212 125 OFFCURVE",
"212 229 CURVE"
);
}
);
};
layerId = "BB1D9E28-2A49-4EEB-AB77-8ACE100BF2E3";
paths = (
{
closed = 1;
nodes = (
"154 72 LINE",
"141.12 72 LINE",
"34 287 LINE",
"-1 14 LINE",
"32 -7 OFFCURVE",
"97.316 -15 OFFCURVE",
"157 -15 CURVE SMOOTH",
"302.63 -15 OFFCURVE",
"343 34.368 OFFCURVE",
"343 195 CURVE SMOOTH",
"343 696 LINE",
"154 696 LINE"
);
}
);
width = 378;
}
);
leftKerningGroup = J;
rightKerningGroup = J;
rightMetricsKey = H;
unicode = 004A;
},
